<?xml version="1.0" encoding="utf-8"?>
<svg xmlns="http://www.w3.org/2000/svg" xmlns:xlink="http://www.w3.org/1999/xlink" width="600" height="400" viewBox="0 0 2400 1600">
<defs>
  <clipPath id="clip260">
    <rect x="0" y="0" width="2400" height="1600"/>
  </clipPath>
</defs>
<path clip-path="url(#clip260)" d="M0 1600 L2400 1600 L2400 0 L0 0  Z" fill="#ffffff" fill-rule="evenodd" fill-opacity="1"/>
<defs>
  <clipPath id="clip261">
    <rect x="480" y="0" width="1681" height="1600"/>
  </clipPath>
</defs>
<path clip-path="url(#clip260)" d="M156.598 1181.82 L2352.76 1181.82 L2352.76 123.472 L156.598 123.472  Z" fill="#ffffff" fill-rule="evenodd" fill-opacity="1"/>
<defs>
  <clipPath id="clip262">
    <rect x="156" y="123" width="2197" height="1059"/>
  </clipPath>
</defs>
<polyline clip-path="url(#clip262)" style="stroke:#000000; stroke-linecap:round; stroke-linejoin:round; stroke-width:2; stroke-opacity:0.1; fill:none" points="483.135,1181.82 483.135,123.472 "/>
<polyline clip-path="url(#clip262)" style="stroke:#000000; stroke-linecap:round; stroke-linejoin:round; stroke-width:2; stroke-opacity:0.1; fill:none" points="997.496,1181.82 997.496,123.472 "/>
<polyline clip-path="url(#clip262)" style="stroke:#000000; stroke-linecap:round; stroke-linejoin:round; stroke-width:2; stroke-opacity:0.1; fill:none" points="1511.86,1181.82 1511.86,123.472 "/>
<polyline clip-path="url(#clip262)" style="stroke:#000000; stroke-linecap:round; stroke-linejoin:round; stroke-width:2; stroke-opacity:0.1; fill:none" points="2026.22,1181.82 2026.22,123.472 "/>
<polyline clip-path="url(#clip260)" style="stroke:#000000; stroke-linecap:round; stroke-linejoin:round; stroke-width:4; stroke-opacity:1; fill:none" points="156.598,1181.82 2352.76,1181.82 "/>
<polyline clip-path="url(#clip260)" style="stroke:#000000; stroke-linecap:round; stroke-linejoin:round; stroke-width:4; stroke-opacity:1; fill:none" points="483.135,1181.82 483.135,1167.14 "/>
<polyline clip-path="url(#clip260)" style="stroke:#000000; stroke-linecap:round; stroke-linejoin:round; stroke-width:4; stroke-opacity:1; fill:none" points="997.496,1181.82 997.496,1167.14 "/>
<polyline clip-path="url(#clip260)" style="stroke:#000000; stroke-linecap:round; stroke-linejoin:round; stroke-width:4; stroke-opacity:1; fill:none" points="1511.86,1181.82 1511.86,1167.14 "/>
<polyline clip-path="url(#clip260)" style="stroke:#000000; stroke-linecap:round; stroke-linejoin:round; stroke-width:4; stroke-opacity:1; fill:none" points="2026.22,1181.82 2026.22,1167.14 "/>
<path clip-path="url(#clip260)" d="M399.501 1209.66 L404.177 1209.66 L404.177 1244.22 L399.501 1244.22 L399.501 1209.66 Z" fill="#000000" fill-rule="nonzero" fill-opacity="1" /><path clip-path="url(#clip260)" d="M434.849 1228.57 L434.849 1244.22 L430.589 1244.22 L430.589 1228.71 Q430.589 1225.03 429.154 1223.2 Q427.719 1221.37 424.849 1221.37 Q421.4 1221.37 419.409 1223.57 Q417.418 1225.77 417.418 1229.56 L417.418 1244.22 L413.136 1244.22 L413.136 1218.29 L417.418 1218.29 L417.418 1222.32 Q418.946 1219.98 421.006 1218.82 Q423.089 1217.66 425.798 1217.66 Q430.265 1217.66 432.557 1220.44 Q434.849 1223.2 434.849 1228.57 Z" fill="#000000" fill-rule="nonzero" fill-opacity="1" /><path clip-path="url(#clip260)" d="M462.001 1219.28 L462.001 1223.27 Q460.196 1222.27 458.367 1221.78 Q456.561 1221.28 454.71 1221.28 Q450.566 1221.28 448.274 1223.91 Q445.983 1226.53 445.983 1231.28 Q445.983 1236.02 448.274 1238.66 Q450.566 1241.28 454.71 1241.28 Q456.561 1241.28 458.367 1240.79 Q460.196 1240.28 462.001 1239.28 L462.001 1243.22 Q460.219 1244.05 458.297 1244.47 Q456.399 1244.89 454.247 1244.89 Q448.39 1244.89 444.941 1241.21 Q441.492 1237.53 441.492 1231.28 Q441.492 1224.93 444.964 1221.3 Q448.46 1217.66 454.524 1217.66 Q456.492 1217.66 458.367 1218.08 Q460.242 1218.47 462.001 1219.28 Z" fill="#000000" fill-rule="nonzero" fill-opacity="1" /><path clip-path="url(#clip260)" d="M479.455 1221.28 Q476.029 1221.28 474.038 1223.96 Q472.047 1226.62 472.047 1231.28 Q472.047 1235.93 474.015 1238.61 Q476.006 1241.28 479.455 1241.28 Q482.858 1241.28 484.848 1238.59 Q486.839 1235.91 486.839 1231.28 Q486.839 1226.67 484.848 1223.98 Q482.858 1221.28 479.455 1221.28 M479.455 1217.66 Q485.01 1217.66 488.182 1221.28 Q491.353 1224.89 491.353 1231.28 Q491.353 1237.64 488.182 1241.28 Q485.01 1244.89 479.455 1244.89 Q473.876 1244.89 470.705 1241.28 Q467.557 1237.64 467.557 1231.28 Q467.557 1224.89 470.705 1221.28 Q473.876 1217.66 479.455 1217.66 Z" fill="#000000" fill-rule="nonzero" fill-opacity="1" /><path clip-path="url(#clip260)" d="M518.598 1223.27 Q520.195 1220.4 522.417 1219.03 Q524.64 1217.66 527.649 1217.66 Q531.7 1217.66 533.899 1220.51 Q536.098 1223.34 536.098 1228.57 L536.098 1244.22 L531.816 1244.22 L531.816 1228.71 Q531.816 1224.98 530.496 1223.17 Q529.177 1221.37 526.468 1221.37 Q523.158 1221.37 521.237 1223.57 Q519.316 1225.77 519.316 1229.56 L519.316 1244.22 L515.033 1244.22 L515.033 1228.71 Q515.033 1224.96 513.714 1223.17 Q512.394 1221.37 509.64 1221.37 Q506.376 1221.37 504.455 1223.59 Q502.533 1225.79 502.533 1229.56 L502.533 1244.22 L498.251 1244.22 L498.251 1218.29 L502.533 1218.29 L502.533 1222.32 Q503.992 1219.93 506.029 1218.8 Q508.066 1217.66 510.867 1217.66 Q513.691 1217.66 515.658 1219.1 Q517.649 1220.53 518.598 1223.27 Z" fill="#000000" fill-rule="nonzero" fill-opacity="1" /><path clip-path="url(#clip260)" d="M566.769 1230.19 L566.769 1232.27 L547.186 1232.27 Q547.464 1236.67 549.825 1238.98 Q552.209 1241.28 556.445 1241.28 Q558.899 1241.28 561.19 1240.67 Q563.505 1240.07 565.774 1238.87 L565.774 1242.9 Q563.482 1243.87 561.075 1244.38 Q558.667 1244.89 556.19 1244.89 Q549.987 1244.89 546.353 1241.28 Q542.741 1237.66 542.741 1231.51 Q542.741 1225.14 546.167 1221.41 Q549.616 1217.66 555.45 1217.66 Q560.681 1217.66 563.714 1221.04 Q566.769 1224.4 566.769 1230.19 M562.51 1228.94 Q562.464 1225.44 560.542 1223.36 Q558.644 1221.28 555.496 1221.28 Q551.931 1221.28 549.778 1223.29 Q547.649 1225.3 547.325 1228.96 L562.51 1228.94 Z" fill="#000000" fill-rule="nonzero" fill-opacity="1" /><path clip-path="url(#clip260)" d="M918.238 1209.66 L922.96 1209.66 L930.228 1238.87 L937.474 1209.66 L942.728 1209.66 L949.997 1238.87 L957.242 1209.66 L961.987 1209.66 L953.307 1244.22 L947.427 1244.22 L940.136 1214.22 L932.775 1244.22 L926.895 1244.22 L918.238 1209.66 Z" fill="#000000" fill-rule="nonzero" fill-opacity="1" /><path clip-path="url(#clip260)" d="M987.404 1230.19 L987.404 1232.27 L967.821 1232.27 Q968.098 1236.67 970.46 1238.98 Q972.844 1241.28 977.08 1241.28 Q979.534 1241.28 981.825 1240.67 Q984.14 1240.07 986.409 1238.87 L986.409 1242.9 Q984.117 1243.87 981.71 1244.38 Q979.302 1244.89 976.825 1244.89 Q970.622 1244.89 966.987 1241.28 Q963.376 1237.66 963.376 1231.51 Q963.376 1225.14 966.802 1221.41 Q970.251 1217.66 976.085 1217.66 Q981.316 1217.66 984.348 1221.04 Q987.404 1224.4 987.404 1230.19 M983.145 1228.94 Q983.098 1225.44 981.177 1223.36 Q979.279 1221.28 976.131 1221.28 Q972.566 1221.28 970.413 1223.29 Q968.284 1225.3 967.96 1228.96 L983.145 1228.94 Z" fill="#000000" fill-rule="nonzero" fill-opacity="1" /><path clip-path="url(#clip260)" d="M1006.18 1231.18 Q1001.01 1231.18 999.024 1232.36 Q997.034 1233.54 997.034 1236.39 Q997.034 1238.66 998.515 1240 Q1000.02 1241.32 1002.59 1241.32 Q1006.13 1241.32 1008.26 1238.82 Q1010.41 1236.3 1010.41 1232.13 L1010.41 1231.18 L1006.18 1231.18 M1014.67 1229.42 L1014.67 1244.22 L1010.41 1244.22 L1010.41 1240.28 Q1008.95 1242.64 1006.78 1243.78 Q1004.6 1244.89 1001.45 1244.89 Q997.473 1244.89 995.112 1242.66 Q992.774 1240.42 992.774 1236.67 Q992.774 1232.29 995.691 1230.07 Q998.631 1227.85 1004.44 1227.85 L1010.41 1227.85 L1010.41 1227.43 Q1010.41 1224.49 1008.47 1222.9 Q1006.55 1221.28 1003.05 1221.28 Q1000.83 1221.28 998.723 1221.81 Q996.617 1222.34 994.672 1223.41 L994.672 1219.47 Q997.01 1218.57 999.209 1218.13 Q1001.41 1217.66 1003.49 1217.66 Q1009.12 1217.66 1011.89 1220.58 Q1014.67 1223.5 1014.67 1229.42 Z" fill="#000000" fill-rule="nonzero" fill-opacity="1" /><path clip-path="url(#clip260)" d="M1023.45 1208.2 L1027.7 1208.2 L1027.7 1244.22 L1023.45 1244.22 L1023.45 1208.2 Z" fill="#000000" fill-rule="nonzero" fill-opacity="1" /><path clip-path="url(#clip260)" d="M1040.83 1210.93 L1040.83 1218.29 L1049.6 1218.29 L1049.6 1221.6 L1040.83 1221.6 L1040.83 1235.67 Q1040.83 1238.85 1041.69 1239.75 Q1042.57 1240.65 1045.23 1240.65 L1049.6 1240.65 L1049.6 1244.22 L1045.23 1244.22 Q1040.3 1244.22 1038.42 1242.39 Q1036.55 1240.53 1036.55 1235.67 L1036.55 1221.6 L1033.42 1221.6 L1033.42 1218.29 L1036.55 1218.29 L1036.55 1210.93 L1040.83 1210.93 Z" fill="#000000" fill-rule="nonzero" fill-opacity="1" /><path clip-path="url(#clip260)" d="M1076.76 1228.57 L1076.76 1244.22 L1072.5 1244.22 L1072.5 1228.71 Q1072.5 1225.03 1071.06 1223.2 Q1069.63 1221.37 1066.76 1221.37 Q1063.31 1221.37 1061.32 1223.57 Q1059.32 1225.77 1059.32 1229.56 L1059.32 1244.22 L1055.04 1244.22 L1055.04 1208.2 L1059.32 1208.2 L1059.32 1222.32 Q1060.85 1219.98 1062.91 1218.82 Q1065 1217.66 1067.7 1217.66 Q1072.17 1217.66 1074.46 1220.44 Q1076.76 1223.2 1076.76 1228.57 Z" fill="#000000" fill-rule="nonzero" fill-opacity="1" /><path clip-path="url(#clip260)" d="M1386.08 1212.32 L1386.08 1217.25 Q1383.72 1215.05 1381.04 1213.96 Q1378.37 1212.87 1375.37 1212.87 Q1369.44 1212.87 1366.29 1216.51 Q1363.14 1220.12 1363.14 1226.97 Q1363.14 1233.8 1366.29 1237.43 Q1369.44 1241.04 1375.37 1241.04 Q1378.37 1241.04 1381.04 1239.96 Q1383.72 1238.87 1386.08 1236.67 L1386.08 1241.55 Q1383.63 1243.22 1380.87 1244.05 Q1378.14 1244.89 1375.09 1244.89 Q1367.24 1244.89 1362.73 1240.1 Q1358.21 1235.28 1358.21 1226.97 Q1358.21 1218.64 1362.73 1213.85 Q1367.24 1209.03 1375.09 1209.03 Q1378.19 1209.03 1380.92 1209.86 Q1383.68 1210.67 1386.08 1212.32 Z" fill="#000000" fill-rule="nonzero" fill-opacity="1" /><path clip-path="url(#clip260)" d="M1403.17 1221.28 Q1399.74 1221.28 1397.75 1223.96 Q1395.76 1226.62 1395.76 1231.28 Q1395.76 1235.93 1397.73 1238.61 Q1399.72 1241.28 1403.17 1241.28 Q1406.57 1241.28 1408.56 1238.59 Q1410.55 1235.91 1410.55 1231.28 Q1410.55 1226.67 1408.56 1223.98 Q1406.57 1221.28 1403.17 1221.28 M1403.17 1217.66 Q1408.72 1217.66 1411.89 1221.28 Q1415.06 1224.89 1415.06 1231.28 Q1415.06 1237.64 1411.89 1241.28 Q1408.72 1244.89 1403.17 1244.89 Q1397.59 1244.89 1394.42 1241.28 Q1391.27 1237.64 1391.27 1231.28 Q1391.27 1224.89 1394.42 1221.28 Q1397.59 1217.66 1403.17 1217.66 Z" fill="#000000" fill-rule="nonzero" fill-opacity="1" /><path clip-path="url(#clip260)" d="M1443.68 1228.57 L1443.68 1244.22 L1439.42 1244.22 L1439.42 1228.71 Q1439.42 1225.03 1437.98 1223.2 Q1436.55 1221.37 1433.68 1221.37 Q1430.23 1221.37 1428.24 1223.57 Q1426.24 1225.77 1426.24 1229.56 L1426.24 1244.22 L1421.96 1244.22 L1421.96 1218.29 L1426.24 1218.29 L1426.24 1222.32 Q1427.77 1219.98 1429.83 1218.82 Q1431.92 1217.66 1434.62 1217.66 Q1439.09 1217.66 1441.38 1220.44 Q1443.68 1223.2 1443.68 1228.57 Z" fill="#000000" fill-rule="nonzero" fill-opacity="1" /><path clip-path="url(#clip260)" d="M1468.7 1219.05 L1468.7 1223.08 Q1466.89 1222.16 1464.95 1221.69 Q1463 1221.23 1460.92 1221.23 Q1457.75 1221.23 1456.15 1222.2 Q1454.58 1223.17 1454.58 1225.12 Q1454.58 1226.6 1455.71 1227.46 Q1456.85 1228.29 1460.27 1229.05 L1461.73 1229.38 Q1466.27 1230.35 1468.17 1232.13 Q1470.09 1233.89 1470.09 1237.06 Q1470.09 1240.67 1467.22 1242.78 Q1464.37 1244.89 1459.37 1244.89 Q1457.29 1244.89 1455.02 1244.47 Q1452.77 1244.08 1450.27 1243.27 L1450.27 1238.87 Q1452.63 1240.1 1454.93 1240.72 Q1457.22 1241.32 1459.46 1241.32 Q1462.47 1241.32 1464.09 1240.3 Q1465.71 1239.26 1465.71 1237.39 Q1465.71 1235.65 1464.53 1234.72 Q1463.37 1233.8 1459.42 1232.94 L1457.93 1232.6 Q1453.98 1231.76 1452.22 1230.05 Q1450.46 1228.31 1450.46 1225.3 Q1450.46 1221.65 1453.05 1219.66 Q1455.64 1217.66 1460.41 1217.66 Q1462.77 1217.66 1464.86 1218.01 Q1466.94 1218.36 1468.7 1219.05 Z" fill="#000000" fill-rule="nonzero" fill-opacity="1" /><path clip-path="url(#clip260)" d="M1476.43 1233.98 L1476.43 1218.29 L1480.69 1218.29 L1480.69 1233.82 Q1480.69 1237.5 1482.12 1239.35 Q1483.56 1241.18 1486.43 1241.18 Q1489.88 1241.18 1491.87 1238.98 Q1493.88 1236.78 1493.88 1232.99 L1493.88 1218.29 L1498.14 1218.29 L1498.14 1244.22 L1493.88 1244.22 L1493.88 1240.23 Q1492.33 1242.59 1490.27 1243.75 Q1488.24 1244.89 1485.53 1244.89 Q1481.06 1244.89 1478.74 1242.11 Q1476.43 1239.33 1476.43 1233.98 M1487.15 1217.66 L1487.15 1217.66 Z" fill="#000000" fill-rule="nonzero" fill-opacity="1" /><path clip-path="url(#clip260)" d="M1527.1 1223.27 Q1528.7 1220.4 1530.92 1219.03 Q1533.14 1217.66 1536.15 1217.66 Q1540.2 1217.66 1542.4 1220.51 Q1544.6 1223.34 1544.6 1228.57 L1544.6 1244.22 L1540.32 1244.22 L1540.32 1228.71 Q1540.32 1224.98 1539 1223.17 Q1537.68 1221.37 1534.97 1221.37 Q1531.66 1221.37 1529.74 1223.57 Q1527.82 1225.77 1527.82 1229.56 L1527.82 1244.22 L1523.54 1244.22 L1523.54 1228.71 Q1523.54 1224.96 1522.22 1223.17 Q1520.9 1221.37 1518.14 1221.37 Q1514.88 1221.37 1512.96 1223.59 Q1511.04 1225.79 1511.04 1229.56 L1511.04 1244.22 L1506.75 1244.22 L1506.75 1218.29 L1511.04 1218.29 L1511.04 1222.32 Q1512.49 1219.93 1514.53 1218.8 Q1516.57 1217.66 1519.37 1217.66 Q1522.19 1217.66 1524.16 1219.1 Q1526.15 1220.53 1527.1 1223.27 Z" fill="#000000" fill-rule="nonzero" fill-opacity="1" /><path clip-path="url(#clip260)" d="M1557.22 1240.33 L1557.22 1254.08 L1552.93 1254.08 L1552.93 1218.29 L1557.22 1218.29 L1557.22 1222.22 Q1558.56 1219.91 1560.6 1218.8 Q1562.66 1217.66 1565.5 1217.66 Q1570.23 1217.66 1573.17 1221.41 Q1576.13 1225.16 1576.13 1231.28 Q1576.13 1237.39 1573.17 1241.14 Q1570.23 1244.89 1565.5 1244.89 Q1562.66 1244.89 1560.6 1243.78 Q1558.56 1242.64 1557.22 1240.33 M1571.71 1231.28 Q1571.71 1226.58 1569.76 1223.91 Q1567.84 1221.23 1564.46 1221.23 Q1561.08 1221.23 1559.14 1223.91 Q1557.22 1226.58 1557.22 1231.28 Q1557.22 1235.97 1559.14 1238.66 Q1561.08 1241.32 1564.46 1241.32 Q1567.84 1241.32 1569.76 1238.66 Q1571.71 1235.97 1571.71 1231.28 Z" fill="#000000" fill-rule="nonzero" fill-opacity="1" /><path clip-path="url(#clip260)" d="M1587.4 1210.93 L1587.4 1218.29 L1596.17 1218.29 L1596.17 1221.6 L1587.4 1221.6 L1587.4 1235.67 Q1587.4 1238.85 1588.26 1239.75 Q1589.14 1240.65 1591.8 1240.65 L1596.17 1240.65 L1596.17 1244.22 L1591.8 1244.22 Q1586.87 1244.22 1584.99 1242.39 Q1583.12 1240.53 1583.12 1235.67 L1583.12 1221.6 L1579.99 1221.6 L1579.99 1218.29 L1583.12 1218.29 L1583.12 1210.93 L1587.4 1210.93 Z" fill="#000000" fill-rule="nonzero" fill-opacity="1" /><path clip-path="url(#clip260)" d="M1601.78 1218.29 L1606.04 1218.29 L1606.04 1244.22 L1601.78 1244.22 L1601.78 1218.29 M1601.78 1208.2 L1606.04 1208.2 L1606.04 1213.59 L1601.78 1213.59 L1601.78 1208.2 Z" fill="#000000" fill-rule="nonzero" fill-opacity="1" /><path clip-path="url(#clip260)" d="M1624.99 1221.28 Q1621.57 1221.28 1619.58 1223.96 Q1617.59 1226.62 1617.59 1231.28 Q1617.59 1235.93 1619.55 1238.61 Q1621.54 1241.28 1624.99 1241.28 Q1628.4 1241.28 1630.39 1238.59 Q1632.38 1235.91 1632.38 1231.28 Q1632.38 1226.67 1630.39 1223.98 Q1628.4 1221.28 1624.99 1221.28 M1624.99 1217.66 Q1630.55 1217.66 1633.72 1221.28 Q1636.89 1224.89 1636.89 1231.28 Q1636.89 1237.64 1633.72 1241.28 Q1630.55 1244.89 1624.99 1244.89 Q1619.41 1244.89 1616.24 1241.28 Q1613.1 1237.64 1613.1 1231.28 Q1613.1 1224.89 1616.24 1221.28 Q1619.41 1217.66 1624.99 1217.66 Z" fill="#000000" fill-rule="nonzero" fill-opacity="1" /><path clip-path="url(#clip260)" d="M1665.5 1228.57 L1665.5 1244.22 L1661.24 1244.22 L1661.24 1228.71 Q1661.24 1225.03 1659.81 1223.2 Q1658.37 1221.37 1655.5 1221.37 Q1652.05 1221.37 1650.06 1223.57 Q1648.07 1225.77 1648.07 1229.56 L1648.07 1244.22 L1643.79 1244.22 L1643.79 1218.29 L1648.07 1218.29 L1648.07 1222.32 Q1649.6 1219.98 1651.66 1218.82 Q1653.74 1217.66 1656.45 1217.66 Q1660.92 1217.66 1663.21 1220.44 Q1665.5 1223.2 1665.5 1228.57 Z" fill="#000000" fill-rule="nonzero" fill-opacity="1" /><path clip-path="url(#clip260)" d="M1968.6 1214.26 L1962.26 1231.46 L1974.97 1231.46 L1968.6 1214.26 M1965.96 1209.66 L1971.27 1209.66 L1984.44 1244.22 L1979.58 1244.22 L1976.43 1235.35 L1960.85 1235.35 L1957.7 1244.22 L1952.77 1244.22 L1965.96 1209.66 Z" fill="#000000" fill-rule="nonzero" fill-opacity="1" /><path clip-path="url(#clip260)" d="M2007.91 1231.28 Q2007.91 1226.58 2005.96 1223.91 Q2004.04 1221.23 2000.66 1221.23 Q1997.28 1221.23 1995.34 1223.91 Q1993.42 1226.58 1993.42 1231.28 Q1993.42 1235.97 1995.34 1238.66 Q1997.28 1241.32 2000.66 1241.32 Q2004.04 1241.32 2005.96 1238.66 Q2007.91 1235.97 2007.91 1231.28 M1993.42 1222.22 Q1994.76 1219.91 1996.8 1218.8 Q1998.86 1217.66 2001.71 1217.66 Q2006.43 1217.66 2009.37 1221.41 Q2012.33 1225.16 2012.33 1231.28 Q2012.33 1237.39 2009.37 1241.14 Q2006.43 1244.89 2001.71 1244.89 Q1998.86 1244.89 1996.8 1243.78 Q1994.76 1242.64 1993.42 1240.33 L1993.42 1244.22 L1989.14 1244.22 L1989.14 1208.2 L1993.42 1208.2 L1993.42 1222.22 Z" fill="#000000" fill-rule="nonzero" fill-opacity="1" /><path clip-path="url(#clip260)" d="M2019.39 1218.29 L2023.65 1218.29 L2023.65 1244.22 L2019.39 1244.22 L2019.39 1218.29 M2019.39 1208.2 L2023.65 1208.2 L2023.65 1213.59 L2019.39 1213.59 L2019.39 1208.2 Z" fill="#000000" fill-rule="nonzero" fill-opacity="1" /><path clip-path="url(#clip260)" d="M2032.56 1208.2 L2036.82 1208.2 L2036.82 1244.22 L2032.56 1244.22 L2032.56 1208.2 Z" fill="#000000" fill-rule="nonzero" fill-opacity="1" /><path clip-path="url(#clip260)" d="M2045.73 1218.29 L2049.99 1218.29 L2049.99 1244.22 L2045.73 1244.22 L2045.73 1218.29 M2045.73 1208.2 L2049.99 1208.2 L2049.99 1213.59 L2045.73 1213.59 L2045.73 1208.2 Z" fill="#000000" fill-rule="nonzero" fill-opacity="1" /><path clip-path="url(#clip260)" d="M2063.12 1210.93 L2063.12 1218.29 L2071.89 1218.29 L2071.89 1221.6 L2063.12 1221.6 L2063.12 1235.67 Q2063.12 1238.85 2063.97 1239.75 Q2064.85 1240.65 2067.51 1240.65 L2071.89 1240.65 L2071.89 1244.22 L2067.51 1244.22 Q2062.58 1244.22 2060.71 1242.39 Q2058.83 1240.53 2058.83 1235.67 L2058.83 1221.6 L2055.71 1221.6 L2055.71 1218.29 L2058.83 1218.29 L2058.83 1210.93 L2063.12 1210.93 Z" fill="#000000" fill-rule="nonzero" fill-opacity="1" /><path clip-path="url(#clip260)" d="M2088.28 1246.62 Q2086.47 1251.25 2084.76 1252.66 Q2083.05 1254.08 2080.18 1254.08 L2076.77 1254.08 L2076.77 1250.51 L2079.27 1250.51 Q2081.03 1250.51 2082.01 1249.68 Q2082.98 1248.84 2084.16 1245.74 L2084.92 1243.8 L2074.44 1218.29 L2078.95 1218.29 L2087.05 1238.57 L2095.15 1218.29 L2099.67 1218.29 L2088.28 1246.62 Z" fill="#000000" fill-rule="nonzero" fill-opacity="1" /><polyline clip-path="url(#clip262)" style="stroke:#000000; stroke-linecap:round; stroke-linejoin:round; stroke-width:2; stroke-opacity:0.1; fill:none" points="156.598,1181.82 2352.76,1181.82 "/>
<polyline clip-path="url(#clip262)" style="stroke:#000000; stroke-linecap:round; stroke-linejoin:round; stroke-width:2; stroke-opacity:0.1; fill:none" points="156.598,922.811 2352.76,922.811 "/>
<polyline clip-path="url(#clip262)" style="stroke:#000000; stroke-linecap:round; stroke-linejoin:round; stroke-width:2; stroke-opacity:0.1; fill:none" points="156.598,663.807 2352.76,663.807 "/>
<polyline clip-path="url(#clip262)" style="stroke:#000000; stroke-linecap:round; stroke-linejoin:round; stroke-width:2; stroke-opacity:0.1; fill:none" points="156.598,404.803 2352.76,404.803 "/>
<polyline clip-path="url(#clip262)" style="stroke:#000000; stroke-linecap:round; stroke-linejoin:round; stroke-width:2; stroke-opacity:0.1; fill:none" points="156.598,145.799 2352.76,145.799 "/>
<polyline clip-path="url(#clip260)" style="stroke:#000000; stroke-linecap:round; stroke-linejoin:round; stroke-width:4; stroke-opacity:1; fill:none" points="156.598,1181.82 156.598,123.472 "/>
<polyline clip-path="url(#clip260)" style="stroke:#000000; stroke-linecap:round; stroke-linejoin:round; stroke-width:4; stroke-opacity:1; fill:none" points="156.598,1181.82 175.496,1181.82 "/>
<polyline clip-path="url(#clip260)" style="stroke:#000000; stroke-linecap:round; stroke-linejoin:round; stroke-width:4; stroke-opacity:1; fill:none" points="156.598,922.811 175.496,922.811 "/>
<polyline clip-path="url(#clip260)" style="stroke:#000000; stroke-linecap:round; stroke-linejoin:round; stroke-width:4; stroke-opacity:1; fill:none" points="156.598,663.807 175.496,663.807 "/>
<polyline clip-path="url(#clip260)" style="stroke:#000000; stroke-linecap:round; stroke-linejoin:round; stroke-width:4; stroke-opacity:1; fill:none" points="156.598,404.803 175.496,404.803 "/>
<polyline clip-path="url(#clip260)" style="stroke:#000000; stroke-linecap:round; stroke-linejoin:round; stroke-width:4; stroke-opacity:1; fill:none" points="156.598,145.799 175.496,145.799 "/>
<path clip-path="url(#clip260)" d="M63.4226 1167.61 Q59.8115 1167.61 57.9828 1171.18 Q56.1773 1174.72 56.1773 1181.85 Q56.1773 1188.96 57.9828 1192.52 Q59.8115 1196.06 63.4226 1196.06 Q67.0569 1196.06 68.8624 1192.52 Q70.6911 1188.96 70.6911 1181.85 Q70.6911 1174.72 68.8624 1171.18 Q67.0569 1167.61 63.4226 1167.61 M63.4226 1163.91 Q69.2328 1163.91 72.2883 1168.52 Q75.367 1173.1 75.367 1181.85 Q75.367 1190.58 72.2883 1195.18 Q69.2328 1199.77 63.4226 1199.77 Q57.6125 1199.77 54.5338 1195.18 Q51.4782 1190.58 51.4782 1181.85 Q51.4782 1173.1 54.5338 1168.52 Q57.6125 1163.91 63.4226 1163.91 Z" fill="#000000" fill-rule="nonzero" fill-opacity="1" /><path clip-path="url(#clip260)" d="M83.5845 1193.22 L88.4688 1193.22 L88.4688 1199.1 L83.5845 1199.1 L83.5845 1193.22 Z" fill="#000000" fill-rule="nonzero" fill-opacity="1" /><path clip-path="url(#clip260)" d="M108.654 1167.61 Q105.043 1167.61 103.214 1171.18 Q101.409 1174.72 101.409 1181.85 Q101.409 1188.96 103.214 1192.52 Q105.043 1196.06 108.654 1196.06 Q112.288 1196.06 114.094 1192.52 Q115.922 1188.96 115.922 1181.85 Q115.922 1174.72 114.094 1171.18 Q112.288 1167.61 108.654 1167.61 M108.654 1163.91 Q114.464 1163.91 117.52 1168.52 Q120.598 1173.1 120.598 1181.85 Q120.598 1190.58 117.52 1195.18 Q114.464 1199.77 108.654 1199.77 Q102.844 1199.77 99.765 1195.18 Q96.7095 1190.58 96.7095 1181.85 Q96.7095 1173.1 99.765 1168.52 Q102.844 1163.91 108.654 1163.91 Z" fill="#000000" fill-rule="nonzero" fill-opacity="1" /><path clip-path="url(#clip260)" d="M64.6495 908.61 Q61.0384 908.61 59.2097 912.175 Q57.4041 915.716 57.4041 922.846 Q57.4041 929.952 59.2097 933.517 Q61.0384 937.059 64.6495 937.059 Q68.2837 937.059 70.0892 933.517 Q71.9179 929.952 71.9179 922.846 Q71.9179 915.716 70.0892 912.175 Q68.2837 908.61 64.6495 908.61 M64.6495 904.906 Q70.4596 904.906 73.5152 909.513 Q76.5938 914.096 76.5938 922.846 Q76.5938 931.573 73.5152 936.179 Q70.4596 940.762 64.6495 940.762 Q58.8393 940.762 55.7606 936.179 Q52.7051 931.573 52.7051 922.846 Q52.7051 914.096 55.7606 909.513 Q58.8393 904.906 64.6495 904.906 Z" fill="#000000" fill-rule="nonzero" fill-opacity="1" /><path clip-path="url(#clip260)" d="M84.8114 934.212 L89.6956 934.212 L89.6956 940.091 L84.8114 940.091 L84.8114 934.212 Z" fill="#000000" fill-rule="nonzero" fill-opacity="1" /><path clip-path="url(#clip260)" d="M100.691 936.156 L108.33 936.156 L108.33 909.79 L100.02 911.457 L100.02 907.198 L108.283 905.531 L112.959 905.531 L112.959 936.156 L120.598 936.156 L120.598 940.091 L100.691 940.091 L100.691 936.156 Z" fill="#000000" fill-rule="nonzero" fill-opacity="1" /><path clip-path="url(#clip260)" d="M65.0198 649.606 Q61.4087 649.606 59.58 653.17 Q57.7745 656.712 57.7745 663.842 Q57.7745 670.948 59.58 674.513 Q61.4087 678.055 65.0198 678.055 Q68.6541 678.055 70.4596 674.513 Q72.2883 670.948 72.2883 663.842 Q72.2883 656.712 70.4596 653.17 Q68.6541 649.606 65.0198 649.606 M65.0198 645.902 Q70.83 645.902 73.8855 650.508 Q76.9642 655.092 76.9642 663.842 Q76.9642 672.569 73.8855 677.175 Q70.83 681.758 65.0198 681.758 Q59.2097 681.758 56.131 677.175 Q53.0754 672.569 53.0754 663.842 Q53.0754 655.092 56.131 650.508 Q59.2097 645.902 65.0198 645.902 Z" fill="#000000" fill-rule="nonzero" fill-opacity="1" /><path clip-path="url(#clip260)" d="M85.1818 675.207 L90.066 675.207 L90.066 681.087 L85.1818 681.087 L85.1818 675.207 Z" fill="#000000" fill-rule="nonzero" fill-opacity="1" /><path clip-path="url(#clip260)" d="M104.279 677.152 L120.598 677.152 L120.598 681.087 L98.6539 681.087 L98.6539 677.152 Q101.316 674.397 105.899 669.768 Q110.506 665.115 111.686 663.772 Q113.932 661.249 114.811 659.513 Q115.714 657.754 115.714 656.064 Q115.714 653.309 113.77 651.573 Q111.848 649.837 108.746 649.837 Q106.547 649.837 104.094 650.601 Q101.663 651.365 98.8854 652.916 L98.8854 648.194 Q101.709 647.059 104.163 646.481 Q106.617 645.902 108.654 645.902 Q114.024 645.902 117.219 648.587 Q120.413 651.272 120.413 655.763 Q120.413 657.893 119.603 659.814 Q118.816 661.712 116.709 664.305 Q116.131 664.976 113.029 668.194 Q109.927 671.388 104.279 677.152 Z" fill="#000000" fill-rule="nonzero" fill-opacity="1" /><path clip-path="url(#clip260)" d="M64.0708 390.601 Q60.4597 390.601 58.631 394.166 Q56.8254 397.708 56.8254 404.838 Q56.8254 411.944 58.631 415.509 Q60.4597 419.05 64.0708 419.05 Q67.705 419.05 69.5105 415.509 Q71.3392 411.944 71.3392 404.838 Q71.3392 397.708 69.5105 394.166 Q67.705 390.601 64.0708 390.601 M64.0708 386.898 Q69.8809 386.898 72.9365 391.504 Q76.0151 396.088 76.0151 404.838 Q76.0151 413.564 72.9365 418.171 Q69.8809 422.754 64.0708 422.754 Q58.2606 422.754 55.1819 418.171 Q52.1264 413.564 52.1264 404.838 Q52.1264 396.088 55.1819 391.504 Q58.2606 386.898 64.0708 386.898 Z" fill="#000000" fill-rule="nonzero" fill-opacity="1" /><path clip-path="url(#clip260)" d="M84.2327 416.203 L89.1169 416.203 L89.1169 422.083 L84.2327 422.083 L84.2327 416.203 Z" fill="#000000" fill-rule="nonzero" fill-opacity="1" /><path clip-path="url(#clip260)" d="M113.469 403.449 Q116.825 404.166 118.7 406.435 Q120.598 408.703 120.598 412.037 Q120.598 417.152 117.08 419.953 Q113.561 422.754 107.08 422.754 Q104.904 422.754 102.589 422.314 Q100.297 421.898 97.8437 421.041 L97.8437 416.527 Q99.7882 417.662 102.103 418.24 Q104.418 418.819 106.941 418.819 Q111.339 418.819 113.631 417.083 Q115.945 415.347 115.945 412.037 Q115.945 408.981 113.793 407.268 Q111.663 405.532 107.844 405.532 L103.816 405.532 L103.816 401.689 L108.029 401.689 Q111.478 401.689 113.307 400.324 Q115.135 398.935 115.135 396.342 Q115.135 393.68 113.237 392.268 Q111.362 390.833 107.844 390.833 Q105.922 390.833 103.723 391.25 Q101.524 391.666 98.8854 392.546 L98.8854 388.379 Q101.547 387.639 103.862 387.268 Q106.2 386.898 108.26 386.898 Q113.584 386.898 116.686 389.328 Q119.788 391.736 119.788 395.856 Q119.788 398.726 118.145 400.717 Q116.501 402.685 113.469 403.449 Z" fill="#000000" fill-rule="nonzero" fill-opacity="1" /><path clip-path="url(#clip260)" d="M62.9365 131.597 Q59.3254 131.597 57.4967 135.162 Q55.6912 138.704 55.6912 145.833 Q55.6912 152.94 57.4967 156.505 Q59.3254 160.046 62.9365 160.046 Q66.5707 160.046 68.3763 156.505 Q70.205 152.94 70.205 145.833 Q70.205 138.704 68.3763 135.162 Q66.5707 131.597 62.9365 131.597 M62.9365 127.894 Q68.7467 127.894 71.8022 132.5 Q74.8809 137.083 74.8809 145.833 Q74.8809 154.56 71.8022 159.167 Q68.7467 163.75 62.9365 163.75 Q57.1264 163.75 54.0477 159.167 Q50.9921 154.56 50.9921 145.833 Q50.9921 137.083 54.0477 132.5 Q57.1264 127.894 62.9365 127.894 Z" fill="#000000" fill-rule="nonzero" fill-opacity="1" /><path clip-path="url(#clip260)" d="M83.0984 157.199 L87.9827 157.199 L87.9827 163.079 L83.0984 163.079 L83.0984 157.199 Z" fill="#000000" fill-rule="nonzero" fill-opacity="1" /><path clip-path="url(#clip260)" d="M111.015 132.593 L99.2095 151.042 L111.015 151.042 L111.015 132.593 M109.788 128.519 L115.668 128.519 L115.668 151.042 L120.598 151.042 L120.598 154.931 L115.668 154.931 L115.668 163.079 L111.015 163.079 L111.015 154.931 L95.4132 154.931 L95.4132 150.417 L109.788 128.519 Z" fill="#000000" fill-rule="nonzero" fill-opacity="1" /><path clip-path="url(#clip260)" d="M475.992 12.096 L527.155 12.096 L527.155 18.9825 L505.685 18.9825 L505.685 72.576 L497.462 72.576 L497.462 18.9825 L475.992 18.9825 L475.992 12.096 Z" fill="#000000" fill-rule="nonzero" fill-opacity="1" /><path clip-path="url(#clip260)" d="M572.444 45.1919 L572.444 72.576 L564.99 72.576 L564.99 45.4349 Q564.99 38.994 562.479 35.7938 Q559.967 32.5936 554.944 32.5936 Q548.908 32.5936 545.425 36.4419 Q541.941 40.2903 541.941 46.9338 L541.941 72.576 L534.447 72.576 L534.447 9.54393 L541.941 9.54393 L541.941 34.2544 Q544.614 30.163 548.22 28.1376 Q551.865 26.1121 556.605 26.1121 Q564.423 26.1121 568.434 30.9732 Q572.444 35.7938 572.444 45.1919 Z" fill="#000000" fill-rule="nonzero" fill-opacity="1" /><path clip-path="url(#clip260)" d="M626.119 48.0275 L626.119 51.6733 L591.848 51.6733 Q592.334 59.3701 596.466 63.421 Q600.638 67.4314 608.051 67.4314 Q612.345 67.4314 616.356 66.3781 Q620.407 65.3249 624.377 63.2184 L624.377 70.267 Q620.366 71.9684 616.153 72.8596 Q611.94 73.7508 607.606 73.7508 Q596.749 73.7508 590.39 67.4314 Q584.07 61.1119 584.07 50.3365 Q584.07 39.1965 590.065 32.6746 Q596.101 26.1121 606.31 26.1121 Q615.465 26.1121 620.771 32.0264 Q626.119 37.9003 626.119 48.0275 M618.665 45.84 Q618.584 39.7232 615.222 36.0774 Q611.9 32.4315 606.391 32.4315 Q600.152 32.4315 596.385 35.9558 Q592.658 39.4801 592.091 45.8805 L618.665 45.84 Z" fill="#000000" fill-rule="nonzero" fill-opacity="1" /><path clip-path="url(#clip260)" d="M638.352 27.2059 L645.806 27.2059 L645.806 72.576 L638.352 72.576 L638.352 27.2059 M638.352 9.54393 L645.806 9.54393 L645.806 18.9825 L638.352 18.9825 L638.352 9.54393 Z" fill="#000000" fill-rule="nonzero" fill-opacity="1" /><path clip-path="url(#clip260)" d="M661.402 9.54393 L668.856 9.54393 L668.856 72.576 L661.402 72.576 L661.402 9.54393 Z" fill="#000000" fill-rule="nonzero" fill-opacity="1" /><path clip-path="url(#clip260)" d="M710.823 27.2059 L718.277 27.2059 L718.277 72.576 L710.823 72.576 L710.823 27.2059 M710.823 9.54393 L718.277 9.54393 L718.277 18.9825 L710.823 18.9825 L710.823 9.54393 Z" fill="#000000" fill-rule="nonzero" fill-opacity="1" /><path clip-path="url(#clip260)" d="M771.586 45.1919 L771.586 72.576 L764.133 72.576 L764.133 45.4349 Q764.133 38.994 761.621 35.7938 Q759.11 32.5936 754.087 32.5936 Q748.051 32.5936 744.567 36.4419 Q741.083 40.2903 741.083 46.9338 L741.083 72.576 L733.589 72.576 L733.589 27.2059 L741.083 27.2059 L741.083 34.2544 Q743.757 30.163 747.362 28.1376 Q751.008 26.1121 755.747 26.1121 Q763.566 26.1121 767.576 30.9732 Q771.586 35.7938 771.586 45.1919 Z" fill="#000000" fill-rule="nonzero" fill-opacity="1" /><path clip-path="url(#clip260)" d="M825.261 48.0275 L825.261 51.6733 L790.99 51.6733 Q791.476 59.3701 795.608 63.421 Q799.781 67.4314 807.194 67.4314 Q811.488 67.4314 815.498 66.3781 Q819.549 65.3249 823.519 63.2184 L823.519 70.267 Q819.509 71.9684 815.296 72.8596 Q811.083 73.7508 806.748 73.7508 Q795.892 73.7508 789.532 67.4314 Q783.213 61.1119 783.213 50.3365 Q783.213 39.1965 789.208 32.6746 Q795.244 26.1121 805.452 26.1121 Q814.607 26.1121 819.914 32.0264 Q825.261 37.9003 825.261 48.0275 M817.807 45.84 Q817.726 39.7232 814.364 36.0774 Q811.042 32.4315 805.533 32.4315 Q799.295 32.4315 795.527 35.9558 Q791.8 39.4801 791.233 45.8805 L817.807 45.84 Z" fill="#000000" fill-rule="nonzero" fill-opacity="1" /><path clip-path="url(#clip260)" d="M841.951 49.9314 Q841.951 58.1548 845.313 62.8538 Q848.716 67.5124 854.63 67.5124 Q860.544 67.5124 863.947 62.8538 Q867.35 58.1548 867.35 49.9314 Q867.35 41.7081 863.947 37.0496 Q860.544 32.3505 854.63 32.3505 Q848.716 32.3505 845.313 37.0496 Q841.951 41.7081 841.951 49.9314 M867.35 65.7705 Q865 69.8214 861.395 71.8063 Q857.83 73.7508 852.807 73.7508 Q844.584 73.7508 839.399 67.1883 Q834.254 60.6258 834.254 49.9314 Q834.254 39.2371 839.399 32.6746 Q844.584 26.1121 852.807 26.1121 Q857.83 26.1121 861.395 28.0971 Q865 30.0415 867.35 34.0924 L867.35 27.2059 L874.804 27.2059 L874.804 89.8329 L867.35 89.8329 L867.35 65.7705 Z" fill="#000000" fill-rule="nonzero" fill-opacity="1" /><path clip-path="url(#clip260)" d="M889.387 54.671 L889.387 27.2059 L896.84 27.2059 L896.84 54.3874 Q896.84 60.8284 899.352 64.0691 Q901.864 67.2693 906.887 67.2693 Q912.923 67.2693 916.406 63.421 Q919.931 59.5726 919.931 52.9291 L919.931 27.2059 L927.384 27.2059 L927.384 72.576 L919.931 72.576 L919.931 65.6084 Q917.216 69.7404 913.611 71.7658 Q910.046 73.7508 905.307 73.7508 Q897.489 73.7508 893.438 68.8897 Q889.387 64.0286 889.387 54.671 M908.142 26.1121 L908.142 26.1121 Z" fill="#000000" fill-rule="nonzero" fill-opacity="1" /><path clip-path="url(#clip260)" d="M963.356 49.7694 Q954.323 49.7694 950.839 51.8354 Q947.355 53.9013 947.355 58.8839 Q947.355 62.8538 949.948 65.2034 Q952.581 67.5124 957.077 67.5124 Q963.275 67.5124 967.002 63.1374 Q970.769 58.7219 970.769 51.4303 L970.769 49.7694 L963.356 49.7694 M978.223 46.6907 L978.223 72.576 L970.769 72.576 L970.769 65.6895 Q968.217 69.8214 964.41 71.8063 Q960.602 73.7508 955.092 73.7508 Q948.125 73.7508 943.993 69.8619 Q939.902 65.9325 939.902 59.3701 Q939.902 51.7138 945.006 47.825 Q950.15 43.9361 960.318 43.9361 L970.769 43.9361 L970.769 43.2069 Q970.769 38.0623 967.367 35.2672 Q964.004 32.4315 957.888 32.4315 Q953.999 32.4315 950.312 33.3632 Q946.626 34.295 943.223 36.1584 L943.223 29.2718 Q947.315 27.692 951.163 26.9223 Q955.011 26.1121 958.657 26.1121 Q968.501 26.1121 973.362 31.2163 Q978.223 36.3204 978.223 46.6907 Z" fill="#000000" fill-rule="nonzero" fill-opacity="1" /><path clip-path="url(#clip260)" d="M993.576 9.54393 L1001.03 9.54393 L1001.03 72.576 L993.576 72.576 L993.576 9.54393 Z" fill="#000000" fill-rule="nonzero" fill-opacity="1" /><path clip-path="url(#clip260)" d="M1016.63 27.2059 L1024.08 27.2059 L1024.08 72.576 L1016.63 72.576 L1016.63 27.2059 M1016.63 9.54393 L1024.08 9.54393 L1024.08 18.9825 L1016.63 18.9825 L1016.63 9.54393 Z" fill="#000000" fill-rule="nonzero" fill-opacity="1" /><path clip-path="url(#clip260)" d="M1047.05 14.324 L1047.05 27.2059 L1062.4 27.2059 L1062.4 32.9987 L1047.05 32.9987 L1047.05 57.6282 Q1047.05 63.1779 1048.55 64.7578 Q1050.09 66.3376 1054.74 66.3376 L1062.4 66.3376 L1062.4 72.576 L1054.74 72.576 Q1046.12 72.576 1042.84 69.3758 Q1039.55 66.1351 1039.55 57.6282 L1039.55 32.9987 L1034.09 32.9987 L1034.09 27.2059 L1039.55 27.2059 L1039.55 14.324 L1047.05 14.324 Z" fill="#000000" fill-rule="nonzero" fill-opacity="1" /><path clip-path="url(#clip260)" d="M1091.08 76.7889 Q1087.92 84.8907 1084.92 87.3618 Q1081.93 89.8329 1076.9 89.8329 L1070.95 89.8329 L1070.95 83.5945 L1075.32 83.5945 Q1078.4 83.5945 1080.1 82.1361 Q1081.8 80.6778 1083.87 75.2496 L1085.21 71.8468 L1066.86 27.2059 L1074.76 27.2059 L1088.93 62.6918 L1103.11 27.2059 L1111.01 27.2059 L1091.08 76.7889 Z" fill="#000000" fill-rule="nonzero" fill-opacity="1" /><path clip-path="url(#clip260)" d="M1147.67 27.2059 L1155.13 27.2059 L1155.13 72.576 L1147.67 72.576 L1147.67 27.2059 M1147.67 9.54393 L1155.13 9.54393 L1155.13 18.9825 L1147.67 18.9825 L1147.67 9.54393 Z" fill="#000000" fill-rule="nonzero" fill-opacity="1" /><path clip-path="url(#clip260)" d="M1208.44 45.1919 L1208.44 72.576 L1200.98 72.576 L1200.98 45.4349 Q1200.98 38.994 1198.47 35.7938 Q1195.96 32.5936 1190.94 32.5936 Q1184.9 32.5936 1181.42 36.4419 Q1177.93 40.2903 1177.93 46.9338 L1177.93 72.576 L1170.44 72.576 L1170.44 27.2059 L1177.93 27.2059 L1177.93 34.2544 Q1180.61 30.163 1184.21 28.1376 Q1187.86 26.1121 1192.6 26.1121 Q1200.42 26.1121 1204.43 30.9732 Q1208.44 35.7938 1208.44 45.1919 Z" fill="#000000" fill-rule="nonzero" fill-opacity="1" /><path clip-path="url(#clip260)" d="M1253.16 34.0924 L1253.16 9.54393 L1260.61 9.54393 L1260.61 72.576 L1253.16 72.576 L1253.16 65.7705 Q1250.81 69.8214 1247.2 71.8063 Q1243.64 73.7508 1238.62 73.7508 Q1230.39 73.7508 1225.21 67.1883 Q1220.06 60.6258 1220.06 49.9314 Q1220.06 39.2371 1225.21 32.6746 Q1230.39 26.1121 1238.62 26.1121 Q1243.64 26.1121 1247.2 28.0971 Q1250.81 30.0415 1253.16 34.0924 M1227.76 49.9314 Q1227.76 58.1548 1231.12 62.8538 Q1234.52 67.5124 1240.44 67.5124 Q1246.35 67.5124 1249.76 62.8538 Q1253.16 58.1548 1253.16 49.9314 Q1253.16 41.7081 1249.76 37.0496 Q1246.35 32.3505 1240.44 32.3505 Q1234.52 32.3505 1231.12 37.0496 Q1227.76 41.7081 1227.76 49.9314 Z" fill="#000000" fill-rule="nonzero" fill-opacity="1" /><path clip-path="url(#clip260)" d="M1314.77 48.0275 L1314.77 51.6733 L1280.5 51.6733 Q1280.99 59.3701 1285.12 63.421 Q1289.29 67.4314 1296.71 67.4314 Q1301 67.4314 1305.01 66.3781 Q1309.06 65.3249 1313.03 63.2184 L1313.03 70.267 Q1309.02 71.9684 1304.81 72.8596 Q1300.59 73.7508 1296.26 73.7508 Q1285.4 73.7508 1279.04 67.4314 Q1272.72 61.1119 1272.72 50.3365 Q1272.72 39.1965 1278.72 32.6746 Q1284.76 26.1121 1294.96 26.1121 Q1304.12 26.1121 1309.43 32.0264 Q1314.77 37.9003 1314.77 48.0275 M1307.32 45.84 Q1307.24 39.7232 1303.88 36.0774 Q1300.55 32.4315 1295.04 32.4315 Q1288.81 32.4315 1285.04 35.9558 Q1281.31 39.4801 1280.74 45.8805 L1307.32 45.84 Z" fill="#000000" fill-rule="nonzero" fill-opacity="1" /><path clip-path="url(#clip260)" d="M1363.26 27.2059 L1346.86 49.2833 L1364.11 72.576 L1355.32 72.576 L1342.12 54.752 L1328.91 72.576 L1320.12 72.576 L1337.74 48.8377 L1321.62 27.2059 L1330.41 27.2059 L1342.44 43.369 L1354.47 27.2059 L1363.26 27.2059 Z" fill="#000000" fill-rule="nonzero" fill-opacity="1" /><path clip-path="url(#clip260)" d="M1376.55 62.2867 L1385.1 62.2867 L1385.1 69.2543 L1378.45 82.2172 L1373.23 82.2172 L1376.55 69.2543 L1376.55 62.2867 Z" fill="#000000" fill-rule="nonzero" fill-opacity="1" /><path clip-path="url(#clip260)" d="M1457.24 34.0924 L1457.24 9.54393 L1464.7 9.54393 L1464.7 72.576 L1457.24 72.576 L1457.24 65.7705 Q1454.89 69.8214 1451.29 71.8063 Q1447.72 73.7508 1442.7 73.7508 Q1434.48 73.7508 1429.29 67.1883 Q1424.15 60.6258 1424.15 49.9314 Q1424.15 39.2371 1429.29 32.6746 Q1434.48 26.1121 1442.7 26.1121 Q1447.72 26.1121 1451.29 28.0971 Q1454.89 30.0415 1457.24 34.0924 M1431.84 49.9314 Q1431.84 58.1548 1435.21 62.8538 Q1438.61 67.5124 1444.52 67.5124 Q1450.44 67.5124 1453.84 62.8538 Q1457.24 58.1548 1457.24 49.9314 Q1457.24 41.7081 1453.84 37.0496 Q1450.44 32.3505 1444.52 32.3505 Q1438.61 32.3505 1435.21 37.0496 Q1431.84 41.7081 1431.84 49.9314 Z" fill="#000000" fill-rule="nonzero" fill-opacity="1" /><path clip-path="url(#clip260)" d="M1480.05 27.2059 L1487.5 27.2059 L1487.5 72.576 L1480.05 72.576 L1480.05 27.2059 M1480.05 9.54393 L1487.5 9.54393 L1487.5 18.9825 L1480.05 18.9825 L1480.05 9.54393 Z" fill="#000000" fill-rule="nonzero" fill-opacity="1" /><path clip-path="url(#clip260)" d="M1532.02 28.5427 L1532.02 35.5912 Q1528.86 33.9709 1525.46 33.1607 Q1522.06 32.3505 1518.41 32.3505 Q1512.86 32.3505 1510.07 34.0519 Q1507.31 35.7533 1507.31 39.156 Q1507.31 41.7486 1509.3 43.2475 Q1511.28 44.7058 1517.28 46.0426 L1519.83 46.6097 Q1527.77 48.3111 1531.09 51.4303 Q1534.45 54.509 1534.45 60.0587 Q1534.45 66.3781 1529.43 70.0644 Q1524.45 73.7508 1515.7 73.7508 Q1512.05 73.7508 1508.08 73.0216 Q1504.15 72.3329 1499.78 70.9151 L1499.78 63.2184 Q1503.91 65.3654 1507.92 66.4591 Q1511.93 67.5124 1515.86 67.5124 Q1521.13 67.5124 1523.96 65.73 Q1526.8 63.9071 1526.8 60.6258 Q1526.8 57.5877 1524.73 55.9673 Q1522.71 54.3469 1515.78 52.8481 L1513.19 52.2405 Q1506.26 50.7821 1503.18 47.7845 Q1500.1 44.7463 1500.1 39.4801 Q1500.1 33.0797 1504.64 29.5959 Q1509.18 26.1121 1517.52 26.1121 Q1521.65 26.1121 1525.3 26.7198 Q1528.94 27.3274 1532.02 28.5427 Z" fill="#000000" fill-rule="nonzero" fill-opacity="1" /><path clip-path="url(#clip260)" d="M1566.94 49.7694 Q1557.91 49.7694 1554.42 51.8354 Q1550.94 53.9013 1550.94 58.8839 Q1550.94 62.8538 1553.53 65.2034 Q1556.17 67.5124 1560.66 67.5124 Q1566.86 67.5124 1570.59 63.1374 Q1574.35 58.7219 1574.35 51.4303 L1574.35 49.7694 L1566.94 49.7694 M1581.81 46.6907 L1581.81 72.576 L1574.35 72.576 L1574.35 65.6895 Q1571.8 69.8214 1567.99 71.8063 Q1564.19 73.7508 1558.68 73.7508 Q1551.71 73.7508 1547.58 69.8619 Q1543.49 65.9325 1543.49 59.3701 Q1543.49 51.7138 1548.59 47.825 Q1553.74 43.9361 1563.9 43.9361 L1574.35 43.9361 L1574.35 43.2069 Q1574.35 38.0623 1570.95 35.2672 Q1567.59 32.4315 1561.47 32.4315 Q1557.58 32.4315 1553.9 33.3632 Q1550.21 34.295 1546.81 36.1584 L1546.81 29.2718 Q1550.9 27.692 1554.75 26.9223 Q1558.6 26.1121 1562.24 26.1121 Q1572.09 26.1121 1576.95 31.2163 Q1581.81 36.3204 1581.81 46.6907 Z" fill="#000000" fill-rule="nonzero" fill-opacity="1" /><path clip-path="url(#clip260)" d="M1627.02 49.3643 Q1627.02 41.2625 1623.65 36.8065 Q1620.33 32.3505 1614.3 32.3505 Q1608.3 32.3505 1604.94 36.8065 Q1601.62 41.2625 1601.62 49.3643 Q1601.62 57.4256 1604.94 61.8816 Q1608.3 66.3376 1614.3 66.3376 Q1620.33 66.3376 1623.65 61.8816 Q1627.02 57.4256 1627.02 49.3643 M1634.47 66.9452 Q1634.47 78.5308 1629.32 84.1616 Q1624.18 89.8329 1613.57 89.8329 Q1609.64 89.8329 1606.15 89.2252 Q1602.67 88.6581 1599.39 87.4428 L1599.39 80.1917 Q1602.67 81.9741 1605.87 82.8248 Q1609.07 83.6755 1612.39 83.6755 Q1619.72 83.6755 1623.37 79.8271 Q1627.02 76.0193 1627.02 68.282 L1627.02 64.5957 Q1624.71 68.6061 1621.1 70.5911 Q1617.5 72.576 1612.47 72.576 Q1604.13 72.576 1599.02 66.2161 Q1593.92 59.8562 1593.92 49.3643 Q1593.92 38.832 1599.02 32.472 Q1604.13 26.1121 1612.47 26.1121 Q1617.5 26.1121 1621.1 28.0971 Q1624.71 30.082 1627.02 34.0924 L1627.02 27.2059 L1634.47 27.2059 L1634.47 66.9452 Z" fill="#000000" fill-rule="nonzero" fill-opacity="1" /><path clip-path="url(#clip260)" d="M1679.68 49.3643 Q1679.68 41.2625 1676.32 36.8065 Q1672.99 32.3505 1666.96 32.3505 Q1660.96 32.3505 1657.6 36.8065 Q1654.28 41.2625 1654.28 49.3643 Q1654.28 57.4256 1657.6 61.8816 Q1660.96 66.3376 1666.96 66.3376 Q1672.99 66.3376 1676.32 61.8816 Q1679.68 57.4256 1679.68 49.3643 M1687.13 66.9452 Q1687.13 78.5308 1681.99 84.1616 Q1676.84 89.8329 1666.23 89.8329 Q1662.3 89.8329 1658.82 89.2252 Q1655.33 88.6581 1652.05 87.4428 L1652.05 80.1917 Q1655.33 81.9741 1658.53 82.8248 Q1661.73 83.6755 1665.05 83.6755 Q1672.39 83.6755 1676.03 79.8271 Q1679.68 76.0193 1679.68 68.282 L1679.68 64.5957 Q1677.37 68.6061 1673.76 70.5911 Q1670.16 72.576 1665.13 72.576 Q1656.79 72.576 1651.69 66.2161 Q1646.58 59.8562 1646.58 49.3643 Q1646.58 38.832 1651.69 32.472 Q1656.79 26.1121 1665.13 26.1121 Q1670.16 26.1121 1673.76 28.0971 Q1677.37 30.082 1679.68 34.0924 L1679.68 27.2059 L1687.13 27.2059 L1687.13 66.9452 Z" fill="#000000" fill-rule="nonzero" fill-opacity="1" /><path clip-path="url(#clip260)" d="M1728.77 34.1734 Q1727.52 33.4443 1726.02 33.1202 Q1724.56 32.7556 1722.78 32.7556 Q1716.46 32.7556 1713.06 36.8875 Q1709.69 40.9789 1709.69 48.6757 L1709.69 72.576 L1702.2 72.576 L1702.2 27.2059 L1709.69 27.2059 L1709.69 34.2544 Q1712.04 30.1225 1715.81 28.1376 Q1719.58 26.1121 1724.97 26.1121 Q1725.74 26.1121 1726.67 26.2337 Q1727.6 26.3147 1728.73 26.5172 L1728.77 34.1734 Z" fill="#000000" fill-rule="nonzero" fill-opacity="1" /><path clip-path="url(#clip260)" d="M1773.58 48.0275 L1773.58 51.6733 L1739.31 51.6733 Q1739.79 59.3701 1743.93 63.421 Q1748.1 67.4314 1755.51 67.4314 Q1759.8 67.4314 1763.81 66.3781 Q1767.87 65.3249 1771.84 63.2184 L1771.84 70.267 Q1767.83 71.9684 1763.61 72.8596 Q1759.4 73.7508 1755.07 73.7508 Q1744.21 73.7508 1737.85 67.4314 Q1731.53 61.1119 1731.53 50.3365 Q1731.53 39.1965 1737.52 32.6746 Q1743.56 26.1121 1753.77 26.1121 Q1762.92 26.1121 1768.23 32.0264 Q1773.58 37.9003 1773.58 48.0275 M1766.12 45.84 Q1766.04 39.7232 1762.68 36.0774 Q1759.36 32.4315 1753.85 32.4315 Q1747.61 32.4315 1743.84 35.9558 Q1740.12 39.4801 1739.55 45.8805 L1766.12 45.84 Z" fill="#000000" fill-rule="nonzero" fill-opacity="1" /><path clip-path="url(#clip260)" d="M1815.67 49.3643 Q1815.67 41.2625 1812.3 36.8065 Q1808.98 32.3505 1802.95 32.3505 Q1796.95 32.3505 1793.59 36.8065 Q1790.27 41.2625 1790.27 49.3643 Q1790.27 57.4256 1793.59 61.8816 Q1796.95 66.3376 1802.95 66.3376 Q1808.98 66.3376 1812.3 61.8816 Q1815.67 57.4256 1815.67 49.3643 M1823.12 66.9452 Q1823.12 78.5308 1817.98 84.1616 Q1812.83 89.8329 1802.22 89.8329 Q1798.29 89.8329 1794.8 89.2252 Q1791.32 88.6581 1788.04 87.4428 L1788.04 80.1917 Q1791.32 81.9741 1794.52 82.8248 Q1797.72 83.6755 1801.04 83.6755 Q1808.37 83.6755 1812.02 79.8271 Q1815.67 76.0193 1815.67 68.282 L1815.67 64.5957 Q1813.36 68.6061 1809.75 70.5911 Q1806.15 72.576 1801.12 72.576 Q1792.78 72.576 1787.67 66.2161 Q1782.57 59.8562 1782.57 49.3643 Q1782.57 38.832 1787.67 32.472 Q1792.78 26.1121 1801.12 26.1121 Q1806.15 26.1121 1809.75 28.0971 Q1813.36 30.082 1815.67 34.0924 L1815.67 27.2059 L1823.12 27.2059 L1823.12 66.9452 Z" fill="#000000" fill-rule="nonzero" fill-opacity="1" /><path clip-path="url(#clip260)" d="M1859.09 49.7694 Q1850.06 49.7694 1846.57 51.8354 Q1843.09 53.9013 1843.09 58.8839 Q1843.09 62.8538 1845.68 65.2034 Q1848.32 67.5124 1852.81 67.5124 Q1859.01 67.5124 1862.74 63.1374 Q1866.51 58.7219 1866.51 51.4303 L1866.51 49.7694 L1859.09 49.7694 M1873.96 46.6907 L1873.96 72.576 L1866.51 72.576 L1866.51 65.6895 Q1863.95 69.8214 1860.15 71.8063 Q1856.34 73.7508 1850.83 73.7508 Q1843.86 73.7508 1839.73 69.8619 Q1835.64 65.9325 1835.64 59.3701 Q1835.64 51.7138 1840.74 47.825 Q1845.89 43.9361 1856.05 43.9361 L1866.51 43.9361 L1866.51 43.2069 Q1866.51 38.0623 1863.1 35.2672 Q1859.74 32.4315 1853.62 32.4315 Q1849.73 32.4315 1846.05 33.3632 Q1842.36 34.295 1838.96 36.1584 L1838.96 29.2718 Q1843.05 27.692 1846.9 26.9223 Q1850.75 26.1121 1854.39 26.1121 Q1864.24 26.1121 1869.1 31.2163 Q1873.96 36.3204 1873.96 46.6907 Z" fill="#000000" fill-rule="nonzero" fill-opacity="1" /><path clip-path="url(#clip260)" d="M1896.68 14.324 L1896.68 27.2059 L1912.04 27.2059 L1912.04 32.9987 L1896.68 32.9987 L1896.68 57.6282 Q1896.68 63.1779 1898.18 64.7578 Q1899.72 66.3376 1904.38 66.3376 L1912.04 66.3376 L1912.04 72.576 L1904.38 72.576 Q1895.75 72.576 1892.47 69.3758 Q1889.19 66.1351 1889.19 57.6282 L1889.19 32.9987 L1883.72 32.9987 L1883.72 27.2059 L1889.19 27.2059 L1889.19 14.324 L1896.68 14.324 Z" fill="#000000" fill-rule="nonzero" fill-opacity="1" /><path clip-path="url(#clip260)" d="M1921.84 27.2059 L1929.29 27.2059 L1929.29 72.576 L1921.84 72.576 L1921.84 27.2059 M1921.84 9.54393 L1929.29 9.54393 L1929.29 18.9825 L1921.84 18.9825 L1921.84 9.54393 Z" fill="#000000" fill-rule="nonzero" fill-opacity="1" /><path clip-path="url(#clip260)" d="M1962.47 32.4315 Q1956.48 32.4315 1952.99 37.1306 Q1949.51 41.7891 1949.51 49.9314 Q1949.51 58.0738 1952.95 62.7728 Q1956.44 67.4314 1962.47 67.4314 Q1968.43 67.4314 1971.91 62.7323 Q1975.39 58.0333 1975.39 49.9314 Q1975.39 41.8701 1971.91 37.1711 Q1968.43 32.4315 1962.47 32.4315 M1962.47 26.1121 Q1972.19 26.1121 1977.74 32.4315 Q1983.29 38.7509 1983.29 49.9314 Q1983.29 61.0714 1977.74 67.4314 Q1972.19 73.7508 1962.47 73.7508 Q1952.71 73.7508 1947.16 67.4314 Q1941.65 61.0714 1941.65 49.9314 Q1941.65 38.7509 1947.16 32.4315 Q1952.71 26.1121 1962.47 26.1121 Z" fill="#000000" fill-rule="nonzero" fill-opacity="1" /><path clip-path="url(#clip260)" d="M2033.36 45.1919 L2033.36 72.576 L2025.91 72.576 L2025.91 45.4349 Q2025.91 38.994 2023.4 35.7938 Q2020.89 32.5936 2015.86 32.5936 Q2009.83 32.5936 2006.34 36.4419 Q2002.86 40.2903 2002.86 46.9338 L2002.86 72.576 L1995.36 72.576 L1995.36 27.2059 L2002.86 27.2059 L2002.86 34.2544 Q2005.53 30.163 2009.14 28.1376 Q2012.78 26.1121 2017.52 26.1121 Q2025.34 26.1121 2029.35 30.9732 Q2033.36 35.7938 2033.36 45.1919 Z" fill="#000000" fill-rule="nonzero" fill-opacity="1" /><path clip-path="url(#clip262)" d="M277.391 522.74 L277.391 990.897 L688.88 990.897 L688.88 522.74 L277.391 522.74 L277.391 522.74  Z" fill="#ffa500" fill-rule="evenodd" fill-opacity="1"/>
<polyline clip-path="url(#clip262)" style="stroke:#000000; stroke-linecap:round; stroke-linejoin:round; stroke-width:4; stroke-opacity:1; fill:none" points="277.391,522.74 277.391,990.897 688.88,990.897 688.88,522.74 277.391,522.74 "/>
<path clip-path="url(#clip262)" d="M791.752 896.442 L791.752 936.098 L1203.24 936.098 L1203.24 896.442 L791.752 896.442 L791.752 896.442  Z" fill="#ffa500" fill-rule="evenodd" fill-opacity="1"/>
<polyline clip-path="url(#clip262)" style="stroke:#000000; stroke-linecap:round; stroke-linejoin:round; stroke-width:4; stroke-opacity:1; fill:none" points="791.752,896.442 791.752,936.098 1203.24,936.098 1203.24,896.442 791.752,896.442 "/>
<path clip-path="url(#clip262)" d="M1306.11 990.318 L1306.11 999.115 L1717.6 999.115 L1717.6 990.318 L1306.11 990.318 L1306.11 990.318  Z" fill="#ffa500" fill-rule="evenodd" fill-opacity="1"/>
<polyline clip-path="url(#clip262)" style="stroke:#000000; stroke-linecap:round; stroke-linejoin:round; stroke-width:4; stroke-opacity:1; fill:none" points="1306.11,990.318 1306.11,999.115 1717.6,999.115 1717.6,990.318 1306.11,990.318 "/>
<path clip-path="url(#clip262)" d="M1820.47 123.472 L1820.47 467.236 L2231.96 467.236 L2231.96 123.472 L1820.47 123.472 L1820.47 123.472  Z" fill="#ffa500" fill-rule="evenodd" fill-opacity="1"/>
<polyline clip-path="url(#clip262)" style="stroke:#000000; stroke-linecap:round; stroke-linejoin:round; stroke-width:4; stroke-opacity:1; fill:none" points="1820.47,123.472 1820.47,467.236 2231.96,467.236 2231.96,123.472 1820.47,123.472 "/>
<circle clip-path="url(#clip262)" style="fill:#ffa500; stroke:none; fill-opacity:0" cx="483.135" cy="522.74" r="2"/>
<circle clip-path="url(#clip262)" style="fill:#ffa500; stroke:none; fill-opacity:0" cx="997.496" cy="896.442" r="2"/>
<circle clip-path="url(#clip262)" style="fill:#ffa500; stroke:none; fill-opacity:0" cx="1511.86" cy="990.318" r="2"/>
<circle clip-path="url(#clip262)" style="fill:#ffa500; stroke:none; fill-opacity:0" cx="2026.22" cy="123.472" r="2"/>
<path clip-path="url(#clip262)" d="M277.391 990.897 L277.391 1075.89 L688.88 1075.89 L688.88 990.897 L277.391 990.897 L277.391 990.897  Z" fill="#008000" fill-rule="evenodd" fill-opacity="1"/>
<polyline clip-path="url(#clip262)" style="stroke:#000000; stroke-linecap:round; stroke-linejoin:round; stroke-width:4; stroke-opacity:1; fill:none" points="277.391,990.897 277.391,1075.89 688.88,1075.89 688.88,990.897 277.391,990.897 "/>
<path clip-path="url(#clip262)" d="M791.752 936.098 L791.752 1127.05 L1203.24 1127.05 L1203.24 936.098 L791.752 936.098 L791.752 936.098  Z" fill="#008000" fill-rule="evenodd" fill-opacity="1"/>
<polyline clip-path="url(#clip262)" style="stroke:#000000; stroke-linecap:round; stroke-linejoin:round; stroke-width:4; stroke-opacity:1; fill:none" points="791.752,936.098 791.752,1127.05 1203.24,1127.05 1203.24,936.098 791.752,936.098 "/>
<path clip-path="url(#clip262)" d="M1306.11 999.115 L1306.11 1076.5 L1717.6 1076.5 L1717.6 999.115 L1306.11 999.115 L1306.11 999.115  Z" fill="#008000" fill-rule="evenodd" fill-opacity="1"/>
<polyline clip-path="url(#clip262)" style="stroke:#000000; stroke-linecap:round; stroke-linejoin:round; stroke-width:4; stroke-opacity:1; fill:none" points="1306.11,999.115 1306.11,1076.5 1717.6,1076.5 1717.6,999.115 1306.11,999.115 "/>
<path clip-path="url(#clip262)" d="M1820.47 467.236 L1820.47 692.339 L2231.96 692.339 L2231.96 467.236 L1820.47 467.236 L1820.47 467.236  Z" fill="#008000" fill-rule="evenodd" fill-opacity="1"/>
<polyline clip-path="url(#clip262)" style="stroke:#000000; stroke-linecap:round; stroke-linejoin:round; stroke-width:4; stroke-opacity:1; fill:none" points="1820.47,467.236 1820.47,692.339 2231.96,692.339 2231.96,467.236 1820.47,467.236 "/>
<circle clip-path="url(#clip262)" style="fill:#008000; stroke:none; fill-opacity:0" cx="483.135" cy="990.897" r="2"/>
<circle clip-path="url(#clip262)" style="fill:#008000; stroke:none; fill-opacity:0" cx="997.496" cy="936.098" r="2"/>
<circle clip-path="url(#clip262)" style="fill:#008000; stroke:none; fill-opacity:0" cx="1511.86" cy="999.115" r="2"/>
<circle clip-path="url(#clip262)" style="fill:#008000; stroke:none; fill-opacity:0" cx="2026.22" cy="467.236" r="2"/>
<path clip-path="url(#clip262)" d="M277.391 1075.89 L277.391 1181.82 L688.88 1181.82 L688.88 1075.89 L277.391 1075.89 L277.391 1075.89  Z" fill="#ff0000" fill-rule="evenodd" fill-opacity="1"/>
<polyline clip-path="url(#clip262)" style="stroke:#000000; stroke-linecap:round; stroke-linejoin:round; stroke-width:4; stroke-opacity:1; fill:none" points="277.391,1075.89 277.391,1181.82 688.88,1181.82 688.88,1075.89 277.391,1075.89 "/>
<path clip-path="url(#clip262)" d="M791.752 1127.05 L791.752 1181.82 L1203.24 1181.82 L1203.24 1127.05 L791.752 1127.05 L791.752 1127.05  Z" fill="#ff0000" fill-rule="evenodd" fill-opacity="1"/>
<polyline clip-path="url(#clip262)" style="stroke:#000000; stroke-linecap:round; stroke-linejoin:round; stroke-width:4; stroke-opacity:1; fill:none" points="791.752,1127.05 791.752,1181.82 1203.24,1181.82 1203.24,1127.05 791.752,1127.05 "/>
<path clip-path="url(#clip262)" d="M1306.11 1076.5 L1306.11 1181.82 L1717.6 1181.82 L1717.6 1076.5 L1306.11 1076.5 L1306.11 1076.5  Z" fill="#ff0000" fill-rule="evenodd" fill-opacity="1"/>
<polyline clip-path="url(#clip262)" style="stroke:#000000; stroke-linecap:round; stroke-linejoin:round; stroke-width:4; stroke-opacity:1; fill:none" points="1306.11,1076.5 1306.11,1181.82 1717.6,1181.82 1717.6,1076.5 1306.11,1076.5 "/>
<path clip-path="url(#clip262)" d="M1820.47 692.339 L1820.47 1181.82 L2231.96 1181.82 L2231.96 692.339 L1820.47 692.339 L1820.47 692.339  Z" fill="#ff0000" fill-rule="evenodd" fill-opacity="1"/>
<polyline clip-path="url(#clip262)" style="stroke:#000000; stroke-linecap:round; stroke-linejoin:round; stroke-width:4; stroke-opacity:1; fill:none" points="1820.47,692.339 1820.47,1181.82 2231.96,1181.82 2231.96,692.339 1820.47,692.339 "/>
<circle clip-path="url(#clip262)" style="fill:#ff0000; stroke:none; fill-opacity:0" cx="483.135" cy="1075.89" r="2"/>
<circle clip-path="url(#clip262)" style="fill:#ff0000; stroke:none; fill-opacity:0" cx="997.496" cy="1127.05" r="2"/>
<circle clip-path="url(#clip262)" style="fill:#ff0000; stroke:none; fill-opacity:0" cx="1511.86" cy="1076.5" r="2"/>
<circle clip-path="url(#clip262)" style="fill:#ff0000; stroke:none; fill-opacity:0" cx="2026.22" cy="692.339" r="2"/>
<path clip-path="url(#clip260)" d="M680.138 1486.45 L1829.22 1486.45 L1829.22 1279.09 L680.138 1279.09  Z" fill="#ffffff" fill-rule="evenodd" fill-opacity="1"/>
<polyline clip-path="url(#clip260)" style="stroke:#000000; stroke-linecap:round; stroke-linejoin:round; stroke-width:4; stroke-opacity:1; fill:none" points="680.138,1486.45 1829.22,1486.45 1829.22,1279.09 680.138,1279.09 680.138,1486.45 "/>
<path clip-path="url(#clip260)" d="M704.54 1351.66 L850.95 1351.66 L850.95 1310.19 L704.54 1310.19 L704.54 1351.66  Z" fill="#ffa500" fill-rule="evenodd" fill-opacity="1"/>
<polyline clip-path="url(#clip260)" style="stroke:#000000; stroke-linecap:round; stroke-linejoin:round; stroke-width:4; stroke-opacity:1; fill:none" points="704.54,1351.66 850.95,1351.66 850.95,1310.19 704.54,1310.19 704.54,1351.66 "/>
<path clip-path="url(#clip260)" d="M875.352 1313.65 L880.028 1313.65 L880.028 1348.21 L875.352 1348.21 L875.352 1313.65 Z" fill="#000000" fill-rule="nonzero" fill-opacity="1" /><path clip-path="url(#clip260)" d="M910.699 1332.56 L910.699 1348.21 L906.44 1348.21 L906.44 1332.7 Q906.44 1329.02 905.005 1327.19 Q903.569 1325.36 900.699 1325.36 Q897.25 1325.36 895.259 1327.56 Q893.268 1329.76 893.268 1333.56 L893.268 1348.21 L888.986 1348.21 L888.986 1322.28 L893.268 1322.28 L893.268 1326.31 Q894.796 1323.97 896.856 1322.81 Q898.94 1321.66 901.648 1321.66 Q906.116 1321.66 908.407 1324.43 Q910.699 1327.19 910.699 1332.56 Z" fill="#000000" fill-rule="nonzero" fill-opacity="1" /><path clip-path="url(#clip260)" d="M941.37 1334.18 L941.37 1336.26 L921.787 1336.26 Q922.065 1340.66 924.426 1342.98 Q926.81 1345.27 931.046 1345.27 Q933.5 1345.27 935.791 1344.67 Q938.106 1344.06 940.375 1342.86 L940.375 1346.89 Q938.083 1347.86 935.676 1348.37 Q933.268 1348.88 930.791 1348.88 Q924.588 1348.88 920.954 1345.27 Q917.342 1341.66 917.342 1335.5 Q917.342 1329.13 920.768 1325.41 Q924.217 1321.66 930.051 1321.66 Q935.282 1321.66 938.315 1325.04 Q941.37 1328.39 941.37 1334.18 M937.111 1332.93 Q937.065 1329.43 935.143 1327.35 Q933.245 1325.27 930.097 1325.27 Q926.532 1325.27 924.379 1327.28 Q922.25 1329.3 921.926 1332.95 L937.111 1332.93 Z" fill="#000000" fill-rule="nonzero" fill-opacity="1" /><path clip-path="url(#clip260)" d="M950.907 1335.27 Q950.907 1339.97 952.828 1342.65 Q954.773 1345.31 958.152 1345.31 Q961.532 1345.31 963.476 1342.65 Q965.421 1339.97 965.421 1335.27 Q965.421 1330.57 963.476 1327.91 Q961.532 1325.22 958.152 1325.22 Q954.773 1325.22 952.828 1327.91 Q950.907 1330.57 950.907 1335.27 M965.421 1344.32 Q964.078 1346.63 962.018 1347.77 Q959.981 1348.88 957.111 1348.88 Q952.412 1348.88 949.449 1345.13 Q946.509 1341.38 946.509 1335.27 Q946.509 1329.16 949.449 1325.41 Q952.412 1321.66 957.111 1321.66 Q959.981 1321.66 962.018 1322.79 Q964.078 1323.9 965.421 1326.22 L965.421 1322.28 L969.68 1322.28 L969.68 1358.07 L965.421 1358.07 L965.421 1344.32 Z" fill="#000000" fill-rule="nonzero" fill-opacity="1" /><path clip-path="url(#clip260)" d="M978.013 1337.98 L978.013 1322.28 L982.273 1322.28 L982.273 1337.81 Q982.273 1341.49 983.708 1343.35 Q985.143 1345.18 988.013 1345.18 Q991.462 1345.18 993.453 1342.98 Q995.467 1340.78 995.467 1336.98 L995.467 1322.28 L999.726 1322.28 L999.726 1348.21 L995.467 1348.21 L995.467 1344.23 Q993.916 1346.59 991.856 1347.74 Q989.819 1348.88 987.111 1348.88 Q982.643 1348.88 980.328 1346.1 Q978.013 1343.32 978.013 1337.98 M988.731 1321.66 L988.731 1321.66 Z" fill="#000000" fill-rule="nonzero" fill-opacity="1" /><path clip-path="url(#clip260)" d="M1020.28 1335.18 Q1015.12 1335.18 1013.13 1336.36 Q1011.14 1337.54 1011.14 1340.38 Q1011.14 1342.65 1012.62 1343.99 Q1014.12 1345.31 1016.69 1345.31 Q1020.24 1345.31 1022.36 1342.81 Q1024.52 1340.29 1024.52 1336.12 L1024.52 1335.18 L1020.28 1335.18 M1028.78 1333.42 L1028.78 1348.21 L1024.52 1348.21 L1024.52 1344.27 Q1023.06 1346.63 1020.88 1347.77 Q1018.71 1348.88 1015.56 1348.88 Q1011.58 1348.88 1009.22 1346.66 Q1006.88 1344.41 1006.88 1340.66 Q1006.88 1336.29 1009.8 1334.06 Q1012.74 1331.84 1018.55 1331.84 L1024.52 1331.84 L1024.52 1331.43 Q1024.52 1328.49 1022.57 1326.89 Q1020.65 1325.27 1017.16 1325.27 Q1014.93 1325.27 1012.83 1325.8 Q1010.72 1326.33 1008.78 1327.4 L1008.78 1323.46 Q1011.12 1322.56 1013.31 1322.12 Q1015.51 1321.66 1017.6 1321.66 Q1023.22 1321.66 1026 1324.57 Q1028.78 1327.49 1028.78 1333.42 Z" fill="#000000" fill-rule="nonzero" fill-opacity="1" /><path clip-path="url(#clip260)" d="M1037.55 1312.19 L1041.81 1312.19 L1041.81 1348.21 L1037.55 1348.21 L1037.55 1312.19 Z" fill="#000000" fill-rule="nonzero" fill-opacity="1" /><path clip-path="url(#clip260)" d="M1050.72 1322.28 L1054.98 1322.28 L1054.98 1348.21 L1050.72 1348.21 L1050.72 1322.28 M1050.72 1312.19 L1054.98 1312.19 L1054.98 1317.58 L1050.72 1317.58 L1050.72 1312.19 Z" fill="#000000" fill-rule="nonzero" fill-opacity="1" /><path clip-path="url(#clip260)" d="M1068.11 1314.92 L1068.11 1322.28 L1076.88 1322.28 L1076.88 1325.59 L1068.11 1325.59 L1068.11 1339.67 Q1068.11 1342.84 1068.96 1343.74 Q1069.84 1344.64 1072.5 1344.64 L1076.88 1344.64 L1076.88 1348.21 L1072.5 1348.21 Q1067.57 1348.21 1065.7 1346.38 Q1063.82 1344.53 1063.82 1339.67 L1063.82 1325.59 L1060.7 1325.59 L1060.7 1322.28 L1063.82 1322.28 L1063.82 1314.92 L1068.11 1314.92 Z" fill="#000000" fill-rule="nonzero" fill-opacity="1" /><path clip-path="url(#clip260)" d="M1093.27 1350.62 Q1091.46 1355.24 1089.75 1356.66 Q1088.04 1358.07 1085.17 1358.07 L1081.76 1358.07 L1081.76 1354.5 L1084.26 1354.5 Q1086.02 1354.5 1086.99 1353.67 Q1087.97 1352.84 1089.15 1349.74 L1089.91 1347.79 L1079.42 1322.28 L1083.94 1322.28 L1092.04 1342.56 L1100.14 1322.28 L1104.66 1322.28 L1093.27 1350.62 Z" fill="#000000" fill-rule="nonzero" fill-opacity="1" /><path clip-path="url(#clip260)" d="M1123.13 1322.28 L1127.39 1322.28 L1132.71 1342.51 L1138.01 1322.28 L1143.04 1322.28 L1148.36 1342.51 L1153.66 1322.28 L1157.92 1322.28 L1151.14 1348.21 L1146.11 1348.21 L1140.54 1326.96 L1134.93 1348.21 L1129.91 1348.21 L1123.13 1322.28 Z" fill="#000000" fill-rule="nonzero" fill-opacity="1" /><path clip-path="url(#clip260)" d="M1164.38 1322.28 L1168.64 1322.28 L1168.64 1348.21 L1164.38 1348.21 L1164.38 1322.28 M1164.38 1312.19 L1168.64 1312.19 L1168.64 1317.58 L1164.38 1317.58 L1164.38 1312.19 Z" fill="#000000" fill-rule="nonzero" fill-opacity="1" /><path clip-path="url(#clip260)" d="M1181.76 1314.92 L1181.76 1322.28 L1190.54 1322.28 L1190.54 1325.59 L1181.76 1325.59 L1181.76 1339.67 Q1181.76 1342.84 1182.62 1343.74 Q1183.5 1344.64 1186.16 1344.64 L1190.54 1344.64 L1190.54 1348.21 L1186.16 1348.21 Q1181.23 1348.21 1179.35 1346.38 Q1177.48 1344.53 1177.48 1339.67 L1177.48 1325.59 L1174.35 1325.59 L1174.35 1322.28 L1177.48 1322.28 L1177.48 1314.92 L1181.76 1314.92 Z" fill="#000000" fill-rule="nonzero" fill-opacity="1" /><path clip-path="url(#clip260)" d="M1217.69 1332.56 L1217.69 1348.21 L1213.43 1348.21 L1213.43 1332.7 Q1213.43 1329.02 1211.99 1327.19 Q1210.56 1325.36 1207.69 1325.36 Q1204.24 1325.36 1202.25 1327.56 Q1200.26 1329.76 1200.26 1333.56 L1200.26 1348.21 L1195.98 1348.21 L1195.98 1312.19 L1200.26 1312.19 L1200.26 1326.31 Q1201.79 1323.97 1203.85 1322.81 Q1205.93 1321.66 1208.64 1321.66 Q1213.1 1321.66 1215.4 1324.43 Q1217.69 1327.19 1217.69 1332.56 Z" fill="#000000" fill-rule="nonzero" fill-opacity="1" /><path clip-path="url(#clip260)" d="M1226.18 1322.28 L1230.44 1322.28 L1230.44 1348.21 L1226.18 1348.21 L1226.18 1322.28 M1226.18 1312.19 L1230.44 1312.19 L1230.44 1317.58 L1226.18 1317.58 L1226.18 1312.19 Z" fill="#000000" fill-rule="nonzero" fill-opacity="1" /><path clip-path="url(#clip260)" d="M1260.91 1332.56 L1260.91 1348.21 L1256.65 1348.21 L1256.65 1332.7 Q1256.65 1329.02 1255.21 1327.19 Q1253.78 1325.36 1250.91 1325.36 Q1247.46 1325.36 1245.47 1327.56 Q1243.47 1329.76 1243.47 1333.56 L1243.47 1348.21 L1239.19 1348.21 L1239.19 1322.28 L1243.47 1322.28 L1243.47 1326.31 Q1245 1323.97 1247.06 1322.81 Q1249.15 1321.66 1251.85 1321.66 Q1256.32 1321.66 1258.61 1324.43 Q1260.91 1327.19 1260.91 1332.56 Z" fill="#000000" fill-rule="nonzero" fill-opacity="1" /><path clip-path="url(#clip260)" d="M1284.47 1322.28 L1288.73 1322.28 L1288.73 1348.21 L1284.47 1348.21 L1284.47 1322.28 M1284.47 1312.19 L1288.73 1312.19 L1288.73 1317.58 L1284.47 1317.58 L1284.47 1312.19 Z" fill="#000000" fill-rule="nonzero" fill-opacity="1" /><path clip-path="url(#clip260)" d="M1319.19 1332.56 L1319.19 1348.21 L1314.93 1348.21 L1314.93 1332.7 Q1314.93 1329.02 1313.5 1327.19 Q1312.06 1325.36 1309.19 1325.36 Q1305.74 1325.36 1303.75 1327.56 Q1301.76 1329.76 1301.76 1333.56 L1301.76 1348.21 L1297.48 1348.21 L1297.48 1322.28 L1301.76 1322.28 L1301.76 1326.31 Q1303.29 1323.97 1305.35 1322.81 Q1307.43 1321.66 1310.14 1321.66 Q1314.61 1321.66 1316.9 1324.43 Q1319.19 1327.19 1319.19 1332.56 Z" fill="#000000" fill-rule="nonzero" fill-opacity="1" /><path clip-path="url(#clip260)" d="M1340.81 1312.19 L1340.81 1315.73 L1336.74 1315.73 Q1334.45 1315.73 1333.54 1316.66 Q1332.66 1317.58 1332.66 1319.99 L1332.66 1322.28 L1339.68 1322.28 L1339.68 1325.59 L1332.66 1325.59 L1332.66 1348.21 L1328.38 1348.21 L1328.38 1325.59 L1324.31 1325.59 L1324.31 1322.28 L1328.38 1322.28 L1328.38 1320.48 Q1328.38 1316.15 1330.4 1314.18 Q1332.41 1312.19 1336.78 1312.19 L1340.81 1312.19 Z" fill="#000000" fill-rule="nonzero" fill-opacity="1" /><path clip-path="url(#clip260)" d="M1354.42 1325.27 Q1351 1325.27 1349.01 1327.95 Q1347.02 1330.62 1347.02 1335.27 Q1347.02 1339.92 1348.98 1342.61 Q1350.97 1345.27 1354.42 1345.27 Q1357.83 1345.27 1359.82 1342.58 Q1361.81 1339.9 1361.81 1335.27 Q1361.81 1330.66 1359.82 1327.98 Q1357.83 1325.27 1354.42 1325.27 M1354.42 1321.66 Q1359.98 1321.66 1363.15 1325.27 Q1366.32 1328.88 1366.32 1335.27 Q1366.32 1341.63 1363.15 1345.27 Q1359.98 1348.88 1354.42 1348.88 Q1348.84 1348.88 1345.67 1345.27 Q1342.53 1341.63 1342.53 1335.27 Q1342.53 1328.88 1345.67 1325.27 Q1348.84 1321.66 1354.42 1321.66 Z" fill="#000000" fill-rule="nonzero" fill-opacity="1" /><path clip-path="url(#clip260)" d="M1388.4 1326.26 Q1387.69 1325.85 1386.83 1325.66 Q1386 1325.45 1384.98 1325.45 Q1381.37 1325.45 1379.42 1327.81 Q1377.5 1330.15 1377.5 1334.55 L1377.5 1348.21 L1373.22 1348.21 L1373.22 1322.28 L1377.5 1322.28 L1377.5 1326.31 Q1378.84 1323.95 1381 1322.81 Q1383.15 1321.66 1386.23 1321.66 Q1386.67 1321.66 1387.2 1321.73 Q1387.73 1321.77 1388.38 1321.89 L1388.4 1326.26 Z" fill="#000000" fill-rule="nonzero" fill-opacity="1" /><path clip-path="url(#clip260)" d="M1412.22 1327.26 Q1413.82 1324.39 1416.04 1323.02 Q1418.27 1321.66 1421.27 1321.66 Q1425.33 1321.66 1427.52 1324.5 Q1429.72 1327.33 1429.72 1332.56 L1429.72 1348.21 L1425.44 1348.21 L1425.44 1332.7 Q1425.44 1328.97 1424.12 1327.17 Q1422.8 1325.36 1420.09 1325.36 Q1416.78 1325.36 1414.86 1327.56 Q1412.94 1329.76 1412.94 1333.56 L1412.94 1348.21 L1408.66 1348.21 L1408.66 1332.7 Q1408.66 1328.95 1407.34 1327.17 Q1406.02 1325.36 1403.27 1325.36 Q1400 1325.36 1398.08 1327.58 Q1396.16 1329.78 1396.16 1333.56 L1396.16 1348.21 L1391.88 1348.21 L1391.88 1322.28 L1396.16 1322.28 L1396.16 1326.31 Q1397.62 1323.93 1399.65 1322.79 Q1401.69 1321.66 1404.49 1321.66 Q1407.32 1321.66 1409.28 1323.09 Q1411.27 1324.53 1412.22 1327.26 Z" fill="#000000" fill-rule="nonzero" fill-opacity="1" /><path clip-path="url(#clip260)" d="M1450 1335.18 Q1444.84 1335.18 1442.85 1336.36 Q1440.86 1337.54 1440.86 1340.38 Q1440.86 1342.65 1442.34 1343.99 Q1443.84 1345.31 1446.41 1345.31 Q1449.96 1345.31 1452.08 1342.81 Q1454.24 1340.29 1454.24 1336.12 L1454.24 1335.18 L1450 1335.18 M1458.5 1333.42 L1458.5 1348.21 L1454.24 1348.21 L1454.24 1344.27 Q1452.78 1346.63 1450.6 1347.77 Q1448.43 1348.88 1445.28 1348.88 Q1441.3 1348.88 1438.94 1346.66 Q1436.6 1344.41 1436.6 1340.66 Q1436.6 1336.29 1439.52 1334.06 Q1442.46 1331.84 1448.27 1331.84 L1454.24 1331.84 L1454.24 1331.43 Q1454.24 1328.49 1452.29 1326.89 Q1450.37 1325.27 1446.88 1325.27 Q1444.65 1325.27 1442.55 1325.8 Q1440.44 1326.33 1438.5 1327.4 L1438.5 1323.46 Q1440.83 1322.56 1443.03 1322.12 Q1445.23 1321.66 1447.32 1321.66 Q1452.94 1321.66 1455.72 1324.57 Q1458.5 1327.49 1458.5 1333.42 Z" fill="#000000" fill-rule="nonzero" fill-opacity="1" /><path clip-path="url(#clip260)" d="M1467.27 1312.19 L1471.53 1312.19 L1471.53 1348.21 L1467.27 1348.21 L1467.27 1312.19 Z" fill="#000000" fill-rule="nonzero" fill-opacity="1" /><path clip-path="url(#clip260)" d="M704.54 1403.5 L850.95 1403.5 L850.95 1362.03 L704.54 1362.03 L704.54 1403.5  Z" fill="#008000" fill-rule="evenodd" fill-opacity="1"/>
<polyline clip-path="url(#clip260)" style="stroke:#000000; stroke-linecap:round; stroke-linejoin:round; stroke-width:4; stroke-opacity:1; fill:none" points="704.54,1403.5 850.95,1403.5 850.95,1362.03 704.54,1362.03 704.54,1403.5 "/>
<path clip-path="url(#clip260)" d="M875.352 1365.49 L880.028 1365.49 L880.028 1400.05 L875.352 1400.05 L875.352 1365.49 Z" fill="#000000" fill-rule="nonzero" fill-opacity="1" /><path clip-path="url(#clip260)" d="M910.699 1384.4 L910.699 1400.05 L906.44 1400.05 L906.44 1384.54 Q906.44 1380.86 905.005 1379.03 Q903.569 1377.2 900.699 1377.2 Q897.25 1377.2 895.259 1379.4 Q893.268 1381.6 893.268 1385.4 L893.268 1400.05 L888.986 1400.05 L888.986 1374.12 L893.268 1374.12 L893.268 1378.15 Q894.796 1375.81 896.856 1374.65 Q898.94 1373.5 901.648 1373.5 Q906.116 1373.5 908.407 1376.27 Q910.699 1379.03 910.699 1384.4 Z" fill="#000000" fill-rule="nonzero" fill-opacity="1" /><path clip-path="url(#clip260)" d="M941.37 1386.02 L941.37 1388.1 L921.787 1388.1 Q922.065 1392.5 924.426 1394.82 Q926.81 1397.11 931.046 1397.11 Q933.5 1397.11 935.791 1396.51 Q938.106 1395.9 940.375 1394.7 L940.375 1398.73 Q938.083 1399.7 935.676 1400.21 Q933.268 1400.72 930.791 1400.72 Q924.588 1400.72 920.954 1397.11 Q917.342 1393.5 917.342 1387.34 Q917.342 1380.97 920.768 1377.25 Q924.217 1373.5 930.051 1373.5 Q935.282 1373.5 938.315 1376.88 Q941.37 1380.23 941.37 1386.02 M937.111 1384.77 Q937.065 1381.27 935.143 1379.19 Q933.245 1377.11 930.097 1377.11 Q926.532 1377.11 924.379 1379.12 Q922.25 1381.14 921.926 1384.79 L937.111 1384.77 Z" fill="#000000" fill-rule="nonzero" fill-opacity="1" /><path clip-path="url(#clip260)" d="M950.907 1387.11 Q950.907 1391.81 952.828 1394.49 Q954.773 1397.15 958.152 1397.15 Q961.532 1397.15 963.476 1394.49 Q965.421 1391.81 965.421 1387.11 Q965.421 1382.41 963.476 1379.75 Q961.532 1377.06 958.152 1377.06 Q954.773 1377.06 952.828 1379.75 Q950.907 1382.41 950.907 1387.11 M965.421 1396.16 Q964.078 1398.47 962.018 1399.61 Q959.981 1400.72 957.111 1400.72 Q952.412 1400.72 949.449 1396.97 Q946.509 1393.22 946.509 1387.11 Q946.509 1381 949.449 1377.25 Q952.412 1373.5 957.111 1373.5 Q959.981 1373.5 962.018 1374.63 Q964.078 1375.74 965.421 1378.06 L965.421 1374.12 L969.68 1374.12 L969.68 1409.91 L965.421 1409.91 L965.421 1396.16 Z" fill="#000000" fill-rule="nonzero" fill-opacity="1" /><path clip-path="url(#clip260)" d="M978.013 1389.82 L978.013 1374.12 L982.273 1374.12 L982.273 1389.65 Q982.273 1393.33 983.708 1395.19 Q985.143 1397.02 988.013 1397.02 Q991.462 1397.02 993.453 1394.82 Q995.467 1392.62 995.467 1388.82 L995.467 1374.12 L999.726 1374.12 L999.726 1400.05 L995.467 1400.05 L995.467 1396.07 Q993.916 1398.43 991.856 1399.58 Q989.819 1400.72 987.111 1400.72 Q982.643 1400.72 980.328 1397.94 Q978.013 1395.16 978.013 1389.82 M988.731 1373.5 L988.731 1373.5 Z" fill="#000000" fill-rule="nonzero" fill-opacity="1" /><path clip-path="url(#clip260)" d="M1020.28 1387.02 Q1015.12 1387.02 1013.13 1388.2 Q1011.14 1389.38 1011.14 1392.22 Q1011.14 1394.49 1012.62 1395.83 Q1014.12 1397.15 1016.69 1397.15 Q1020.24 1397.15 1022.36 1394.65 Q1024.52 1392.13 1024.52 1387.96 L1024.52 1387.02 L1020.28 1387.02 M1028.78 1385.26 L1028.78 1400.05 L1024.52 1400.05 L1024.52 1396.11 Q1023.06 1398.47 1020.88 1399.61 Q1018.71 1400.72 1015.56 1400.72 Q1011.58 1400.72 1009.22 1398.5 Q1006.88 1396.25 1006.88 1392.5 Q1006.88 1388.13 1009.8 1385.9 Q1012.74 1383.68 1018.55 1383.68 L1024.52 1383.68 L1024.52 1383.27 Q1024.52 1380.33 1022.57 1378.73 Q1020.65 1377.11 1017.16 1377.11 Q1014.93 1377.11 1012.83 1377.64 Q1010.72 1378.17 1008.78 1379.24 L1008.78 1375.3 Q1011.12 1374.4 1013.31 1373.96 Q1015.51 1373.5 1017.6 1373.5 Q1023.22 1373.5 1026 1376.41 Q1028.78 1379.33 1028.78 1385.26 Z" fill="#000000" fill-rule="nonzero" fill-opacity="1" /><path clip-path="url(#clip260)" d="M1037.55 1364.03 L1041.81 1364.03 L1041.81 1400.05 L1037.55 1400.05 L1037.55 1364.03 Z" fill="#000000" fill-rule="nonzero" fill-opacity="1" /><path clip-path="url(#clip260)" d="M1050.72 1374.12 L1054.98 1374.12 L1054.98 1400.05 L1050.72 1400.05 L1050.72 1374.12 M1050.72 1364.03 L1054.98 1364.03 L1054.98 1369.42 L1050.72 1369.42 L1050.72 1364.03 Z" fill="#000000" fill-rule="nonzero" fill-opacity="1" /><path clip-path="url(#clip260)" d="M1068.11 1366.76 L1068.11 1374.12 L1076.88 1374.12 L1076.88 1377.43 L1068.11 1377.43 L1068.11 1391.51 Q1068.11 1394.68 1068.96 1395.58 Q1069.84 1396.48 1072.5 1396.48 L1076.88 1396.48 L1076.88 1400.05 L1072.5 1400.05 Q1067.57 1400.05 1065.7 1398.22 Q1063.82 1396.37 1063.82 1391.51 L1063.82 1377.43 L1060.7 1377.43 L1060.7 1374.12 L1063.82 1374.12 L1063.82 1366.76 L1068.11 1366.76 Z" fill="#000000" fill-rule="nonzero" fill-opacity="1" /><path clip-path="url(#clip260)" d="M1093.27 1402.46 Q1091.46 1407.08 1089.75 1408.5 Q1088.04 1409.91 1085.17 1409.91 L1081.76 1409.91 L1081.76 1406.34 L1084.26 1406.34 Q1086.02 1406.34 1086.99 1405.51 Q1087.97 1404.68 1089.15 1401.58 L1089.91 1399.63 L1079.42 1374.12 L1083.94 1374.12 L1092.04 1394.4 L1100.14 1374.12 L1104.66 1374.12 L1093.27 1402.46 Z" fill="#000000" fill-rule="nonzero" fill-opacity="1" /><path clip-path="url(#clip260)" d="M1123.13 1374.12 L1127.39 1374.12 L1132.71 1394.35 L1138.01 1374.12 L1143.04 1374.12 L1148.36 1394.35 L1153.66 1374.12 L1157.92 1374.12 L1151.14 1400.05 L1146.11 1400.05 L1140.54 1378.8 L1134.93 1400.05 L1129.91 1400.05 L1123.13 1374.12 Z" fill="#000000" fill-rule="nonzero" fill-opacity="1" /><path clip-path="url(#clip260)" d="M1164.38 1374.12 L1168.64 1374.12 L1168.64 1400.05 L1164.38 1400.05 L1164.38 1374.12 M1164.38 1364.03 L1168.64 1364.03 L1168.64 1369.42 L1164.38 1369.42 L1164.38 1364.03 Z" fill="#000000" fill-rule="nonzero" fill-opacity="1" /><path clip-path="url(#clip260)" d="M1181.76 1366.76 L1181.76 1374.12 L1190.54 1374.12 L1190.54 1377.43 L1181.76 1377.43 L1181.76 1391.51 Q1181.76 1394.68 1182.62 1395.58 Q1183.5 1396.48 1186.16 1396.48 L1190.54 1396.48 L1190.54 1400.05 L1186.16 1400.05 Q1181.23 1400.05 1179.35 1398.22 Q1177.48 1396.37 1177.48 1391.51 L1177.48 1377.43 L1174.35 1377.43 L1174.35 1374.12 L1177.48 1374.12 L1177.48 1366.76 L1181.76 1366.76 Z" fill="#000000" fill-rule="nonzero" fill-opacity="1" /><path clip-path="url(#clip260)" d="M1217.69 1384.4 L1217.69 1400.05 L1213.43 1400.05 L1213.43 1384.54 Q1213.43 1380.86 1211.99 1379.03 Q1210.56 1377.2 1207.69 1377.2 Q1204.24 1377.2 1202.25 1379.4 Q1200.26 1381.6 1200.26 1385.4 L1200.26 1400.05 L1195.98 1400.05 L1195.98 1364.03 L1200.26 1364.03 L1200.26 1378.15 Q1201.79 1375.81 1203.85 1374.65 Q1205.93 1373.5 1208.64 1373.5 Q1213.1 1373.5 1215.4 1376.27 Q1217.69 1379.03 1217.69 1384.4 Z" fill="#000000" fill-rule="nonzero" fill-opacity="1" /><path clip-path="url(#clip260)" d="M1226.18 1374.12 L1230.44 1374.12 L1230.44 1400.05 L1226.18 1400.05 L1226.18 1374.12 M1226.18 1364.03 L1230.44 1364.03 L1230.44 1369.42 L1226.18 1369.42 L1226.18 1364.03 Z" fill="#000000" fill-rule="nonzero" fill-opacity="1" /><path clip-path="url(#clip260)" d="M1260.91 1384.4 L1260.91 1400.05 L1256.65 1400.05 L1256.65 1384.54 Q1256.65 1380.86 1255.21 1379.03 Q1253.78 1377.2 1250.91 1377.2 Q1247.46 1377.2 1245.47 1379.4 Q1243.47 1381.6 1243.47 1385.4 L1243.47 1400.05 L1239.19 1400.05 L1239.19 1374.12 L1243.47 1374.12 L1243.47 1378.15 Q1245 1375.81 1247.06 1374.65 Q1249.15 1373.5 1251.85 1373.5 Q1256.32 1373.5 1258.61 1376.27 Q1260.91 1379.03 1260.91 1384.4 Z" fill="#000000" fill-rule="nonzero" fill-opacity="1" /><path clip-path="url(#clip260)" d="M1297.6 1364.03 L1297.6 1367.57 L1293.52 1367.57 Q1291.23 1367.57 1290.33 1368.5 Q1289.45 1369.42 1289.45 1371.83 L1289.45 1374.12 L1296.46 1374.12 L1296.46 1377.43 L1289.45 1377.43 L1289.45 1400.05 L1285.16 1400.05 L1285.16 1377.43 L1281.09 1377.43 L1281.09 1374.12 L1285.16 1374.12 L1285.16 1372.32 Q1285.16 1367.99 1287.18 1366.02 Q1289.19 1364.03 1293.57 1364.03 L1297.6 1364.03 Z" fill="#000000" fill-rule="nonzero" fill-opacity="1" /><path clip-path="url(#clip260)" d="M1311.21 1377.11 Q1307.78 1377.11 1305.79 1379.79 Q1303.8 1382.46 1303.8 1387.11 Q1303.8 1391.76 1305.77 1394.45 Q1307.76 1397.11 1311.21 1397.11 Q1314.61 1397.11 1316.6 1394.42 Q1318.59 1391.74 1318.59 1387.11 Q1318.59 1382.5 1316.6 1379.82 Q1314.61 1377.11 1311.21 1377.11 M1311.21 1373.5 Q1316.76 1373.5 1319.93 1377.11 Q1323.1 1380.72 1323.1 1387.11 Q1323.1 1393.47 1319.93 1397.11 Q1316.76 1400.72 1311.21 1400.72 Q1305.63 1400.72 1302.46 1397.11 Q1299.31 1393.47 1299.31 1387.11 Q1299.31 1380.72 1302.46 1377.11 Q1305.63 1373.5 1311.21 1373.5 Z" fill="#000000" fill-rule="nonzero" fill-opacity="1" /><path clip-path="url(#clip260)" d="M1345.19 1378.1 Q1344.47 1377.69 1343.61 1377.5 Q1342.78 1377.29 1341.76 1377.29 Q1338.15 1377.29 1336.21 1379.65 Q1334.28 1381.99 1334.28 1386.39 L1334.28 1400.05 L1330 1400.05 L1330 1374.12 L1334.28 1374.12 L1334.28 1378.15 Q1335.63 1375.79 1337.78 1374.65 Q1339.93 1373.5 1343.01 1373.5 Q1343.45 1373.5 1343.98 1373.57 Q1344.52 1373.61 1345.16 1373.73 L1345.19 1378.1 Z" fill="#000000" fill-rule="nonzero" fill-opacity="1" /><path clip-path="url(#clip260)" d="M1369.01 1379.1 Q1370.6 1376.23 1372.83 1374.86 Q1375.05 1373.5 1378.06 1373.5 Q1382.11 1373.5 1384.31 1376.34 Q1386.51 1379.17 1386.51 1384.4 L1386.51 1400.05 L1382.22 1400.05 L1382.22 1384.54 Q1382.22 1380.81 1380.9 1379.01 Q1379.59 1377.2 1376.88 1377.2 Q1373.57 1377.2 1371.65 1379.4 Q1369.72 1381.6 1369.72 1385.4 L1369.72 1400.05 L1365.44 1400.05 L1365.44 1384.54 Q1365.44 1380.79 1364.12 1379.01 Q1362.8 1377.2 1360.05 1377.2 Q1356.78 1377.2 1354.86 1379.42 Q1352.94 1381.62 1352.94 1385.4 L1352.94 1400.05 L1348.66 1400.05 L1348.66 1374.12 L1352.94 1374.12 L1352.94 1378.15 Q1354.4 1375.77 1356.44 1374.63 Q1358.47 1373.5 1361.28 1373.5 Q1364.1 1373.5 1366.07 1374.93 Q1368.06 1376.37 1369.01 1379.1 Z" fill="#000000" fill-rule="nonzero" fill-opacity="1" /><path clip-path="url(#clip260)" d="M1406.78 1387.02 Q1401.62 1387.02 1399.63 1388.2 Q1397.64 1389.38 1397.64 1392.22 Q1397.64 1394.49 1399.12 1395.83 Q1400.63 1397.15 1403.2 1397.15 Q1406.74 1397.15 1408.87 1394.65 Q1411.02 1392.13 1411.02 1387.96 L1411.02 1387.02 L1406.78 1387.02 M1415.28 1385.26 L1415.28 1400.05 L1411.02 1400.05 L1411.02 1396.11 Q1409.56 1398.47 1407.39 1399.61 Q1405.21 1400.72 1402.06 1400.72 Q1398.08 1400.72 1395.72 1398.5 Q1393.38 1396.25 1393.38 1392.5 Q1393.38 1388.13 1396.3 1385.9 Q1399.24 1383.68 1405.05 1383.68 L1411.02 1383.68 L1411.02 1383.27 Q1411.02 1380.33 1409.08 1378.73 Q1407.15 1377.11 1403.66 1377.11 Q1401.44 1377.11 1399.33 1377.64 Q1397.22 1378.17 1395.28 1379.24 L1395.28 1375.3 Q1397.62 1374.4 1399.82 1373.96 Q1402.02 1373.5 1404.1 1373.5 Q1409.72 1373.5 1412.5 1376.41 Q1415.28 1379.33 1415.28 1385.26 Z" fill="#000000" fill-rule="nonzero" fill-opacity="1" /><path clip-path="url(#clip260)" d="M1424.05 1364.03 L1428.31 1364.03 L1428.31 1400.05 L1424.05 1400.05 L1424.05 1364.03 Z" fill="#000000" fill-rule="nonzero" fill-opacity="1" /><path clip-path="url(#clip260)" d="M704.54 1455.34 L850.95 1455.34 L850.95 1413.87 L704.54 1413.87 L704.54 1455.34  Z" fill="#ff0000" fill-rule="evenodd" fill-opacity="1"/>
<polyline clip-path="url(#clip260)" style="stroke:#000000; stroke-linecap:round; stroke-linejoin:round; stroke-width:4; stroke-opacity:1; fill:none" points="704.54,1455.34 850.95,1455.34 850.95,1413.87 704.54,1413.87 704.54,1455.34 "/>
<path clip-path="url(#clip260)" d="M875.352 1417.33 L880.028 1417.33 L880.028 1451.89 L875.352 1451.89 L875.352 1417.33 Z" fill="#000000" fill-rule="nonzero" fill-opacity="1" /><path clip-path="url(#clip260)" d="M910.699 1436.24 L910.699 1451.89 L906.44 1451.89 L906.44 1436.38 Q906.44 1432.7 905.005 1430.87 Q903.569 1429.04 900.699 1429.04 Q897.25 1429.04 895.259 1431.24 Q893.268 1433.44 893.268 1437.24 L893.268 1451.89 L888.986 1451.89 L888.986 1425.96 L893.268 1425.96 L893.268 1429.99 Q894.796 1427.65 896.856 1426.49 Q898.94 1425.34 901.648 1425.34 Q906.116 1425.34 908.407 1428.11 Q910.699 1430.87 910.699 1436.24 Z" fill="#000000" fill-rule="nonzero" fill-opacity="1" /><path clip-path="url(#clip260)" d="M941.37 1437.86 L941.37 1439.94 L921.787 1439.94 Q922.065 1444.34 924.426 1446.66 Q926.81 1448.95 931.046 1448.95 Q933.5 1448.95 935.791 1448.35 Q938.106 1447.74 940.375 1446.54 L940.375 1450.57 Q938.083 1451.54 935.676 1452.05 Q933.268 1452.56 930.791 1452.56 Q924.588 1452.56 920.954 1448.95 Q917.342 1445.34 917.342 1439.18 Q917.342 1432.81 920.768 1429.09 Q924.217 1425.34 930.051 1425.34 Q935.282 1425.34 938.315 1428.72 Q941.37 1432.07 941.37 1437.86 M937.111 1436.61 Q937.065 1433.11 935.143 1431.03 Q933.245 1428.95 930.097 1428.95 Q926.532 1428.95 924.379 1430.96 Q922.25 1432.98 921.926 1436.63 L937.111 1436.61 Z" fill="#000000" fill-rule="nonzero" fill-opacity="1" /><path clip-path="url(#clip260)" d="M950.907 1438.95 Q950.907 1443.65 952.828 1446.33 Q954.773 1448.99 958.152 1448.99 Q961.532 1448.99 963.476 1446.33 Q965.421 1443.65 965.421 1438.95 Q965.421 1434.25 963.476 1431.59 Q961.532 1428.9 958.152 1428.9 Q954.773 1428.9 952.828 1431.59 Q950.907 1434.25 950.907 1438.95 M965.421 1448 Q964.078 1450.31 962.018 1451.45 Q959.981 1452.56 957.111 1452.56 Q952.412 1452.56 949.449 1448.81 Q946.509 1445.06 946.509 1438.95 Q946.509 1432.84 949.449 1429.09 Q952.412 1425.34 957.111 1425.34 Q959.981 1425.34 962.018 1426.47 Q964.078 1427.58 965.421 1429.9 L965.421 1425.96 L969.68 1425.96 L969.68 1461.75 L965.421 1461.75 L965.421 1448 Z" fill="#000000" fill-rule="nonzero" fill-opacity="1" /><path clip-path="url(#clip260)" d="M978.013 1441.66 L978.013 1425.96 L982.273 1425.96 L982.273 1441.49 Q982.273 1445.17 983.708 1447.03 Q985.143 1448.86 988.013 1448.86 Q991.462 1448.86 993.453 1446.66 Q995.467 1444.46 995.467 1440.66 L995.467 1425.96 L999.726 1425.96 L999.726 1451.89 L995.467 1451.89 L995.467 1447.91 Q993.916 1450.27 991.856 1451.42 Q989.819 1452.56 987.111 1452.56 Q982.643 1452.56 980.328 1449.78 Q978.013 1447 978.013 1441.66 M988.731 1425.34 L988.731 1425.34 Z" fill="#000000" fill-rule="nonzero" fill-opacity="1" /><path clip-path="url(#clip260)" d="M1020.28 1438.86 Q1015.12 1438.86 1013.13 1440.04 Q1011.14 1441.22 1011.14 1444.06 Q1011.14 1446.33 1012.62 1447.67 Q1014.12 1448.99 1016.69 1448.99 Q1020.24 1448.99 1022.36 1446.49 Q1024.52 1443.97 1024.52 1439.8 L1024.52 1438.86 L1020.28 1438.86 M1028.78 1437.1 L1028.78 1451.89 L1024.52 1451.89 L1024.52 1447.95 Q1023.06 1450.31 1020.88 1451.45 Q1018.71 1452.56 1015.56 1452.56 Q1011.58 1452.56 1009.22 1450.34 Q1006.88 1448.09 1006.88 1444.34 Q1006.88 1439.97 1009.8 1437.74 Q1012.74 1435.52 1018.55 1435.52 L1024.52 1435.52 L1024.52 1435.11 Q1024.52 1432.17 1022.57 1430.57 Q1020.65 1428.95 1017.16 1428.95 Q1014.93 1428.95 1012.83 1429.48 Q1010.72 1430.01 1008.78 1431.08 L1008.78 1427.14 Q1011.12 1426.24 1013.31 1425.8 Q1015.51 1425.34 1017.6 1425.34 Q1023.22 1425.34 1026 1428.25 Q1028.78 1431.17 1028.78 1437.1 Z" fill="#000000" fill-rule="nonzero" fill-opacity="1" /><path clip-path="url(#clip260)" d="M1037.55 1415.87 L1041.81 1415.87 L1041.81 1451.89 L1037.55 1451.89 L1037.55 1415.87 Z" fill="#000000" fill-rule="nonzero" fill-opacity="1" /><path clip-path="url(#clip260)" d="M1050.72 1425.96 L1054.98 1425.96 L1054.98 1451.89 L1050.72 1451.89 L1050.72 1425.96 M1050.72 1415.87 L1054.98 1415.87 L1054.98 1421.26 L1050.72 1421.26 L1050.72 1415.87 Z" fill="#000000" fill-rule="nonzero" fill-opacity="1" /><path clip-path="url(#clip260)" d="M1068.11 1418.6 L1068.11 1425.96 L1076.88 1425.96 L1076.88 1429.27 L1068.11 1429.27 L1068.11 1443.35 Q1068.11 1446.52 1068.96 1447.42 Q1069.84 1448.32 1072.5 1448.32 L1076.88 1448.32 L1076.88 1451.89 L1072.5 1451.89 Q1067.57 1451.89 1065.7 1450.06 Q1063.82 1448.21 1063.82 1443.35 L1063.82 1429.27 L1060.7 1429.27 L1060.7 1425.96 L1063.82 1425.96 L1063.82 1418.6 L1068.11 1418.6 Z" fill="#000000" fill-rule="nonzero" fill-opacity="1" /><path clip-path="url(#clip260)" d="M1093.27 1454.3 Q1091.46 1458.92 1089.75 1460.34 Q1088.04 1461.75 1085.17 1461.75 L1081.76 1461.75 L1081.76 1458.18 L1084.26 1458.18 Q1086.02 1458.18 1086.99 1457.35 Q1087.97 1456.52 1089.15 1453.42 L1089.91 1451.47 L1079.42 1425.96 L1083.94 1425.96 L1092.04 1446.24 L1100.14 1425.96 L1104.66 1425.96 L1093.27 1454.3 Z" fill="#000000" fill-rule="nonzero" fill-opacity="1" /><path clip-path="url(#clip260)" d="M1144.22 1438.95 Q1144.22 1434.25 1142.27 1431.59 Q1140.35 1428.9 1136.97 1428.9 Q1133.59 1428.9 1131.65 1431.59 Q1129.73 1434.25 1129.73 1438.95 Q1129.73 1443.65 1131.65 1446.33 Q1133.59 1448.99 1136.97 1448.99 Q1140.35 1448.99 1142.27 1446.33 Q1144.22 1443.65 1144.22 1438.95 M1129.73 1429.9 Q1131.07 1427.58 1133.11 1426.47 Q1135.17 1425.34 1138.01 1425.34 Q1142.73 1425.34 1145.67 1429.09 Q1148.64 1432.84 1148.64 1438.95 Q1148.64 1445.06 1145.67 1448.81 Q1142.73 1452.56 1138.01 1452.56 Q1135.17 1452.56 1133.11 1451.45 Q1131.07 1450.31 1129.73 1448 L1129.73 1451.89 L1125.44 1451.89 L1125.44 1415.87 L1129.73 1415.87 L1129.73 1429.9 Z" fill="#000000" fill-rule="nonzero" fill-opacity="1" /><path clip-path="url(#clip260)" d="M1177.87 1437.86 L1177.87 1439.94 L1158.29 1439.94 Q1158.57 1444.34 1160.93 1446.66 Q1163.31 1448.95 1167.55 1448.95 Q1170 1448.95 1172.29 1448.35 Q1174.61 1447.74 1176.88 1446.54 L1176.88 1450.57 Q1174.59 1451.54 1172.18 1452.05 Q1169.77 1452.56 1167.29 1452.56 Q1161.09 1452.56 1157.46 1448.95 Q1153.85 1445.34 1153.85 1439.18 Q1153.85 1432.81 1157.27 1429.09 Q1160.72 1425.34 1166.55 1425.34 Q1171.79 1425.34 1174.82 1428.72 Q1177.87 1432.07 1177.87 1437.86 M1173.61 1436.61 Q1173.57 1433.11 1171.65 1431.03 Q1169.75 1428.95 1166.6 1428.95 Q1163.04 1428.95 1160.88 1430.96 Q1158.75 1432.98 1158.43 1436.63 L1173.61 1436.61 Z" fill="#000000" fill-rule="nonzero" fill-opacity="1" /><path clip-path="url(#clip260)" d="M1189.08 1418.6 L1189.08 1425.96 L1197.85 1425.96 L1197.85 1429.27 L1189.08 1429.27 L1189.08 1443.35 Q1189.08 1446.52 1189.93 1447.42 Q1190.81 1448.32 1193.48 1448.32 L1197.85 1448.32 L1197.85 1451.89 L1193.48 1451.89 Q1188.54 1451.89 1186.67 1450.06 Q1184.79 1448.21 1184.79 1443.35 L1184.79 1429.27 L1181.67 1429.27 L1181.67 1425.96 L1184.79 1425.96 L1184.79 1418.6 L1189.08 1418.6 Z" fill="#000000" fill-rule="nonzero" fill-opacity="1" /><path clip-path="url(#clip260)" d="M1200.98 1425.96 L1205.23 1425.96 L1210.56 1446.19 L1215.86 1425.96 L1220.88 1425.96 L1226.21 1446.19 L1231.51 1425.96 L1235.77 1425.96 L1228.98 1451.89 L1223.96 1451.89 L1218.38 1430.64 L1212.78 1451.89 L1207.76 1451.89 L1200.98 1425.96 Z" fill="#000000" fill-rule="nonzero" fill-opacity="1" /><path clip-path="url(#clip260)" d="M1264.4 1437.86 L1264.4 1439.94 L1244.82 1439.94 Q1245.1 1444.34 1247.46 1446.66 Q1249.84 1448.95 1254.08 1448.95 Q1256.53 1448.95 1258.82 1448.35 Q1261.14 1447.74 1263.41 1446.54 L1263.41 1450.57 Q1261.11 1451.54 1258.71 1452.05 Q1256.3 1452.56 1253.82 1452.56 Q1247.62 1452.56 1243.98 1448.95 Q1240.37 1445.34 1240.37 1439.18 Q1240.37 1432.81 1243.8 1429.09 Q1247.25 1425.34 1253.08 1425.34 Q1258.31 1425.34 1261.35 1428.72 Q1264.4 1432.07 1264.4 1437.86 M1260.14 1436.61 Q1260.1 1433.11 1258.17 1431.03 Q1256.28 1428.95 1253.13 1428.95 Q1249.56 1428.95 1247.41 1430.96 Q1245.28 1432.98 1244.96 1436.63 L1260.14 1436.61 Z" fill="#000000" fill-rule="nonzero" fill-opacity="1" /><path clip-path="url(#clip260)" d="M1293.57 1437.86 L1293.57 1439.94 L1273.98 1439.94 Q1274.26 1444.34 1276.62 1446.66 Q1279.01 1448.95 1283.24 1448.95 Q1285.7 1448.95 1287.99 1448.35 Q1290.3 1447.74 1292.57 1446.54 L1292.57 1450.57 Q1290.28 1451.54 1287.87 1452.05 Q1285.47 1452.56 1282.99 1452.56 Q1276.78 1452.56 1273.15 1448.95 Q1269.54 1445.34 1269.54 1439.18 Q1269.54 1432.81 1272.97 1429.09 Q1276.41 1425.34 1282.25 1425.34 Q1287.48 1425.34 1290.51 1428.72 Q1293.57 1432.07 1293.57 1437.86 M1289.31 1436.61 Q1289.26 1433.11 1287.34 1431.03 Q1285.44 1428.95 1282.29 1428.95 Q1278.73 1428.95 1276.58 1430.96 Q1274.45 1432.98 1274.12 1436.63 L1289.31 1436.61 Z" fill="#000000" fill-rule="nonzero" fill-opacity="1" /><path clip-path="url(#clip260)" d="M1322.11 1436.24 L1322.11 1451.89 L1317.85 1451.89 L1317.85 1436.38 Q1317.85 1432.7 1316.41 1430.87 Q1314.98 1429.04 1312.11 1429.04 Q1308.66 1429.04 1306.67 1431.24 Q1304.68 1433.44 1304.68 1437.24 L1304.68 1451.89 L1300.4 1451.89 L1300.4 1425.96 L1304.68 1425.96 L1304.68 1429.99 Q1306.21 1427.65 1308.27 1426.49 Q1310.35 1425.34 1313.06 1425.34 Q1317.53 1425.34 1319.82 1428.11 Q1322.11 1430.87 1322.11 1436.24 Z" fill="#000000" fill-rule="nonzero" fill-opacity="1" /><path clip-path="url(#clip260)" d="M1358.8 1415.87 L1358.8 1419.41 L1354.72 1419.41 Q1352.43 1419.41 1351.53 1420.34 Q1350.65 1421.26 1350.65 1423.67 L1350.65 1425.96 L1357.66 1425.96 L1357.66 1429.27 L1350.65 1429.27 L1350.65 1451.89 L1346.37 1451.89 L1346.37 1429.27 L1342.29 1429.27 L1342.29 1425.96 L1346.37 1425.96 L1346.37 1424.16 Q1346.37 1419.83 1348.38 1417.86 Q1350.4 1415.87 1354.77 1415.87 L1358.8 1415.87 Z" fill="#000000" fill-rule="nonzero" fill-opacity="1" /><path clip-path="url(#clip260)" d="M1372.41 1428.95 Q1368.98 1428.95 1366.99 1431.63 Q1365 1434.3 1365 1438.95 Q1365 1443.6 1366.97 1446.29 Q1368.96 1448.95 1372.41 1448.95 Q1375.81 1448.95 1377.8 1446.26 Q1379.79 1443.58 1379.79 1438.95 Q1379.79 1434.34 1377.8 1431.66 Q1375.81 1428.95 1372.41 1428.95 M1372.41 1425.34 Q1377.96 1425.34 1381.14 1428.95 Q1384.31 1432.56 1384.31 1438.95 Q1384.31 1445.31 1381.14 1448.95 Q1377.96 1452.56 1372.41 1452.56 Q1366.83 1452.56 1363.66 1448.95 Q1360.51 1445.31 1360.51 1438.95 Q1360.51 1432.56 1363.66 1428.95 Q1366.83 1425.34 1372.41 1425.34 Z" fill="#000000" fill-rule="nonzero" fill-opacity="1" /><path clip-path="url(#clip260)" d="M1406.39 1429.94 Q1405.67 1429.53 1404.82 1429.34 Q1403.98 1429.13 1402.96 1429.13 Q1399.35 1429.13 1397.41 1431.49 Q1395.49 1433.83 1395.49 1438.23 L1395.49 1451.89 L1391.21 1451.89 L1391.21 1425.96 L1395.49 1425.96 L1395.49 1429.99 Q1396.83 1427.63 1398.98 1426.49 Q1401.14 1425.34 1404.21 1425.34 Q1404.65 1425.34 1405.19 1425.41 Q1405.72 1425.45 1406.37 1425.57 L1406.39 1429.94 Z" fill="#000000" fill-rule="nonzero" fill-opacity="1" /><path clip-path="url(#clip260)" d="M1430.21 1430.94 Q1431.81 1428.07 1434.03 1426.7 Q1436.25 1425.34 1439.26 1425.34 Q1443.31 1425.34 1445.51 1428.18 Q1447.71 1431.01 1447.71 1436.24 L1447.71 1451.89 L1443.43 1451.89 L1443.43 1436.38 Q1443.43 1432.65 1442.11 1430.85 Q1440.79 1429.04 1438.08 1429.04 Q1434.77 1429.04 1432.85 1431.24 Q1430.93 1433.44 1430.93 1437.24 L1430.93 1451.89 L1426.65 1451.89 L1426.65 1436.38 Q1426.65 1432.63 1425.33 1430.85 Q1424.01 1429.04 1421.25 1429.04 Q1417.99 1429.04 1416.07 1431.26 Q1414.15 1433.46 1414.15 1437.24 L1414.15 1451.89 L1409.86 1451.89 L1409.86 1425.96 L1414.15 1425.96 L1414.15 1429.99 Q1415.6 1427.61 1417.64 1426.47 Q1419.68 1425.34 1422.48 1425.34 Q1425.3 1425.34 1427.27 1426.77 Q1429.26 1428.21 1430.21 1430.94 Z" fill="#000000" fill-rule="nonzero" fill-opacity="1" /><path clip-path="url(#clip260)" d="M1467.99 1438.86 Q1462.83 1438.86 1460.83 1440.04 Q1458.84 1441.22 1458.84 1444.06 Q1458.84 1446.33 1460.33 1447.67 Q1461.83 1448.99 1464.4 1448.99 Q1467.94 1448.99 1470.07 1446.49 Q1472.22 1443.97 1472.22 1439.8 L1472.22 1438.86 L1467.99 1438.86 M1476.48 1437.1 L1476.48 1451.89 L1472.22 1451.89 L1472.22 1447.95 Q1470.77 1450.31 1468.59 1451.45 Q1466.41 1452.56 1463.27 1452.56 Q1459.28 1452.56 1456.92 1450.34 Q1454.58 1448.09 1454.58 1444.34 Q1454.58 1439.97 1457.5 1437.74 Q1460.44 1435.52 1466.25 1435.52 L1472.22 1435.52 L1472.22 1435.11 Q1472.22 1432.17 1470.28 1430.57 Q1468.36 1428.95 1464.86 1428.95 Q1462.64 1428.95 1460.53 1429.48 Q1458.43 1430.01 1456.48 1431.08 L1456.48 1427.14 Q1458.82 1426.24 1461.02 1425.8 Q1463.22 1425.34 1465.3 1425.34 Q1470.93 1425.34 1473.71 1428.25 Q1476.48 1431.17 1476.48 1437.1 Z" fill="#000000" fill-rule="nonzero" fill-opacity="1" /><path clip-path="url(#clip260)" d="M1485.26 1415.87 L1489.52 1415.87 L1489.52 1451.89 L1485.26 1451.89 L1485.26 1415.87 Z" fill="#000000" fill-rule="nonzero" fill-opacity="1" /><path clip-path="url(#clip260)" d="M1525.28 1438.86 Q1520.12 1438.86 1518.13 1440.04 Q1516.14 1441.22 1516.14 1444.06 Q1516.14 1446.33 1517.62 1447.67 Q1519.12 1448.99 1521.69 1448.99 Q1525.23 1448.99 1527.36 1446.49 Q1529.52 1443.97 1529.52 1439.8 L1529.52 1438.86 L1525.28 1438.86 M1533.77 1437.1 L1533.77 1451.89 L1529.52 1451.89 L1529.52 1447.95 Q1528.06 1450.31 1525.88 1451.45 Q1523.7 1452.56 1520.56 1452.56 Q1516.58 1452.56 1514.21 1450.34 Q1511.88 1448.09 1511.88 1444.34 Q1511.88 1439.97 1514.79 1437.74 Q1517.73 1435.52 1523.54 1435.52 L1529.52 1435.52 L1529.52 1435.11 Q1529.52 1432.17 1527.57 1430.57 Q1525.65 1428.95 1522.15 1428.95 Q1519.93 1428.95 1517.83 1429.48 Q1515.72 1430.01 1513.77 1431.08 L1513.77 1427.14 Q1516.11 1426.24 1518.31 1425.8 Q1520.51 1425.34 1522.59 1425.34 Q1528.22 1425.34 1531 1428.25 Q1533.77 1431.17 1533.77 1437.1 Z" fill="#000000" fill-rule="nonzero" fill-opacity="1" /><path clip-path="url(#clip260)" d="M1564.1 1436.24 L1564.1 1451.89 L1559.84 1451.89 L1559.84 1436.38 Q1559.84 1432.7 1558.4 1430.87 Q1556.97 1429.04 1554.1 1429.04 Q1550.65 1429.04 1548.66 1431.24 Q1546.67 1433.44 1546.67 1437.24 L1546.67 1451.89 L1542.39 1451.89 L1542.39 1425.96 L1546.67 1425.96 L1546.67 1429.99 Q1548.2 1427.65 1550.26 1426.49 Q1552.34 1425.34 1555.05 1425.34 Q1559.51 1425.34 1561.81 1428.11 Q1564.1 1430.87 1564.1 1436.24 Z" fill="#000000" fill-rule="nonzero" fill-opacity="1" /><path clip-path="url(#clip260)" d="M1589.65 1429.9 L1589.65 1415.87 L1593.91 1415.87 L1593.91 1451.89 L1589.65 1451.89 L1589.65 1448 Q1588.31 1450.31 1586.25 1451.45 Q1584.21 1452.56 1581.34 1452.56 Q1576.64 1452.56 1573.68 1448.81 Q1570.74 1445.06 1570.74 1438.95 Q1570.74 1432.84 1573.68 1429.09 Q1576.64 1425.34 1581.34 1425.34 Q1584.21 1425.34 1586.25 1426.47 Q1588.31 1427.58 1589.65 1429.9 M1575.14 1438.95 Q1575.14 1443.65 1577.06 1446.33 Q1579.01 1448.99 1582.39 1448.99 Q1585.76 1448.99 1587.71 1446.33 Q1589.65 1443.65 1589.65 1438.95 Q1589.65 1434.25 1587.71 1431.59 Q1585.76 1428.9 1582.39 1428.9 Q1579.01 1428.9 1577.06 1431.59 Q1575.14 1434.25 1575.14 1438.95 Z" fill="#000000" fill-rule="nonzero" fill-opacity="1" /><path clip-path="url(#clip260)" d="M1617.76 1425.96 L1622.01 1425.96 L1622.01 1451.89 L1617.76 1451.89 L1617.76 1425.96 M1617.76 1415.87 L1622.01 1415.87 L1622.01 1421.26 L1617.76 1421.26 L1617.76 1415.87 Z" fill="#000000" fill-rule="nonzero" fill-opacity="1" /><path clip-path="url(#clip260)" d="M1652.48 1436.24 L1652.48 1451.89 L1648.22 1451.89 L1648.22 1436.38 Q1648.22 1432.7 1646.78 1430.87 Q1645.35 1429.04 1642.48 1429.04 Q1639.03 1429.04 1637.04 1431.24 Q1635.05 1433.44 1635.05 1437.24 L1635.05 1451.89 L1630.76 1451.89 L1630.76 1425.96 L1635.05 1425.96 L1635.05 1429.99 Q1636.57 1427.65 1638.63 1426.49 Q1640.72 1425.34 1643.43 1425.34 Q1647.89 1425.34 1650.19 1428.11 Q1652.48 1430.87 1652.48 1436.24 Z" fill="#000000" fill-rule="nonzero" fill-opacity="1" /><path clip-path="url(#clip260)" d="M1674.1 1415.87 L1674.1 1419.41 L1670.02 1419.41 Q1667.73 1419.41 1666.83 1420.34 Q1665.95 1421.26 1665.95 1423.67 L1665.95 1425.96 L1672.96 1425.96 L1672.96 1429.27 L1665.95 1429.27 L1665.95 1451.89 L1661.67 1451.89 L1661.67 1429.27 L1657.59 1429.27 L1657.59 1425.96 L1661.67 1425.96 L1661.67 1424.16 Q1661.67 1419.83 1663.68 1417.86 Q1665.69 1415.87 1670.07 1415.87 L1674.1 1415.87 Z" fill="#000000" fill-rule="nonzero" fill-opacity="1" /><path clip-path="url(#clip260)" d="M1687.71 1428.95 Q1684.28 1428.95 1682.29 1431.63 Q1680.3 1434.3 1680.3 1438.95 Q1680.3 1443.6 1682.27 1446.29 Q1684.26 1448.95 1687.71 1448.95 Q1691.11 1448.95 1693.1 1446.26 Q1695.09 1443.58 1695.09 1438.95 Q1695.09 1434.34 1693.1 1431.66 Q1691.11 1428.95 1687.71 1428.95 M1687.71 1425.34 Q1693.26 1425.34 1696.44 1428.95 Q1699.61 1432.56 1699.61 1438.95 Q1699.61 1445.31 1696.44 1448.95 Q1693.26 1452.56 1687.71 1452.56 Q1682.13 1452.56 1678.96 1448.95 Q1675.81 1445.31 1675.81 1438.95 Q1675.81 1432.56 1678.96 1428.95 Q1682.13 1425.34 1687.71 1425.34 Z" fill="#000000" fill-rule="nonzero" fill-opacity="1" /><path clip-path="url(#clip260)" d="M1721.69 1429.94 Q1720.97 1429.53 1720.12 1429.34 Q1719.28 1429.13 1718.26 1429.13 Q1714.65 1429.13 1712.71 1431.49 Q1710.79 1433.83 1710.79 1438.23 L1710.79 1451.89 L1706.5 1451.89 L1706.5 1425.96 L1710.79 1425.96 L1710.79 1429.99 Q1712.13 1427.63 1714.28 1426.49 Q1716.44 1425.34 1719.51 1425.34 Q1719.95 1425.34 1720.49 1425.41 Q1721.02 1425.45 1721.67 1425.57 L1721.69 1429.94 Z" fill="#000000" fill-rule="nonzero" fill-opacity="1" /><path clip-path="url(#clip260)" d="M1745.51 1430.94 Q1747.11 1428.07 1749.33 1426.7 Q1751.55 1425.34 1754.56 1425.34 Q1758.61 1425.34 1760.81 1428.18 Q1763.01 1431.01 1763.01 1436.24 L1763.01 1451.89 L1758.73 1451.89 L1758.73 1436.38 Q1758.73 1432.65 1757.41 1430.85 Q1756.09 1429.04 1753.38 1429.04 Q1750.07 1429.04 1748.15 1431.24 Q1746.23 1433.44 1746.23 1437.24 L1746.23 1451.89 L1741.94 1451.89 L1741.94 1436.38 Q1741.94 1432.63 1740.63 1430.85 Q1739.31 1429.04 1736.55 1429.04 Q1733.29 1429.04 1731.37 1431.26 Q1729.44 1433.46 1729.44 1437.24 L1729.44 1451.89 L1725.16 1451.89 L1725.16 1425.96 L1729.44 1425.96 L1729.44 1429.99 Q1730.9 1427.61 1732.94 1426.47 Q1734.98 1425.34 1737.78 1425.34 Q1740.6 1425.34 1742.57 1426.77 Q1744.56 1428.21 1745.51 1430.94 Z" fill="#000000" fill-rule="nonzero" fill-opacity="1" /><path clip-path="url(#clip260)" d="M1783.29 1438.86 Q1778.12 1438.86 1776.13 1440.04 Q1774.14 1441.22 1774.14 1444.06 Q1774.14 1446.33 1775.62 1447.67 Q1777.13 1448.99 1779.7 1448.99 Q1783.24 1448.99 1785.37 1446.49 Q1787.52 1443.97 1787.52 1439.8 L1787.52 1438.86 L1783.29 1438.86 M1791.78 1437.1 L1791.78 1451.89 L1787.52 1451.89 L1787.52 1447.95 Q1786.06 1450.31 1783.89 1451.45 Q1781.71 1452.56 1778.56 1452.56 Q1774.58 1452.56 1772.22 1450.34 Q1769.88 1448.09 1769.88 1444.34 Q1769.88 1439.97 1772.8 1437.74 Q1775.74 1435.52 1781.55 1435.52 L1787.52 1435.52 L1787.52 1435.11 Q1787.52 1432.17 1785.58 1430.57 Q1783.66 1428.95 1780.16 1428.95 Q1777.94 1428.95 1775.83 1429.48 Q1773.73 1430.01 1771.78 1431.08 L1771.78 1427.14 Q1774.12 1426.24 1776.32 1425.8 Q1778.52 1425.34 1780.6 1425.34 Q1786.23 1425.34 1789 1428.25 Q1791.78 1431.17 1791.78 1437.1 Z" fill="#000000" fill-rule="nonzero" fill-opacity="1" /><path clip-path="url(#clip260)" d="M1800.56 1415.87 L1804.81 1415.87 L1804.81 1451.89 L1800.56 1451.89 L1800.56 1415.87 Z" fill="#000000" fill-rule="nonzero" fill-opacity="1" /></svg>
