<?xml version="1.0" encoding="utf-8"?>
<svg xmlns="http://www.w3.org/2000/svg" xmlns:xlink="http://www.w3.org/1999/xlink" width="600" height="400" viewBox="0 0 2400 1600">
<defs>
  <clipPath id="clip500">
    <rect x="0" y="0" width="2400" height="1600"/>
  </clipPath>
</defs>
<path clip-path="url(#clip500)" d="M0 1600 L2400 1600 L2400 0 L0 0  Z" fill="#ffffff" fill-rule="evenodd" fill-opacity="1"/>
<defs>
  <clipPath id="clip501">
    <rect x="480" y="0" width="1681" height="1600"/>
  </clipPath>
</defs>
<path clip-path="url(#clip500)" d="M156.112 1181.82 L2352.76 1181.82 L2352.76 123.472 L156.112 123.472  Z" fill="#ffffff" fill-rule="evenodd" fill-opacity="1"/>
<defs>
  <clipPath id="clip502">
    <rect x="156" y="123" width="2198" height="1059"/>
  </clipPath>
</defs>
<polyline clip-path="url(#clip502)" style="stroke:#000000; stroke-linecap:round; stroke-linejoin:round; stroke-width:2; stroke-opacity:0.1; fill:none" points="482.721,1181.82 482.721,123.472 "/>
<polyline clip-path="url(#clip502)" style="stroke:#000000; stroke-linecap:round; stroke-linejoin:round; stroke-width:2; stroke-opacity:0.1; fill:none" points="997.196,1181.82 997.196,123.472 "/>
<polyline clip-path="url(#clip502)" style="stroke:#000000; stroke-linecap:round; stroke-linejoin:round; stroke-width:2; stroke-opacity:0.1; fill:none" points="1511.67,1181.82 1511.67,123.472 "/>
<polyline clip-path="url(#clip502)" style="stroke:#000000; stroke-linecap:round; stroke-linejoin:round; stroke-width:2; stroke-opacity:0.1; fill:none" points="2026.15,1181.82 2026.15,123.472 "/>
<polyline clip-path="url(#clip500)" style="stroke:#000000; stroke-linecap:round; stroke-linejoin:round; stroke-width:4; stroke-opacity:1; fill:none" points="156.112,1181.82 2352.76,1181.82 "/>
<polyline clip-path="url(#clip500)" style="stroke:#000000; stroke-linecap:round; stroke-linejoin:round; stroke-width:4; stroke-opacity:1; fill:none" points="482.721,1181.82 482.721,1167.14 "/>
<polyline clip-path="url(#clip500)" style="stroke:#000000; stroke-linecap:round; stroke-linejoin:round; stroke-width:4; stroke-opacity:1; fill:none" points="997.196,1181.82 997.196,1167.14 "/>
<polyline clip-path="url(#clip500)" style="stroke:#000000; stroke-linecap:round; stroke-linejoin:round; stroke-width:4; stroke-opacity:1; fill:none" points="1511.67,1181.82 1511.67,1167.14 "/>
<polyline clip-path="url(#clip500)" style="stroke:#000000; stroke-linecap:round; stroke-linejoin:round; stroke-width:4; stroke-opacity:1; fill:none" points="2026.15,1181.82 2026.15,1167.14 "/>
<path clip-path="url(#clip500)" d="M399.088 1209.66 L403.764 1209.66 L403.764 1244.22 L399.088 1244.22 L399.088 1209.66 Z" fill="#000000" fill-rule="nonzero" fill-opacity="1" /><path clip-path="url(#clip500)" d="M434.435 1228.57 L434.435 1244.22 L430.175 1244.22 L430.175 1228.71 Q430.175 1225.03 428.74 1223.2 Q427.305 1221.37 424.435 1221.37 Q420.986 1221.37 418.995 1223.57 Q417.004 1225.77 417.004 1229.56 L417.004 1244.22 L412.722 1244.22 L412.722 1218.29 L417.004 1218.29 L417.004 1222.32 Q418.532 1219.98 420.592 1218.82 Q422.675 1217.66 425.384 1217.66 Q429.851 1217.66 432.143 1220.44 Q434.435 1223.2 434.435 1228.57 Z" fill="#000000" fill-rule="nonzero" fill-opacity="1" /><path clip-path="url(#clip500)" d="M461.587 1219.28 L461.587 1223.27 Q459.782 1222.27 457.953 1221.78 Q456.148 1221.28 454.296 1221.28 Q450.152 1221.28 447.861 1223.91 Q445.569 1226.53 445.569 1231.28 Q445.569 1236.02 447.861 1238.66 Q450.152 1241.28 454.296 1241.28 Q456.148 1241.28 457.953 1240.79 Q459.782 1240.28 461.587 1239.28 L461.587 1243.22 Q459.805 1244.05 457.884 1244.47 Q455.985 1244.89 453.833 1244.89 Q447.976 1244.89 444.527 1241.21 Q441.078 1237.53 441.078 1231.28 Q441.078 1224.93 444.55 1221.3 Q448.046 1217.66 454.111 1217.66 Q456.078 1217.66 457.953 1218.08 Q459.828 1218.47 461.587 1219.28 Z" fill="#000000" fill-rule="nonzero" fill-opacity="1" /><path clip-path="url(#clip500)" d="M479.041 1221.28 Q475.615 1221.28 473.624 1223.96 Q471.634 1226.62 471.634 1231.28 Q471.634 1235.93 473.601 1238.61 Q475.592 1241.28 479.041 1241.28 Q482.444 1241.28 484.434 1238.59 Q486.425 1235.91 486.425 1231.28 Q486.425 1226.67 484.434 1223.98 Q482.444 1221.28 479.041 1221.28 M479.041 1217.66 Q484.596 1217.66 487.768 1221.28 Q490.939 1224.89 490.939 1231.28 Q490.939 1237.64 487.768 1241.28 Q484.596 1244.89 479.041 1244.89 Q473.462 1244.89 470.291 1241.28 Q467.143 1237.64 467.143 1231.28 Q467.143 1224.89 470.291 1221.28 Q473.462 1217.66 479.041 1217.66 Z" fill="#000000" fill-rule="nonzero" fill-opacity="1" /><path clip-path="url(#clip500)" d="M518.184 1223.27 Q519.781 1220.4 522.004 1219.03 Q524.226 1217.66 527.235 1217.66 Q531.286 1217.66 533.485 1220.51 Q535.684 1223.34 535.684 1228.57 L535.684 1244.22 L531.402 1244.22 L531.402 1228.71 Q531.402 1224.98 530.082 1223.17 Q528.763 1221.37 526.055 1221.37 Q522.744 1221.37 520.823 1223.57 Q518.902 1225.77 518.902 1229.56 L518.902 1244.22 L514.619 1244.22 L514.619 1228.71 Q514.619 1224.96 513.3 1223.17 Q511.981 1221.37 509.226 1221.37 Q505.962 1221.37 504.041 1223.59 Q502.12 1225.79 502.12 1229.56 L502.12 1244.22 L497.837 1244.22 L497.837 1218.29 L502.12 1218.29 L502.12 1222.32 Q503.578 1219.93 505.615 1218.8 Q507.652 1217.66 510.453 1217.66 Q513.277 1217.66 515.244 1219.1 Q517.235 1220.53 518.184 1223.27 Z" fill="#000000" fill-rule="nonzero" fill-opacity="1" /><path clip-path="url(#clip500)" d="M566.355 1230.19 L566.355 1232.27 L546.772 1232.27 Q547.05 1236.67 549.411 1238.98 Q551.795 1241.28 556.031 1241.28 Q558.485 1241.28 560.777 1240.67 Q563.091 1240.07 565.36 1238.87 L565.36 1242.9 Q563.068 1243.87 560.661 1244.38 Q558.253 1244.89 555.777 1244.89 Q549.573 1244.89 545.939 1241.28 Q542.328 1237.66 542.328 1231.51 Q542.328 1225.14 545.754 1221.41 Q549.203 1217.66 555.036 1217.66 Q560.267 1217.66 563.3 1221.04 Q566.355 1224.4 566.355 1230.19 M562.096 1228.94 Q562.05 1225.44 560.128 1223.36 Q558.23 1221.28 555.082 1221.28 Q551.517 1221.28 549.365 1223.29 Q547.235 1225.3 546.911 1228.96 L562.096 1228.94 Z" fill="#000000" fill-rule="nonzero" fill-opacity="1" /><path clip-path="url(#clip500)" d="M917.938 1209.66 L922.66 1209.66 L929.928 1238.87 L937.174 1209.66 L942.428 1209.66 L949.697 1238.87 L956.942 1209.66 L961.687 1209.66 L953.007 1244.22 L947.127 1244.22 L939.836 1214.22 L932.475 1244.22 L926.595 1244.22 L917.938 1209.66 Z" fill="#000000" fill-rule="nonzero" fill-opacity="1" /><path clip-path="url(#clip500)" d="M987.104 1230.19 L987.104 1232.27 L967.521 1232.27 Q967.799 1236.67 970.16 1238.98 Q972.544 1241.28 976.78 1241.28 Q979.234 1241.28 981.525 1240.67 Q983.84 1240.07 986.109 1238.87 L986.109 1242.9 Q983.817 1243.87 981.41 1244.38 Q979.002 1244.89 976.525 1244.89 Q970.322 1244.89 966.687 1241.28 Q963.076 1237.66 963.076 1231.51 Q963.076 1225.14 966.502 1221.41 Q969.951 1217.66 975.785 1217.66 Q981.016 1217.66 984.048 1221.04 Q987.104 1224.4 987.104 1230.19 M982.845 1228.94 Q982.798 1225.44 980.877 1223.36 Q978.979 1221.28 975.831 1221.28 Q972.266 1221.28 970.113 1223.29 Q967.984 1225.3 967.66 1228.96 L982.845 1228.94 Z" fill="#000000" fill-rule="nonzero" fill-opacity="1" /><path clip-path="url(#clip500)" d="M1005.88 1231.18 Q1000.71 1231.18 998.724 1232.36 Q996.734 1233.54 996.734 1236.39 Q996.734 1238.66 998.215 1240 Q999.72 1241.32 1002.29 1241.32 Q1005.83 1241.32 1007.96 1238.82 Q1010.11 1236.3 1010.11 1232.13 L1010.11 1231.18 L1005.88 1231.18 M1014.37 1229.42 L1014.37 1244.22 L1010.11 1244.22 L1010.11 1240.28 Q1008.65 1242.64 1006.48 1243.78 Q1004.3 1244.89 1001.15 1244.89 Q997.173 1244.89 994.812 1242.66 Q992.474 1240.42 992.474 1236.67 Q992.474 1232.29 995.391 1230.07 Q998.331 1227.85 1004.14 1227.85 L1010.11 1227.85 L1010.11 1227.43 Q1010.11 1224.49 1008.17 1222.9 Q1006.25 1221.28 1002.75 1221.28 Q1000.53 1221.28 998.423 1221.81 Q996.317 1222.34 994.372 1223.41 L994.372 1219.47 Q996.71 1218.57 998.909 1218.13 Q1001.11 1217.66 1003.19 1217.66 Q1008.82 1217.66 1011.59 1220.58 Q1014.37 1223.5 1014.37 1229.42 Z" fill="#000000" fill-rule="nonzero" fill-opacity="1" /><path clip-path="url(#clip500)" d="M1023.15 1208.2 L1027.4 1208.2 L1027.4 1244.22 L1023.15 1244.22 L1023.15 1208.2 Z" fill="#000000" fill-rule="nonzero" fill-opacity="1" /><path clip-path="url(#clip500)" d="M1040.53 1210.93 L1040.53 1218.29 L1049.3 1218.29 L1049.3 1221.6 L1040.53 1221.6 L1040.53 1235.67 Q1040.53 1238.85 1041.39 1239.75 Q1042.27 1240.65 1044.93 1240.65 L1049.3 1240.65 L1049.3 1244.22 L1044.93 1244.22 Q1040 1244.22 1038.12 1242.39 Q1036.25 1240.53 1036.25 1235.67 L1036.25 1221.6 L1033.12 1221.6 L1033.12 1218.29 L1036.25 1218.29 L1036.25 1210.93 L1040.53 1210.93 Z" fill="#000000" fill-rule="nonzero" fill-opacity="1" /><path clip-path="url(#clip500)" d="M1076.46 1228.57 L1076.46 1244.22 L1072.2 1244.22 L1072.2 1228.71 Q1072.2 1225.03 1070.76 1223.2 Q1069.33 1221.37 1066.46 1221.37 Q1063.01 1221.37 1061.02 1223.57 Q1059.02 1225.77 1059.02 1229.56 L1059.02 1244.22 L1054.74 1244.22 L1054.74 1208.2 L1059.02 1208.2 L1059.02 1222.32 Q1060.55 1219.98 1062.61 1218.82 Q1064.7 1217.66 1067.4 1217.66 Q1071.87 1217.66 1074.16 1220.44 Q1076.46 1223.2 1076.46 1228.57 Z" fill="#000000" fill-rule="nonzero" fill-opacity="1" /><path clip-path="url(#clip500)" d="M1385.9 1212.32 L1385.9 1217.25 Q1383.54 1215.05 1380.85 1213.96 Q1378.19 1212.87 1375.18 1212.87 Q1369.25 1212.87 1366.11 1216.51 Q1362.96 1220.12 1362.96 1226.97 Q1362.96 1233.8 1366.11 1237.43 Q1369.25 1241.04 1375.18 1241.04 Q1378.19 1241.04 1380.85 1239.96 Q1383.54 1238.87 1385.9 1236.67 L1385.9 1241.55 Q1383.44 1243.22 1380.69 1244.05 Q1377.96 1244.89 1374.9 1244.89 Q1367.05 1244.89 1362.54 1240.1 Q1358.03 1235.28 1358.03 1226.97 Q1358.03 1218.64 1362.54 1213.85 Q1367.05 1209.03 1374.9 1209.03 Q1378 1209.03 1380.73 1209.86 Q1383.49 1210.67 1385.9 1212.32 Z" fill="#000000" fill-rule="nonzero" fill-opacity="1" /><path clip-path="url(#clip500)" d="M1402.98 1221.28 Q1399.55 1221.28 1397.56 1223.96 Q1395.57 1226.62 1395.57 1231.28 Q1395.57 1235.93 1397.54 1238.61 Q1399.53 1241.28 1402.98 1241.28 Q1406.38 1241.28 1408.37 1238.59 Q1410.36 1235.91 1410.36 1231.28 Q1410.36 1226.67 1408.37 1223.98 Q1406.38 1221.28 1402.98 1221.28 M1402.98 1217.66 Q1408.54 1217.66 1411.71 1221.28 Q1414.88 1224.89 1414.88 1231.28 Q1414.88 1237.64 1411.71 1241.28 Q1408.54 1244.89 1402.98 1244.89 Q1397.4 1244.89 1394.23 1241.28 Q1391.08 1237.64 1391.08 1231.28 Q1391.08 1224.89 1394.23 1221.28 Q1397.4 1217.66 1402.98 1217.66 Z" fill="#000000" fill-rule="nonzero" fill-opacity="1" /><path clip-path="url(#clip500)" d="M1443.49 1228.57 L1443.49 1244.22 L1439.23 1244.22 L1439.23 1228.71 Q1439.23 1225.03 1437.79 1223.2 Q1436.36 1221.37 1433.49 1221.37 Q1430.04 1221.37 1428.05 1223.57 Q1426.06 1225.77 1426.06 1229.56 L1426.06 1244.22 L1421.78 1244.22 L1421.78 1218.29 L1426.06 1218.29 L1426.06 1222.32 Q1427.59 1219.98 1429.65 1218.82 Q1431.73 1217.66 1434.44 1217.66 Q1438.91 1217.66 1441.2 1220.44 Q1443.49 1223.2 1443.49 1228.57 Z" fill="#000000" fill-rule="nonzero" fill-opacity="1" /><path clip-path="url(#clip500)" d="M1468.51 1219.05 L1468.51 1223.08 Q1466.71 1222.16 1464.76 1221.69 Q1462.82 1221.23 1460.73 1221.23 Q1457.56 1221.23 1455.97 1222.2 Q1454.39 1223.17 1454.39 1225.12 Q1454.39 1226.6 1455.53 1227.46 Q1456.66 1228.29 1460.09 1229.05 L1461.54 1229.38 Q1466.08 1230.35 1467.98 1232.13 Q1469.9 1233.89 1469.9 1237.06 Q1469.9 1240.67 1467.03 1242.78 Q1464.18 1244.89 1459.18 1244.89 Q1457.1 1244.89 1454.83 1244.47 Q1452.59 1244.08 1450.09 1243.27 L1450.09 1238.87 Q1452.45 1240.1 1454.74 1240.72 Q1457.03 1241.32 1459.28 1241.32 Q1462.29 1241.32 1463.91 1240.3 Q1465.53 1239.26 1465.53 1237.39 Q1465.53 1235.65 1464.35 1234.72 Q1463.19 1233.8 1459.23 1232.94 L1457.75 1232.6 Q1453.79 1231.76 1452.03 1230.05 Q1450.27 1228.31 1450.27 1225.3 Q1450.27 1221.65 1452.86 1219.66 Q1455.46 1217.66 1460.23 1217.66 Q1462.59 1217.66 1464.67 1218.01 Q1466.75 1218.36 1468.51 1219.05 Z" fill="#000000" fill-rule="nonzero" fill-opacity="1" /><path clip-path="url(#clip500)" d="M1476.24 1233.98 L1476.24 1218.29 L1480.5 1218.29 L1480.5 1233.82 Q1480.5 1237.5 1481.94 1239.35 Q1483.37 1241.18 1486.24 1241.18 Q1489.69 1241.18 1491.68 1238.98 Q1493.7 1236.78 1493.7 1232.99 L1493.7 1218.29 L1497.96 1218.29 L1497.96 1244.22 L1493.7 1244.22 L1493.7 1240.23 Q1492.15 1242.59 1490.09 1243.75 Q1488.05 1244.89 1485.34 1244.89 Q1480.87 1244.89 1478.56 1242.11 Q1476.24 1239.33 1476.24 1233.98 M1486.96 1217.66 L1486.96 1217.66 Z" fill="#000000" fill-rule="nonzero" fill-opacity="1" /><path clip-path="url(#clip500)" d="M1526.91 1223.27 Q1528.51 1220.4 1530.73 1219.03 Q1532.96 1217.66 1535.97 1217.66 Q1540.02 1217.66 1542.22 1220.51 Q1544.41 1223.34 1544.41 1228.57 L1544.41 1244.22 L1540.13 1244.22 L1540.13 1228.71 Q1540.13 1224.98 1538.81 1223.17 Q1537.49 1221.37 1534.78 1221.37 Q1531.47 1221.37 1529.55 1223.57 Q1527.63 1225.77 1527.63 1229.56 L1527.63 1244.22 L1523.35 1244.22 L1523.35 1228.71 Q1523.35 1224.96 1522.03 1223.17 Q1520.71 1221.37 1517.96 1221.37 Q1514.69 1221.37 1512.77 1223.59 Q1510.85 1225.79 1510.85 1229.56 L1510.85 1244.22 L1506.57 1244.22 L1506.57 1218.29 L1510.85 1218.29 L1510.85 1222.32 Q1512.31 1219.93 1514.35 1218.8 Q1516.38 1217.66 1519.18 1217.66 Q1522.01 1217.66 1523.97 1219.1 Q1525.97 1220.53 1526.91 1223.27 Z" fill="#000000" fill-rule="nonzero" fill-opacity="1" /><path clip-path="url(#clip500)" d="M1557.03 1240.33 L1557.03 1254.08 L1552.75 1254.08 L1552.75 1218.29 L1557.03 1218.29 L1557.03 1222.22 Q1558.37 1219.91 1560.41 1218.8 Q1562.47 1217.66 1565.32 1217.66 Q1570.04 1217.66 1572.98 1221.41 Q1575.94 1225.16 1575.94 1231.28 Q1575.94 1237.39 1572.98 1241.14 Q1570.04 1244.89 1565.32 1244.89 Q1562.47 1244.89 1560.41 1243.78 Q1558.37 1242.64 1557.03 1240.33 M1571.52 1231.28 Q1571.52 1226.58 1569.58 1223.91 Q1567.66 1221.23 1564.28 1221.23 Q1560.9 1221.23 1558.95 1223.91 Q1557.03 1226.58 1557.03 1231.28 Q1557.03 1235.97 1558.95 1238.66 Q1560.9 1241.32 1564.28 1241.32 Q1567.66 1241.32 1569.58 1238.66 Q1571.52 1235.97 1571.52 1231.28 Z" fill="#000000" fill-rule="nonzero" fill-opacity="1" /><path clip-path="url(#clip500)" d="M1587.22 1210.93 L1587.22 1218.29 L1595.99 1218.29 L1595.99 1221.6 L1587.22 1221.6 L1587.22 1235.67 Q1587.22 1238.85 1588.07 1239.75 Q1588.95 1240.65 1591.61 1240.65 L1595.99 1240.65 L1595.99 1244.22 L1591.61 1244.22 Q1586.68 1244.22 1584.81 1242.39 Q1582.93 1240.53 1582.93 1235.67 L1582.93 1221.6 L1579.81 1221.6 L1579.81 1218.29 L1582.93 1218.29 L1582.93 1210.93 L1587.22 1210.93 Z" fill="#000000" fill-rule="nonzero" fill-opacity="1" /><path clip-path="url(#clip500)" d="M1601.59 1218.29 L1605.85 1218.29 L1605.85 1244.22 L1601.59 1244.22 L1601.59 1218.29 M1601.59 1208.2 L1605.85 1208.2 L1605.85 1213.59 L1601.59 1213.59 L1601.59 1208.2 Z" fill="#000000" fill-rule="nonzero" fill-opacity="1" /><path clip-path="url(#clip500)" d="M1624.81 1221.28 Q1621.38 1221.28 1619.39 1223.96 Q1617.4 1226.62 1617.4 1231.28 Q1617.4 1235.93 1619.37 1238.61 Q1621.36 1241.28 1624.81 1241.28 Q1628.21 1241.28 1630.2 1238.59 Q1632.19 1235.91 1632.19 1231.28 Q1632.19 1226.67 1630.2 1223.98 Q1628.21 1221.28 1624.81 1221.28 M1624.81 1217.66 Q1630.36 1217.66 1633.53 1221.28 Q1636.71 1224.89 1636.71 1231.28 Q1636.71 1237.64 1633.53 1241.28 Q1630.36 1244.89 1624.81 1244.89 Q1619.23 1244.89 1616.06 1241.28 Q1612.91 1237.64 1612.91 1231.28 Q1612.91 1224.89 1616.06 1221.28 Q1619.23 1217.66 1624.81 1217.66 Z" fill="#000000" fill-rule="nonzero" fill-opacity="1" /><path clip-path="url(#clip500)" d="M1665.32 1228.57 L1665.32 1244.22 L1661.06 1244.22 L1661.06 1228.71 Q1661.06 1225.03 1659.62 1223.2 Q1658.19 1221.37 1655.32 1221.37 Q1651.87 1221.37 1649.88 1223.57 Q1647.89 1225.77 1647.89 1229.56 L1647.89 1244.22 L1643.6 1244.22 L1643.6 1218.29 L1647.89 1218.29 L1647.89 1222.32 Q1649.41 1219.98 1651.47 1218.82 Q1653.56 1217.66 1656.27 1217.66 Q1660.73 1217.66 1663.02 1220.44 Q1665.32 1223.2 1665.32 1228.57 Z" fill="#000000" fill-rule="nonzero" fill-opacity="1" /><path clip-path="url(#clip500)" d="M1968.53 1214.26 L1962.19 1231.46 L1974.9 1231.46 L1968.53 1214.26 M1965.89 1209.66 L1971.19 1209.66 L1984.36 1244.22 L1979.5 1244.22 L1976.36 1235.35 L1960.78 1235.35 L1957.63 1244.22 L1952.7 1244.22 L1965.89 1209.66 Z" fill="#000000" fill-rule="nonzero" fill-opacity="1" /><path clip-path="url(#clip500)" d="M2007.84 1231.28 Q2007.84 1226.58 2005.89 1223.91 Q2003.97 1221.23 2000.59 1221.23 Q1997.21 1221.23 1995.27 1223.91 Q1993.35 1226.58 1993.35 1231.28 Q1993.35 1235.97 1995.27 1238.66 Q1997.21 1241.32 2000.59 1241.32 Q2003.97 1241.32 2005.89 1238.66 Q2007.84 1235.97 2007.84 1231.28 M1993.35 1222.22 Q1994.69 1219.91 1996.73 1218.8 Q1998.79 1217.66 2001.63 1217.66 Q2006.36 1217.66 2009.29 1221.41 Q2012.26 1225.16 2012.26 1231.28 Q2012.26 1237.39 2009.29 1241.14 Q2006.36 1244.89 2001.63 1244.89 Q1998.79 1244.89 1996.73 1243.78 Q1994.69 1242.64 1993.35 1240.33 L1993.35 1244.22 L1989.06 1244.22 L1989.06 1208.2 L1993.35 1208.2 L1993.35 1222.22 Z" fill="#000000" fill-rule="nonzero" fill-opacity="1" /><path clip-path="url(#clip500)" d="M2019.32 1218.29 L2023.58 1218.29 L2023.58 1244.22 L2019.32 1244.22 L2019.32 1218.29 M2019.32 1208.2 L2023.58 1208.2 L2023.58 1213.59 L2019.32 1213.59 L2019.32 1208.2 Z" fill="#000000" fill-rule="nonzero" fill-opacity="1" /><path clip-path="url(#clip500)" d="M2032.49 1208.2 L2036.75 1208.2 L2036.75 1244.22 L2032.49 1244.22 L2032.49 1208.2 Z" fill="#000000" fill-rule="nonzero" fill-opacity="1" /><path clip-path="url(#clip500)" d="M2045.66 1218.29 L2049.92 1218.29 L2049.92 1244.22 L2045.66 1244.22 L2045.66 1218.29 M2045.66 1208.2 L2049.92 1208.2 L2049.92 1213.59 L2045.66 1213.59 L2045.66 1208.2 Z" fill="#000000" fill-rule="nonzero" fill-opacity="1" /><path clip-path="url(#clip500)" d="M2063.04 1210.93 L2063.04 1218.29 L2071.82 1218.29 L2071.82 1221.6 L2063.04 1221.6 L2063.04 1235.67 Q2063.04 1238.85 2063.9 1239.75 Q2064.78 1240.65 2067.44 1240.65 L2071.82 1240.65 L2071.82 1244.22 L2067.44 1244.22 Q2062.51 1244.22 2060.64 1242.39 Q2058.76 1240.53 2058.76 1235.67 L2058.76 1221.6 L2055.64 1221.6 L2055.64 1218.29 L2058.76 1218.29 L2058.76 1210.93 L2063.04 1210.93 Z" fill="#000000" fill-rule="nonzero" fill-opacity="1" /><path clip-path="url(#clip500)" d="M2088.21 1246.62 Q2086.4 1251.25 2084.69 1252.66 Q2082.97 1254.08 2080.1 1254.08 L2076.7 1254.08 L2076.7 1250.51 L2079.2 1250.51 Q2080.96 1250.51 2081.93 1249.68 Q2082.91 1248.84 2084.09 1245.74 L2084.85 1243.8 L2074.36 1218.29 L2078.88 1218.29 L2086.98 1238.57 L2095.08 1218.29 L2099.6 1218.29 L2088.21 1246.62 Z" fill="#000000" fill-rule="nonzero" fill-opacity="1" /><polyline clip-path="url(#clip502)" style="stroke:#000000; stroke-linecap:round; stroke-linejoin:round; stroke-width:2; stroke-opacity:0.1; fill:none" points="156.112,1151.86 2352.76,1151.86 "/>
<polyline clip-path="url(#clip502)" style="stroke:#000000; stroke-linecap:round; stroke-linejoin:round; stroke-width:2; stroke-opacity:0.1; fill:none" points="156.112,880.337 2352.76,880.337 "/>
<polyline clip-path="url(#clip502)" style="stroke:#000000; stroke-linecap:round; stroke-linejoin:round; stroke-width:2; stroke-opacity:0.1; fill:none" points="156.112,608.811 2352.76,608.811 "/>
<polyline clip-path="url(#clip502)" style="stroke:#000000; stroke-linecap:round; stroke-linejoin:round; stroke-width:2; stroke-opacity:0.1; fill:none" points="156.112,337.285 2352.76,337.285 "/>
<polyline clip-path="url(#clip500)" style="stroke:#000000; stroke-linecap:round; stroke-linejoin:round; stroke-width:4; stroke-opacity:1; fill:none" points="156.112,1181.82 156.112,123.472 "/>
<polyline clip-path="url(#clip500)" style="stroke:#000000; stroke-linecap:round; stroke-linejoin:round; stroke-width:4; stroke-opacity:1; fill:none" points="156.112,1151.86 175.01,1151.86 "/>
<polyline clip-path="url(#clip500)" style="stroke:#000000; stroke-linecap:round; stroke-linejoin:round; stroke-width:4; stroke-opacity:1; fill:none" points="156.112,880.337 175.01,880.337 "/>
<polyline clip-path="url(#clip500)" style="stroke:#000000; stroke-linecap:round; stroke-linejoin:round; stroke-width:4; stroke-opacity:1; fill:none" points="156.112,608.811 175.01,608.811 "/>
<polyline clip-path="url(#clip500)" style="stroke:#000000; stroke-linecap:round; stroke-linejoin:round; stroke-width:4; stroke-opacity:1; fill:none" points="156.112,337.285 175.01,337.285 "/>
<path clip-path="url(#clip500)" d="M62.9365 1137.66 Q59.3254 1137.66 57.4967 1141.23 Q55.6912 1144.77 55.6912 1151.9 Q55.6912 1159 57.4967 1162.57 Q59.3254 1166.11 62.9365 1166.11 Q66.5707 1166.11 68.3763 1162.57 Q70.205 1159 70.205 1151.9 Q70.205 1144.77 68.3763 1141.23 Q66.5707 1137.66 62.9365 1137.66 M62.9365 1133.96 Q68.7467 1133.96 71.8022 1138.56 Q74.8809 1143.15 74.8809 1151.9 Q74.8809 1160.62 71.8022 1165.23 Q68.7467 1169.81 62.9365 1169.81 Q57.1264 1169.81 54.0477 1165.23 Q50.9921 1160.62 50.9921 1151.9 Q50.9921 1143.15 54.0477 1138.56 Q57.1264 1133.96 62.9365 1133.96 Z" fill="#000000" fill-rule="nonzero" fill-opacity="1" /><path clip-path="url(#clip500)" d="M83.0984 1163.26 L87.9827 1163.26 L87.9827 1169.14 L83.0984 1169.14 L83.0984 1163.26 Z" fill="#000000" fill-rule="nonzero" fill-opacity="1" /><path clip-path="url(#clip500)" d="M108.168 1137.66 Q104.557 1137.66 102.728 1141.23 Q100.922 1144.77 100.922 1151.9 Q100.922 1159 102.728 1162.57 Q104.557 1166.11 108.168 1166.11 Q111.802 1166.11 113.608 1162.57 Q115.436 1159 115.436 1151.9 Q115.436 1144.77 113.608 1141.23 Q111.802 1137.66 108.168 1137.66 M108.168 1133.96 Q113.978 1133.96 117.033 1138.56 Q120.112 1143.15 120.112 1151.9 Q120.112 1160.62 117.033 1165.23 Q113.978 1169.81 108.168 1169.81 Q102.358 1169.81 99.2789 1165.23 Q96.2234 1160.62 96.2234 1151.9 Q96.2234 1143.15 99.2789 1138.56 Q102.358 1133.96 108.168 1133.96 Z" fill="#000000" fill-rule="nonzero" fill-opacity="1" /><path clip-path="url(#clip500)" d="M64.1634 866.135 Q60.5523 866.135 58.7236 869.7 Q56.918 873.242 56.918 880.371 Q56.918 887.478 58.7236 891.043 Q60.5523 894.584 64.1634 894.584 Q67.7976 894.584 69.6031 891.043 Q71.4318 887.478 71.4318 880.371 Q71.4318 873.242 69.6031 869.7 Q67.7976 866.135 64.1634 866.135 M64.1634 862.432 Q69.9735 862.432 73.029 867.038 Q76.1077 871.621 76.1077 880.371 Q76.1077 889.098 73.029 893.705 Q69.9735 898.288 64.1634 898.288 Q58.3532 898.288 55.2745 893.705 Q52.219 889.098 52.219 880.371 Q52.219 871.621 55.2745 867.038 Q58.3532 862.432 64.1634 862.432 Z" fill="#000000" fill-rule="nonzero" fill-opacity="1" /><path clip-path="url(#clip500)" d="M84.3253 891.737 L89.2095 891.737 L89.2095 897.617 L84.3253 897.617 L84.3253 891.737 Z" fill="#000000" fill-rule="nonzero" fill-opacity="1" /><path clip-path="url(#clip500)" d="M100.205 893.681 L107.844 893.681 L107.844 867.316 L99.5335 868.983 L99.5335 864.723 L107.797 863.057 L112.473 863.057 L112.473 893.681 L120.112 893.681 L120.112 897.617 L100.205 897.617 L100.205 893.681 Z" fill="#000000" fill-rule="nonzero" fill-opacity="1" /><path clip-path="url(#clip500)" d="M64.5337 594.61 Q60.9226 594.61 59.0939 598.174 Q57.2884 601.716 57.2884 608.846 Q57.2884 615.952 59.0939 619.517 Q60.9226 623.059 64.5337 623.059 Q68.168 623.059 69.9735 619.517 Q71.8022 615.952 71.8022 608.846 Q71.8022 601.716 69.9735 598.174 Q68.168 594.61 64.5337 594.61 M64.5337 590.906 Q70.3439 590.906 73.3994 595.512 Q76.4781 600.096 76.4781 608.846 Q76.4781 617.573 73.3994 622.179 Q70.3439 626.762 64.5337 626.762 Q58.7236 626.762 55.6449 622.179 Q52.5893 617.573 52.5893 608.846 Q52.5893 600.096 55.6449 595.512 Q58.7236 590.906 64.5337 590.906 Z" fill="#000000" fill-rule="nonzero" fill-opacity="1" /><path clip-path="url(#clip500)" d="M84.6956 620.211 L89.5799 620.211 L89.5799 626.091 L84.6956 626.091 L84.6956 620.211 Z" fill="#000000" fill-rule="nonzero" fill-opacity="1" /><path clip-path="url(#clip500)" d="M103.793 622.156 L120.112 622.156 L120.112 626.091 L98.1678 626.091 L98.1678 622.156 Q100.83 619.401 105.413 614.772 Q110.02 610.119 111.2 608.776 Q113.445 606.253 114.325 604.517 Q115.228 602.758 115.228 601.068 Q115.228 598.313 113.283 596.577 Q111.362 594.841 108.26 594.841 Q106.061 594.841 103.608 595.605 Q101.177 596.369 98.3993 597.92 L98.3993 593.198 Q101.223 592.063 103.677 591.485 Q106.131 590.906 108.168 590.906 Q113.538 590.906 116.733 593.591 Q119.927 596.276 119.927 600.767 Q119.927 602.897 119.117 604.818 Q118.33 606.716 116.223 609.309 Q115.645 609.98 112.543 613.198 Q109.441 616.392 103.793 622.156 Z" fill="#000000" fill-rule="nonzero" fill-opacity="1" /><path clip-path="url(#clip500)" d="M63.5847 323.084 Q59.9736 323.084 58.1449 326.649 Q56.3393 330.191 56.3393 337.32 Q56.3393 344.427 58.1449 347.991 Q59.9736 351.533 63.5847 351.533 Q67.2189 351.533 69.0244 347.991 Q70.8531 344.427 70.8531 337.32 Q70.8531 330.191 69.0244 326.649 Q67.2189 323.084 63.5847 323.084 M63.5847 319.38 Q69.3948 319.38 72.4503 323.987 Q75.529 328.57 75.529 337.32 Q75.529 346.047 72.4503 350.653 Q69.3948 355.237 63.5847 355.237 Q57.7745 355.237 54.6958 350.653 Q51.6403 346.047 51.6403 337.32 Q51.6403 328.57 54.6958 323.987 Q57.7745 319.38 63.5847 319.38 Z" fill="#000000" fill-rule="nonzero" fill-opacity="1" /><path clip-path="url(#clip500)" d="M83.7466 348.686 L88.6308 348.686 L88.6308 354.565 L83.7466 354.565 L83.7466 348.686 Z" fill="#000000" fill-rule="nonzero" fill-opacity="1" /><path clip-path="url(#clip500)" d="M112.983 335.931 Q116.339 336.649 118.214 338.917 Q120.112 341.186 120.112 344.519 Q120.112 349.635 116.594 352.436 Q113.075 355.237 106.594 355.237 Q104.418 355.237 102.103 354.797 Q99.8113 354.38 97.3576 353.524 L97.3576 349.01 Q99.3021 350.144 101.617 350.723 Q103.932 351.302 106.455 351.302 Q110.853 351.302 113.145 349.565 Q115.459 347.829 115.459 344.519 Q115.459 341.464 113.307 339.751 Q111.177 338.015 107.358 338.015 L103.33 338.015 L103.33 334.172 L107.543 334.172 Q110.992 334.172 112.82 332.806 Q114.649 331.417 114.649 328.825 Q114.649 326.163 112.751 324.751 Q110.876 323.316 107.358 323.316 Q105.436 323.316 103.237 323.732 Q101.038 324.149 98.3993 325.029 L98.3993 320.862 Q101.061 320.121 103.376 319.751 Q105.714 319.38 107.774 319.38 Q113.098 319.38 116.2 321.811 Q119.302 324.218 119.302 328.339 Q119.302 331.209 117.658 333.2 Q116.015 335.167 112.983 335.931 Z" fill="#000000" fill-rule="nonzero" fill-opacity="1" /><path clip-path="url(#clip500)" d="M475.749 12.096 L526.912 12.096 L526.912 18.9825 L505.442 18.9825 L505.442 72.576 L497.219 72.576 L497.219 18.9825 L475.749 18.9825 L475.749 12.096 Z" fill="#000000" fill-rule="nonzero" fill-opacity="1" /><path clip-path="url(#clip500)" d="M572.201 45.1919 L572.201 72.576 L564.747 72.576 L564.747 45.4349 Q564.747 38.994 562.236 35.7938 Q559.724 32.5936 554.701 32.5936 Q548.665 32.5936 545.181 36.4419 Q541.698 40.2903 541.698 46.9338 L541.698 72.576 L534.204 72.576 L534.204 9.54393 L541.698 9.54393 L541.698 34.2544 Q544.371 30.163 547.977 28.1376 Q551.622 26.1121 556.362 26.1121 Q564.18 26.1121 568.191 30.9732 Q572.201 35.7938 572.201 45.1919 Z" fill="#000000" fill-rule="nonzero" fill-opacity="1" /><path clip-path="url(#clip500)" d="M625.875 48.0275 L625.875 51.6733 L591.605 51.6733 Q592.091 59.3701 596.223 63.421 Q600.395 67.4314 607.808 67.4314 Q612.102 67.4314 616.113 66.3781 Q620.164 65.3249 624.134 63.2184 L624.134 70.267 Q620.123 71.9684 615.91 72.8596 Q611.697 73.7508 607.363 73.7508 Q596.506 73.7508 590.146 67.4314 Q583.827 61.1119 583.827 50.3365 Q583.827 39.1965 589.822 32.6746 Q595.858 26.1121 606.067 26.1121 Q615.222 26.1121 620.528 32.0264 Q625.875 37.9003 625.875 48.0275 M618.422 45.84 Q618.341 39.7232 614.979 36.0774 Q611.657 32.4315 606.148 32.4315 Q599.909 32.4315 596.142 35.9558 Q592.415 39.4801 591.848 45.8805 L618.422 45.84 Z" fill="#000000" fill-rule="nonzero" fill-opacity="1" /><path clip-path="url(#clip500)" d="M638.109 27.2059 L645.563 27.2059 L645.563 72.576 L638.109 72.576 L638.109 27.2059 M638.109 9.54393 L645.563 9.54393 L645.563 18.9825 L638.109 18.9825 L638.109 9.54393 Z" fill="#000000" fill-rule="nonzero" fill-opacity="1" /><path clip-path="url(#clip500)" d="M661.159 9.54393 L668.613 9.54393 L668.613 72.576 L661.159 72.576 L661.159 9.54393 Z" fill="#000000" fill-rule="nonzero" fill-opacity="1" /><path clip-path="url(#clip500)" d="M710.58 27.2059 L718.034 27.2059 L718.034 72.576 L710.58 72.576 L710.58 27.2059 M710.58 9.54393 L718.034 9.54393 L718.034 18.9825 L710.58 18.9825 L710.58 9.54393 Z" fill="#000000" fill-rule="nonzero" fill-opacity="1" /><path clip-path="url(#clip500)" d="M771.343 45.1919 L771.343 72.576 L763.89 72.576 L763.89 45.4349 Q763.89 38.994 761.378 35.7938 Q758.867 32.5936 753.844 32.5936 Q747.808 32.5936 744.324 36.4419 Q740.84 40.2903 740.84 46.9338 L740.84 72.576 L733.346 72.576 L733.346 27.2059 L740.84 27.2059 L740.84 34.2544 Q743.514 30.163 747.119 28.1376 Q750.765 26.1121 755.504 26.1121 Q763.323 26.1121 767.333 30.9732 Q771.343 35.7938 771.343 45.1919 Z" fill="#000000" fill-rule="nonzero" fill-opacity="1" /><path clip-path="url(#clip500)" d="M825.018 48.0275 L825.018 51.6733 L790.747 51.6733 Q791.233 59.3701 795.365 63.421 Q799.538 67.4314 806.951 67.4314 Q811.245 67.4314 815.255 66.3781 Q819.306 65.3249 823.276 63.2184 L823.276 70.267 Q819.266 71.9684 815.053 72.8596 Q810.84 73.7508 806.505 73.7508 Q795.649 73.7508 789.289 67.4314 Q782.97 61.1119 782.97 50.3365 Q782.97 39.1965 788.965 32.6746 Q795.001 26.1121 805.209 26.1121 Q814.364 26.1121 819.671 32.0264 Q825.018 37.9003 825.018 48.0275 M817.564 45.84 Q817.483 39.7232 814.121 36.0774 Q810.799 32.4315 805.29 32.4315 Q799.052 32.4315 795.284 35.9558 Q791.557 39.4801 790.99 45.8805 L817.564 45.84 Z" fill="#000000" fill-rule="nonzero" fill-opacity="1" /><path clip-path="url(#clip500)" d="M841.708 49.9314 Q841.708 58.1548 845.07 62.8538 Q848.473 67.5124 854.387 67.5124 Q860.301 67.5124 863.704 62.8538 Q867.107 58.1548 867.107 49.9314 Q867.107 41.7081 863.704 37.0496 Q860.301 32.3505 854.387 32.3505 Q848.473 32.3505 845.07 37.0496 Q841.708 41.7081 841.708 49.9314 M867.107 65.7705 Q864.757 69.8214 861.152 71.8063 Q857.587 73.7508 852.564 73.7508 Q844.341 73.7508 839.156 67.1883 Q834.011 60.6258 834.011 49.9314 Q834.011 39.2371 839.156 32.6746 Q844.341 26.1121 852.564 26.1121 Q857.587 26.1121 861.152 28.0971 Q864.757 30.0415 867.107 34.0924 L867.107 27.2059 L874.56 27.2059 L874.56 89.8329 L867.107 89.8329 L867.107 65.7705 Z" fill="#000000" fill-rule="nonzero" fill-opacity="1" /><path clip-path="url(#clip500)" d="M889.144 54.671 L889.144 27.2059 L896.597 27.2059 L896.597 54.3874 Q896.597 60.8284 899.109 64.0691 Q901.621 67.2693 906.644 67.2693 Q912.679 67.2693 916.163 63.421 Q919.688 59.5726 919.688 52.9291 L919.688 27.2059 L927.141 27.2059 L927.141 72.576 L919.688 72.576 L919.688 65.6084 Q916.973 69.7404 913.368 71.7658 Q909.803 73.7508 905.064 73.7508 Q897.246 73.7508 893.195 68.8897 Q889.144 64.0286 889.144 54.671 M907.899 26.1121 L907.899 26.1121 Z" fill="#000000" fill-rule="nonzero" fill-opacity="1" /><path clip-path="url(#clip500)" d="M963.113 49.7694 Q954.08 49.7694 950.596 51.8354 Q947.112 53.9013 947.112 58.8839 Q947.112 62.8538 949.705 65.2034 Q952.338 67.5124 956.834 67.5124 Q963.032 67.5124 966.759 63.1374 Q970.526 58.7219 970.526 51.4303 L970.526 49.7694 L963.113 49.7694 M977.98 46.6907 L977.98 72.576 L970.526 72.576 L970.526 65.6895 Q967.974 69.8214 964.166 71.8063 Q960.359 73.7508 954.849 73.7508 Q947.882 73.7508 943.75 69.8619 Q939.659 65.9325 939.659 59.3701 Q939.659 51.7138 944.763 47.825 Q949.907 43.9361 960.075 43.9361 L970.526 43.9361 L970.526 43.2069 Q970.526 38.0623 967.124 35.2672 Q963.761 32.4315 957.645 32.4315 Q953.756 32.4315 950.069 33.3632 Q946.383 34.295 942.98 36.1584 L942.98 29.2718 Q947.072 27.692 950.92 26.9223 Q954.768 26.1121 958.414 26.1121 Q968.258 26.1121 973.119 31.2163 Q977.98 36.3204 977.98 46.6907 Z" fill="#000000" fill-rule="nonzero" fill-opacity="1" /><path clip-path="url(#clip500)" d="M993.333 9.54393 L1000.79 9.54393 L1000.79 72.576 L993.333 72.576 L993.333 9.54393 Z" fill="#000000" fill-rule="nonzero" fill-opacity="1" /><path clip-path="url(#clip500)" d="M1016.38 27.2059 L1023.84 27.2059 L1023.84 72.576 L1016.38 72.576 L1016.38 27.2059 M1016.38 9.54393 L1023.84 9.54393 L1023.84 18.9825 L1016.38 18.9825 L1016.38 9.54393 Z" fill="#000000" fill-rule="nonzero" fill-opacity="1" /><path clip-path="url(#clip500)" d="M1046.8 14.324 L1046.8 27.2059 L1062.16 27.2059 L1062.16 32.9987 L1046.8 32.9987 L1046.8 57.6282 Q1046.8 63.1779 1048.3 64.7578 Q1049.84 66.3376 1054.5 66.3376 L1062.16 66.3376 L1062.16 72.576 L1054.5 72.576 Q1045.87 72.576 1042.59 69.3758 Q1039.31 66.1351 1039.31 57.6282 L1039.31 32.9987 L1033.84 32.9987 L1033.84 27.2059 L1039.31 27.2059 L1039.31 14.324 L1046.8 14.324 Z" fill="#000000" fill-rule="nonzero" fill-opacity="1" /><path clip-path="url(#clip500)" d="M1090.84 76.7889 Q1087.68 84.8907 1084.68 87.3618 Q1081.68 89.8329 1076.66 89.8329 L1070.71 89.8329 L1070.71 83.5945 L1075.08 83.5945 Q1078.16 83.5945 1079.86 82.1361 Q1081.56 80.6778 1083.63 75.2496 L1084.96 71.8468 L1066.61 27.2059 L1074.51 27.2059 L1088.69 62.6918 L1102.87 27.2059 L1110.77 27.2059 L1090.84 76.7889 Z" fill="#000000" fill-rule="nonzero" fill-opacity="1" /><path clip-path="url(#clip500)" d="M1147.43 27.2059 L1154.88 27.2059 L1154.88 72.576 L1147.43 72.576 L1147.43 27.2059 M1147.43 9.54393 L1154.88 9.54393 L1154.88 18.9825 L1147.43 18.9825 L1147.43 9.54393 Z" fill="#000000" fill-rule="nonzero" fill-opacity="1" /><path clip-path="url(#clip500)" d="M1208.19 45.1919 L1208.19 72.576 L1200.74 72.576 L1200.74 45.4349 Q1200.74 38.994 1198.23 35.7938 Q1195.72 32.5936 1190.69 32.5936 Q1184.66 32.5936 1181.17 36.4419 Q1177.69 40.2903 1177.69 46.9338 L1177.69 72.576 L1170.2 72.576 L1170.2 27.2059 L1177.69 27.2059 L1177.69 34.2544 Q1180.36 30.163 1183.97 28.1376 Q1187.61 26.1121 1192.35 26.1121 Q1200.17 26.1121 1204.18 30.9732 Q1208.19 35.7938 1208.19 45.1919 Z" fill="#000000" fill-rule="nonzero" fill-opacity="1" /><path clip-path="url(#clip500)" d="M1252.91 34.0924 L1252.91 9.54393 L1260.37 9.54393 L1260.37 72.576 L1252.91 72.576 L1252.91 65.7705 Q1250.57 69.8214 1246.96 71.8063 Q1243.4 73.7508 1238.37 73.7508 Q1230.15 73.7508 1224.96 67.1883 Q1219.82 60.6258 1219.82 49.9314 Q1219.82 39.2371 1224.96 32.6746 Q1230.15 26.1121 1238.37 26.1121 Q1243.4 26.1121 1246.96 28.0971 Q1250.57 30.0415 1252.91 34.0924 M1227.52 49.9314 Q1227.52 58.1548 1230.88 62.8538 Q1234.28 67.5124 1240.2 67.5124 Q1246.11 67.5124 1249.51 62.8538 Q1252.91 58.1548 1252.91 49.9314 Q1252.91 41.7081 1249.51 37.0496 Q1246.11 32.3505 1240.2 32.3505 Q1234.28 32.3505 1230.88 37.0496 Q1227.52 41.7081 1227.52 49.9314 Z" fill="#000000" fill-rule="nonzero" fill-opacity="1" /><path clip-path="url(#clip500)" d="M1314.53 48.0275 L1314.53 51.6733 L1280.26 51.6733 Q1280.74 59.3701 1284.88 63.421 Q1289.05 67.4314 1296.46 67.4314 Q1300.76 67.4314 1304.77 66.3781 Q1308.82 65.3249 1312.79 63.2184 L1312.79 70.267 Q1308.78 71.9684 1304.56 72.8596 Q1300.35 73.7508 1296.02 73.7508 Q1285.16 73.7508 1278.8 67.4314 Q1272.48 61.1119 1272.48 50.3365 Q1272.48 39.1965 1278.48 32.6746 Q1284.51 26.1121 1294.72 26.1121 Q1303.88 26.1121 1309.18 32.0264 Q1314.53 37.9003 1314.53 48.0275 M1307.08 45.84 Q1306.99 39.7232 1303.63 36.0774 Q1300.31 32.4315 1294.8 32.4315 Q1288.56 32.4315 1284.8 35.9558 Q1281.07 39.4801 1280.5 45.8805 L1307.08 45.84 Z" fill="#000000" fill-rule="nonzero" fill-opacity="1" /><path clip-path="url(#clip500)" d="M1363.02 27.2059 L1346.61 49.2833 L1363.87 72.576 L1355.08 72.576 L1341.87 54.752 L1328.67 72.576 L1319.88 72.576 L1337.5 48.8377 L1321.38 27.2059 L1330.17 27.2059 L1342.2 43.369 L1354.23 27.2059 L1363.02 27.2059 Z" fill="#000000" fill-rule="nonzero" fill-opacity="1" /><path clip-path="url(#clip500)" d="M1376.31 62.2867 L1384.85 62.2867 L1384.85 69.2543 L1378.21 82.2172 L1372.98 82.2172 L1376.31 69.2543 L1376.31 62.2867 Z" fill="#000000" fill-rule="nonzero" fill-opacity="1" /><path clip-path="url(#clip500)" d="M1457 34.0924 L1457 9.54393 L1464.45 9.54393 L1464.45 72.576 L1457 72.576 L1457 65.7705 Q1454.65 69.8214 1451.04 71.8063 Q1447.48 73.7508 1442.46 73.7508 Q1434.23 73.7508 1429.05 67.1883 Q1423.9 60.6258 1423.9 49.9314 Q1423.9 39.2371 1429.05 32.6746 Q1434.23 26.1121 1442.46 26.1121 Q1447.48 26.1121 1451.04 28.0971 Q1454.65 30.0415 1457 34.0924 M1431.6 49.9314 Q1431.6 58.1548 1434.96 62.8538 Q1438.37 67.5124 1444.28 67.5124 Q1450.19 67.5124 1453.6 62.8538 Q1457 58.1548 1457 49.9314 Q1457 41.7081 1453.6 37.0496 Q1450.19 32.3505 1444.28 32.3505 Q1438.37 32.3505 1434.96 37.0496 Q1431.6 41.7081 1431.6 49.9314 Z" fill="#000000" fill-rule="nonzero" fill-opacity="1" /><path clip-path="url(#clip500)" d="M1479.81 27.2059 L1487.26 27.2059 L1487.26 72.576 L1479.81 72.576 L1479.81 27.2059 M1479.81 9.54393 L1487.26 9.54393 L1487.26 18.9825 L1479.81 18.9825 L1479.81 9.54393 Z" fill="#000000" fill-rule="nonzero" fill-opacity="1" /><path clip-path="url(#clip500)" d="M1531.78 28.5427 L1531.78 35.5912 Q1528.62 33.9709 1525.22 33.1607 Q1521.81 32.3505 1518.17 32.3505 Q1512.62 32.3505 1509.82 34.0519 Q1507.07 35.7533 1507.07 39.156 Q1507.07 41.7486 1509.05 43.2475 Q1511.04 44.7058 1517.03 46.0426 L1519.59 46.6097 Q1527.53 48.3111 1530.85 51.4303 Q1534.21 54.509 1534.21 60.0587 Q1534.21 66.3781 1529.19 70.0644 Q1524.2 73.7508 1515.45 73.7508 Q1511.81 73.7508 1507.84 73.0216 Q1503.91 72.3329 1499.53 70.9151 L1499.53 63.2184 Q1503.67 65.3654 1507.68 66.4591 Q1511.69 67.5124 1515.62 67.5124 Q1520.88 67.5124 1523.72 65.73 Q1526.55 63.9071 1526.55 60.6258 Q1526.55 57.5877 1524.49 55.9673 Q1522.46 54.3469 1515.54 52.8481 L1512.94 52.2405 Q1506.02 50.7821 1502.94 47.7845 Q1499.86 44.7463 1499.86 39.4801 Q1499.86 33.0797 1504.4 29.5959 Q1508.93 26.1121 1517.28 26.1121 Q1521.41 26.1121 1525.05 26.7198 Q1528.7 27.3274 1531.78 28.5427 Z" fill="#000000" fill-rule="nonzero" fill-opacity="1" /><path clip-path="url(#clip500)" d="M1566.7 49.7694 Q1557.66 49.7694 1554.18 51.8354 Q1550.7 53.9013 1550.7 58.8839 Q1550.7 62.8538 1553.29 65.2034 Q1555.92 67.5124 1560.42 67.5124 Q1566.62 67.5124 1570.34 63.1374 Q1574.11 58.7219 1574.11 51.4303 L1574.11 49.7694 L1566.7 49.7694 M1581.56 46.6907 L1581.56 72.576 L1574.11 72.576 L1574.11 65.6895 Q1571.56 69.8214 1567.75 71.8063 Q1563.94 73.7508 1558.43 73.7508 Q1551.47 73.7508 1547.33 69.8619 Q1543.24 65.9325 1543.24 59.3701 Q1543.24 51.7138 1548.35 47.825 Q1553.49 43.9361 1563.66 43.9361 L1574.11 43.9361 L1574.11 43.2069 Q1574.11 38.0623 1570.71 35.2672 Q1567.35 32.4315 1561.23 32.4315 Q1557.34 32.4315 1553.65 33.3632 Q1549.97 34.295 1546.56 36.1584 L1546.56 29.2718 Q1550.66 27.692 1554.5 26.9223 Q1558.35 26.1121 1562 26.1121 Q1571.84 26.1121 1576.7 31.2163 Q1581.56 36.3204 1581.56 46.6907 Z" fill="#000000" fill-rule="nonzero" fill-opacity="1" /><path clip-path="url(#clip500)" d="M1626.77 49.3643 Q1626.77 41.2625 1623.41 36.8065 Q1620.09 32.3505 1614.05 32.3505 Q1608.06 32.3505 1604.7 36.8065 Q1601.37 41.2625 1601.37 49.3643 Q1601.37 57.4256 1604.7 61.8816 Q1608.06 66.3376 1614.05 66.3376 Q1620.09 66.3376 1623.41 61.8816 Q1626.77 57.4256 1626.77 49.3643 M1634.23 66.9452 Q1634.23 78.5308 1629.08 84.1616 Q1623.94 89.8329 1613.32 89.8329 Q1609.39 89.8329 1605.91 89.2252 Q1602.43 88.6581 1599.15 87.4428 L1599.15 80.1917 Q1602.43 81.9741 1605.63 82.8248 Q1608.83 83.6755 1612.15 83.6755 Q1619.48 83.6755 1623.13 79.8271 Q1626.77 76.0193 1626.77 68.282 L1626.77 64.5957 Q1624.46 68.6061 1620.86 70.5911 Q1617.25 72.576 1612.23 72.576 Q1603.89 72.576 1598.78 66.2161 Q1593.68 59.8562 1593.68 49.3643 Q1593.68 38.832 1598.78 32.472 Q1603.89 26.1121 1612.23 26.1121 Q1617.25 26.1121 1620.86 28.0971 Q1624.46 30.082 1626.77 34.0924 L1626.77 27.2059 L1634.23 27.2059 L1634.23 66.9452 Z" fill="#000000" fill-rule="nonzero" fill-opacity="1" /><path clip-path="url(#clip500)" d="M1679.43 49.3643 Q1679.43 41.2625 1676.07 36.8065 Q1672.75 32.3505 1666.71 32.3505 Q1660.72 32.3505 1657.36 36.8065 Q1654.04 41.2625 1654.04 49.3643 Q1654.04 57.4256 1657.36 61.8816 Q1660.72 66.3376 1666.71 66.3376 Q1672.75 66.3376 1676.07 61.8816 Q1679.43 57.4256 1679.43 49.3643 M1686.89 66.9452 Q1686.89 78.5308 1681.74 84.1616 Q1676.6 89.8329 1665.99 89.8329 Q1662.06 89.8329 1658.57 89.2252 Q1655.09 88.6581 1651.81 87.4428 L1651.81 80.1917 Q1655.09 81.9741 1658.29 82.8248 Q1661.49 83.6755 1664.81 83.6755 Q1672.14 83.6755 1675.79 79.8271 Q1679.43 76.0193 1679.43 68.282 L1679.43 64.5957 Q1677.13 68.6061 1673.52 70.5911 Q1669.92 72.576 1664.89 72.576 Q1656.55 72.576 1651.44 66.2161 Q1646.34 59.8562 1646.34 49.3643 Q1646.34 38.832 1651.44 32.472 Q1656.55 26.1121 1664.89 26.1121 Q1669.92 26.1121 1673.52 28.0971 Q1677.13 30.082 1679.43 34.0924 L1679.43 27.2059 L1686.89 27.2059 L1686.89 66.9452 Z" fill="#000000" fill-rule="nonzero" fill-opacity="1" /><path clip-path="url(#clip500)" d="M1728.53 34.1734 Q1727.28 33.4443 1725.78 33.1202 Q1724.32 32.7556 1722.54 32.7556 Q1716.22 32.7556 1712.81 36.8875 Q1709.45 40.9789 1709.45 48.6757 L1709.45 72.576 L1701.96 72.576 L1701.96 27.2059 L1709.45 27.2059 L1709.45 34.2544 Q1711.8 30.1225 1715.57 28.1376 Q1719.34 26.1121 1724.72 26.1121 Q1725.49 26.1121 1726.43 26.2337 Q1727.36 26.3147 1728.49 26.5172 L1728.53 34.1734 Z" fill="#000000" fill-rule="nonzero" fill-opacity="1" /><path clip-path="url(#clip500)" d="M1773.33 48.0275 L1773.33 51.6733 L1739.06 51.6733 Q1739.55 59.3701 1743.68 63.421 Q1747.85 67.4314 1755.27 67.4314 Q1759.56 67.4314 1763.57 66.3781 Q1767.62 65.3249 1771.59 63.2184 L1771.59 70.267 Q1767.58 71.9684 1763.37 72.8596 Q1759.16 73.7508 1754.82 73.7508 Q1743.97 73.7508 1737.61 67.4314 Q1731.29 61.1119 1731.29 50.3365 Q1731.29 39.1965 1737.28 32.6746 Q1743.32 26.1121 1753.53 26.1121 Q1762.68 26.1121 1767.99 32.0264 Q1773.33 37.9003 1773.33 48.0275 M1765.88 45.84 Q1765.8 39.7232 1762.44 36.0774 Q1759.12 32.4315 1753.61 32.4315 Q1747.37 32.4315 1743.6 35.9558 Q1739.87 39.4801 1739.31 45.8805 L1765.88 45.84 Z" fill="#000000" fill-rule="nonzero" fill-opacity="1" /><path clip-path="url(#clip500)" d="M1815.42 49.3643 Q1815.42 41.2625 1812.06 36.8065 Q1808.74 32.3505 1802.7 32.3505 Q1796.71 32.3505 1793.35 36.8065 Q1790.02 41.2625 1790.02 49.3643 Q1790.02 57.4256 1793.35 61.8816 Q1796.71 66.3376 1802.7 66.3376 Q1808.74 66.3376 1812.06 61.8816 Q1815.42 57.4256 1815.42 49.3643 M1822.88 66.9452 Q1822.88 78.5308 1817.73 84.1616 Q1812.59 89.8329 1801.97 89.8329 Q1798.05 89.8329 1794.56 89.2252 Q1791.08 88.6581 1787.8 87.4428 L1787.8 80.1917 Q1791.08 81.9741 1794.28 82.8248 Q1797.48 83.6755 1800.8 83.6755 Q1808.13 83.6755 1811.78 79.8271 Q1815.42 76.0193 1815.42 68.282 L1815.42 64.5957 Q1813.11 68.6061 1809.51 70.5911 Q1805.9 72.576 1800.88 72.576 Q1792.54 72.576 1787.43 66.2161 Q1782.33 59.8562 1782.33 49.3643 Q1782.33 38.832 1787.43 32.472 Q1792.54 26.1121 1800.88 26.1121 Q1805.9 26.1121 1809.51 28.0971 Q1813.11 30.082 1815.42 34.0924 L1815.42 27.2059 L1822.88 27.2059 L1822.88 66.9452 Z" fill="#000000" fill-rule="nonzero" fill-opacity="1" /><path clip-path="url(#clip500)" d="M1858.85 49.7694 Q1849.82 49.7694 1846.33 51.8354 Q1842.85 53.9013 1842.85 58.8839 Q1842.85 62.8538 1845.44 65.2034 Q1848.07 67.5124 1852.57 67.5124 Q1858.77 67.5124 1862.49 63.1374 Q1866.26 58.7219 1866.26 51.4303 L1866.26 49.7694 L1858.85 49.7694 M1873.72 46.6907 L1873.72 72.576 L1866.26 72.576 L1866.26 65.6895 Q1863.71 69.8214 1859.9 71.8063 Q1856.09 73.7508 1850.59 73.7508 Q1843.62 73.7508 1839.49 69.8619 Q1835.39 65.9325 1835.39 59.3701 Q1835.39 51.7138 1840.5 47.825 Q1845.64 43.9361 1855.81 43.9361 L1866.26 43.9361 L1866.26 43.2069 Q1866.26 38.0623 1862.86 35.2672 Q1859.5 32.4315 1853.38 32.4315 Q1849.49 32.4315 1845.81 33.3632 Q1842.12 34.295 1838.72 36.1584 L1838.72 29.2718 Q1842.81 27.692 1846.66 26.9223 Q1850.5 26.1121 1854.15 26.1121 Q1863.99 26.1121 1868.85 31.2163 Q1873.72 36.3204 1873.72 46.6907 Z" fill="#000000" fill-rule="nonzero" fill-opacity="1" /><path clip-path="url(#clip500)" d="M1896.44 14.324 L1896.44 27.2059 L1911.79 27.2059 L1911.79 32.9987 L1896.44 32.9987 L1896.44 57.6282 Q1896.44 63.1779 1897.94 64.7578 Q1899.48 66.3376 1904.14 66.3376 L1911.79 66.3376 L1911.79 72.576 L1904.14 72.576 Q1895.51 72.576 1892.23 69.3758 Q1888.95 66.1351 1888.95 57.6282 L1888.95 32.9987 L1883.48 32.9987 L1883.48 27.2059 L1888.95 27.2059 L1888.95 14.324 L1896.44 14.324 Z" fill="#000000" fill-rule="nonzero" fill-opacity="1" /><path clip-path="url(#clip500)" d="M1921.6 27.2059 L1929.05 27.2059 L1929.05 72.576 L1921.6 72.576 L1921.6 27.2059 M1921.6 9.54393 L1929.05 9.54393 L1929.05 18.9825 L1921.6 18.9825 L1921.6 9.54393 Z" fill="#000000" fill-rule="nonzero" fill-opacity="1" /><path clip-path="url(#clip500)" d="M1962.23 32.4315 Q1956.23 32.4315 1952.75 37.1306 Q1949.27 41.7891 1949.27 49.9314 Q1949.27 58.0738 1952.71 62.7728 Q1956.19 67.4314 1962.23 67.4314 Q1968.18 67.4314 1971.67 62.7323 Q1975.15 58.0333 1975.15 49.9314 Q1975.15 41.8701 1971.67 37.1711 Q1968.18 32.4315 1962.23 32.4315 M1962.23 26.1121 Q1971.95 26.1121 1977.5 32.4315 Q1983.05 38.7509 1983.05 49.9314 Q1983.05 61.0714 1977.5 67.4314 Q1971.95 73.7508 1962.23 73.7508 Q1952.47 73.7508 1946.92 67.4314 Q1941.41 61.0714 1941.41 49.9314 Q1941.41 38.7509 1946.92 32.4315 Q1952.47 26.1121 1962.23 26.1121 Z" fill="#000000" fill-rule="nonzero" fill-opacity="1" /><path clip-path="url(#clip500)" d="M2033.12 45.1919 L2033.12 72.576 L2025.67 72.576 L2025.67 45.4349 Q2025.67 38.994 2023.15 35.7938 Q2020.64 32.5936 2015.62 32.5936 Q2009.58 32.5936 2006.1 36.4419 Q2002.62 40.2903 2002.62 46.9338 L2002.62 72.576 L1995.12 72.576 L1995.12 27.2059 L2002.62 27.2059 L2002.62 34.2544 Q2005.29 30.163 2008.89 28.1376 Q2012.54 26.1121 2017.28 26.1121 Q2025.1 26.1121 2029.11 30.9732 Q2033.12 35.7938 2033.12 45.1919 Z" fill="#000000" fill-rule="nonzero" fill-opacity="1" /><path clip-path="url(#clip502)" d="M276.931 654.222 L276.931 937.143 L688.511 937.143 L688.511 654.222 L276.931 654.222 L276.931 654.222  Z" fill="#ffa500" fill-rule="evenodd" fill-opacity="1"/>
<polyline clip-path="url(#clip502)" style="stroke:#000000; stroke-linecap:round; stroke-linejoin:round; stroke-width:4; stroke-opacity:1; fill:none" points="276.931,654.222 276.931,937.143 688.511,937.143 688.511,654.222 276.931,654.222 "/>
<path clip-path="url(#clip502)" d="M791.406 480.039 L791.406 562.632 L1202.99 562.632 L1202.99 480.039 L791.406 480.039 L791.406 480.039  Z" fill="#ffa500" fill-rule="evenodd" fill-opacity="1"/>
<polyline clip-path="url(#clip502)" style="stroke:#000000; stroke-linecap:round; stroke-linejoin:round; stroke-width:4; stroke-opacity:1; fill:none" points="791.406,480.039 791.406,562.632 1202.99,562.632 1202.99,480.039 791.406,480.039 "/>
<path clip-path="url(#clip502)" d="M1305.88 927.965 L1305.88 936.949 L1717.46 936.949 L1717.46 927.965 L1305.88 927.965 L1305.88 927.965  Z" fill="#ffa500" fill-rule="evenodd" fill-opacity="1"/>
<polyline clip-path="url(#clip502)" style="stroke:#000000; stroke-linecap:round; stroke-linejoin:round; stroke-width:4; stroke-opacity:1; fill:none" points="1305.88,927.965 1305.88,936.949 1717.46,936.949 1717.46,927.965 1305.88,927.965 "/>
<path clip-path="url(#clip502)" d="M1820.36 153.425 L1820.36 292.101 L2231.94 292.101 L2231.94 153.425 L1820.36 153.425 L1820.36 153.425  Z" fill="#ffa500" fill-rule="evenodd" fill-opacity="1"/>
<polyline clip-path="url(#clip502)" style="stroke:#000000; stroke-linecap:round; stroke-linejoin:round; stroke-width:4; stroke-opacity:1; fill:none" points="1820.36,153.425 1820.36,292.101 2231.94,292.101 2231.94,153.425 1820.36,153.425 "/>
<circle clip-path="url(#clip502)" style="fill:#ffa500; stroke:none; fill-opacity:0" cx="482.721" cy="654.222" r="2"/>
<circle clip-path="url(#clip502)" style="fill:#ffa500; stroke:none; fill-opacity:0" cx="997.196" cy="480.039" r="2"/>
<circle clip-path="url(#clip502)" style="fill:#ffa500; stroke:none; fill-opacity:0" cx="1511.67" cy="927.965" r="2"/>
<circle clip-path="url(#clip502)" style="fill:#ffa500; stroke:none; fill-opacity:0" cx="2026.15" cy="153.425" r="2"/>
<path clip-path="url(#clip502)" d="M276.931 937.143 L276.931 1032.67 L688.511 1032.67 L688.511 937.143 L276.931 937.143 L276.931 937.143  Z" fill="#008000" fill-rule="evenodd" fill-opacity="1"/>
<polyline clip-path="url(#clip502)" style="stroke:#000000; stroke-linecap:round; stroke-linejoin:round; stroke-width:4; stroke-opacity:1; fill:none" points="276.931,937.143 276.931,1032.67 688.511,1032.67 688.511,937.143 276.931,937.143 "/>
<path clip-path="url(#clip502)" d="M791.406 562.632 L791.406 1068.64 L1202.99 1068.64 L1202.99 562.632 L791.406 562.632 L791.406 562.632  Z" fill="#008000" fill-rule="evenodd" fill-opacity="1"/>
<polyline clip-path="url(#clip502)" style="stroke:#000000; stroke-linecap:round; stroke-linejoin:round; stroke-width:4; stroke-opacity:1; fill:none" points="791.406,562.632 791.406,1068.64 1202.99,1068.64 1202.99,562.632 791.406,562.632 "/>
<path clip-path="url(#clip502)" d="M1305.88 936.949 L1305.88 1026.36 L1717.46 1026.36 L1717.46 936.949 L1305.88 936.949 L1305.88 936.949  Z" fill="#008000" fill-rule="evenodd" fill-opacity="1"/>
<polyline clip-path="url(#clip502)" style="stroke:#000000; stroke-linecap:round; stroke-linejoin:round; stroke-width:4; stroke-opacity:1; fill:none" points="1305.88,936.949 1305.88,1026.36 1717.46,1026.36 1717.46,936.949 1305.88,936.949 "/>
<path clip-path="url(#clip502)" d="M1820.36 292.101 L1820.36 551.024 L2231.94 551.024 L2231.94 292.101 L1820.36 292.101 L1820.36 292.101  Z" fill="#008000" fill-rule="evenodd" fill-opacity="1"/>
<polyline clip-path="url(#clip502)" style="stroke:#000000; stroke-linecap:round; stroke-linejoin:round; stroke-width:4; stroke-opacity:1; fill:none" points="1820.36,292.101 1820.36,551.024 2231.94,551.024 2231.94,292.101 1820.36,292.101 "/>
<circle clip-path="url(#clip502)" style="fill:#008000; stroke:none; fill-opacity:0" cx="482.721" cy="937.143" r="2"/>
<circle clip-path="url(#clip502)" style="fill:#008000; stroke:none; fill-opacity:0" cx="997.196" cy="562.632" r="2"/>
<circle clip-path="url(#clip502)" style="fill:#008000; stroke:none; fill-opacity:0" cx="1511.67" cy="936.949" r="2"/>
<circle clip-path="url(#clip502)" style="fill:#008000; stroke:none; fill-opacity:0" cx="2026.15" cy="292.101" r="2"/>
<path clip-path="url(#clip502)" d="M276.931 1032.67 L276.931 1151.86 L688.511 1151.86 L688.511 1032.67 L276.931 1032.67 L276.931 1032.67  Z" fill="#ff0000" fill-rule="evenodd" fill-opacity="1"/>
<polyline clip-path="url(#clip502)" style="stroke:#000000; stroke-linecap:round; stroke-linejoin:round; stroke-width:4; stroke-opacity:1; fill:none" points="276.931,1032.67 276.931,1151.86 688.511,1151.86 688.511,1032.67 276.931,1032.67 "/>
<path clip-path="url(#clip502)" d="M791.406 1068.64 L791.406 1151.86 L1202.99 1151.86 L1202.99 1068.64 L791.406 1068.64 L791.406 1068.64  Z" fill="#ff0000" fill-rule="evenodd" fill-opacity="1"/>
<polyline clip-path="url(#clip502)" style="stroke:#000000; stroke-linecap:round; stroke-linejoin:round; stroke-width:4; stroke-opacity:1; fill:none" points="791.406,1068.64 791.406,1151.86 1202.99,1151.86 1202.99,1068.64 791.406,1068.64 "/>
<path clip-path="url(#clip502)" d="M1305.88 1026.36 L1305.88 1151.86 L1717.46 1151.86 L1717.46 1026.36 L1305.88 1026.36 L1305.88 1026.36  Z" fill="#ff0000" fill-rule="evenodd" fill-opacity="1"/>
<polyline clip-path="url(#clip502)" style="stroke:#000000; stroke-linecap:round; stroke-linejoin:round; stroke-width:4; stroke-opacity:1; fill:none" points="1305.88,1026.36 1305.88,1151.86 1717.46,1151.86 1717.46,1026.36 1305.88,1026.36 "/>
<path clip-path="url(#clip502)" d="M1820.36 551.024 L1820.36 1151.86 L2231.94 1151.86 L2231.94 551.024 L1820.36 551.024 L1820.36 551.024  Z" fill="#ff0000" fill-rule="evenodd" fill-opacity="1"/>
<polyline clip-path="url(#clip502)" style="stroke:#000000; stroke-linecap:round; stroke-linejoin:round; stroke-width:4; stroke-opacity:1; fill:none" points="1820.36,551.024 1820.36,1151.86 2231.94,1151.86 2231.94,551.024 1820.36,551.024 "/>
<circle clip-path="url(#clip502)" style="fill:#ff0000; stroke:none; fill-opacity:0" cx="482.721" cy="1032.67" r="2"/>
<circle clip-path="url(#clip502)" style="fill:#ff0000; stroke:none; fill-opacity:0" cx="997.196" cy="1068.64" r="2"/>
<circle clip-path="url(#clip502)" style="fill:#ff0000; stroke:none; fill-opacity:0" cx="1511.67" cy="1026.36" r="2"/>
<circle clip-path="url(#clip502)" style="fill:#ff0000; stroke:none; fill-opacity:0" cx="2026.15" cy="551.024" r="2"/>
<path clip-path="url(#clip500)" d="M679.871 1486.45 L1829 1486.45 L1829 1279.09 L679.871 1279.09  Z" fill="#ffffff" fill-rule="evenodd" fill-opacity="1"/>
<polyline clip-path="url(#clip500)" style="stroke:#000000; stroke-linecap:round; stroke-linejoin:round; stroke-width:4; stroke-opacity:1; fill:none" points="679.871,1486.45 1829,1486.45 1829,1279.09 679.871,1279.09 679.871,1486.45 "/>
<path clip-path="url(#clip500)" d="M704.278 1351.66 L850.721 1351.66 L850.721 1310.19 L704.278 1310.19 L704.278 1351.66  Z" fill="#ffa500" fill-rule="evenodd" fill-opacity="1"/>
<polyline clip-path="url(#clip500)" style="stroke:#000000; stroke-linecap:round; stroke-linejoin:round; stroke-width:4; stroke-opacity:1; fill:none" points="704.278,1351.66 850.721,1351.66 850.721,1310.19 704.278,1310.19 704.278,1351.66 "/>
<path clip-path="url(#clip500)" d="M875.128 1313.65 L879.804 1313.65 L879.804 1348.21 L875.128 1348.21 L875.128 1313.65 Z" fill="#000000" fill-rule="nonzero" fill-opacity="1" /><path clip-path="url(#clip500)" d="M910.475 1332.56 L910.475 1348.21 L906.216 1348.21 L906.216 1332.7 Q906.216 1329.02 904.78 1327.19 Q903.345 1325.36 900.475 1325.36 Q897.026 1325.36 895.035 1327.56 Q893.044 1329.76 893.044 1333.56 L893.044 1348.21 L888.762 1348.21 L888.762 1322.28 L893.044 1322.28 L893.044 1326.31 Q894.572 1323.97 896.632 1322.81 Q898.716 1321.66 901.424 1321.66 Q905.891 1321.66 908.183 1324.43 Q910.475 1327.19 910.475 1332.56 Z" fill="#000000" fill-rule="nonzero" fill-opacity="1" /><path clip-path="url(#clip500)" d="M941.146 1334.18 L941.146 1336.26 L921.563 1336.26 Q921.84 1340.66 924.202 1342.98 Q926.586 1345.27 930.822 1345.27 Q933.276 1345.27 935.567 1344.67 Q937.882 1344.06 940.151 1342.86 L940.151 1346.89 Q937.859 1347.86 935.451 1348.37 Q933.044 1348.88 930.567 1348.88 Q924.364 1348.88 920.729 1345.27 Q917.118 1341.66 917.118 1335.5 Q917.118 1329.13 920.544 1325.41 Q923.993 1321.66 929.827 1321.66 Q935.058 1321.66 938.09 1325.04 Q941.146 1328.39 941.146 1334.18 M936.887 1332.93 Q936.84 1329.43 934.919 1327.35 Q933.021 1325.27 929.873 1325.27 Q926.308 1325.27 924.155 1327.28 Q922.026 1329.3 921.702 1332.95 L936.887 1332.93 Z" fill="#000000" fill-rule="nonzero" fill-opacity="1" /><path clip-path="url(#clip500)" d="M950.683 1335.27 Q950.683 1339.97 952.604 1342.65 Q954.549 1345.31 957.928 1345.31 Q961.308 1345.31 963.252 1342.65 Q965.197 1339.97 965.197 1335.27 Q965.197 1330.57 963.252 1327.91 Q961.308 1325.22 957.928 1325.22 Q954.549 1325.22 952.604 1327.91 Q950.683 1330.57 950.683 1335.27 M965.197 1344.32 Q963.854 1346.63 961.794 1347.77 Q959.757 1348.88 956.887 1348.88 Q952.188 1348.88 949.225 1345.13 Q946.285 1341.38 946.285 1335.27 Q946.285 1329.16 949.225 1325.41 Q952.188 1321.66 956.887 1321.66 Q959.757 1321.66 961.794 1322.79 Q963.854 1323.9 965.197 1326.22 L965.197 1322.28 L969.456 1322.28 L969.456 1358.07 L965.197 1358.07 L965.197 1344.32 Z" fill="#000000" fill-rule="nonzero" fill-opacity="1" /><path clip-path="url(#clip500)" d="M977.789 1337.98 L977.789 1322.28 L982.048 1322.28 L982.048 1337.81 Q982.048 1341.49 983.484 1343.35 Q984.919 1345.18 987.789 1345.18 Q991.238 1345.18 993.229 1342.98 Q995.243 1340.78 995.243 1336.98 L995.243 1322.28 L999.502 1322.28 L999.502 1348.21 L995.243 1348.21 L995.243 1344.23 Q993.692 1346.59 991.632 1347.74 Q989.595 1348.88 986.886 1348.88 Q982.419 1348.88 980.104 1346.1 Q977.789 1343.32 977.789 1337.98 M988.507 1321.66 L988.507 1321.66 Z" fill="#000000" fill-rule="nonzero" fill-opacity="1" /><path clip-path="url(#clip500)" d="M1020.06 1335.18 Q1014.9 1335.18 1012.9 1336.36 Q1010.91 1337.54 1010.91 1340.38 Q1010.91 1342.65 1012.4 1343.99 Q1013.9 1345.31 1016.47 1345.31 Q1020.01 1345.31 1022.14 1342.81 Q1024.29 1340.29 1024.29 1336.12 L1024.29 1335.18 L1020.06 1335.18 M1028.55 1333.42 L1028.55 1348.21 L1024.29 1348.21 L1024.29 1344.27 Q1022.84 1346.63 1020.66 1347.77 Q1018.48 1348.88 1015.34 1348.88 Q1011.35 1348.88 1008.99 1346.66 Q1006.65 1344.41 1006.65 1340.66 Q1006.65 1336.29 1009.57 1334.06 Q1012.51 1331.84 1018.32 1331.84 L1024.29 1331.84 L1024.29 1331.43 Q1024.29 1328.49 1022.35 1326.89 Q1020.43 1325.27 1016.93 1325.27 Q1014.71 1325.27 1012.6 1325.8 Q1010.5 1326.33 1008.55 1327.4 L1008.55 1323.46 Q1010.89 1322.56 1013.09 1322.12 Q1015.29 1321.66 1017.37 1321.66 Q1023 1321.66 1025.78 1324.57 Q1028.55 1327.49 1028.55 1333.42 Z" fill="#000000" fill-rule="nonzero" fill-opacity="1" /><path clip-path="url(#clip500)" d="M1037.33 1312.19 L1041.59 1312.19 L1041.59 1348.21 L1037.33 1348.21 L1037.33 1312.19 Z" fill="#000000" fill-rule="nonzero" fill-opacity="1" /><path clip-path="url(#clip500)" d="M1050.5 1322.28 L1054.76 1322.28 L1054.76 1348.21 L1050.5 1348.21 L1050.5 1322.28 M1050.5 1312.19 L1054.76 1312.19 L1054.76 1317.58 L1050.5 1317.58 L1050.5 1312.19 Z" fill="#000000" fill-rule="nonzero" fill-opacity="1" /><path clip-path="url(#clip500)" d="M1067.88 1314.92 L1067.88 1322.28 L1076.65 1322.28 L1076.65 1325.59 L1067.88 1325.59 L1067.88 1339.67 Q1067.88 1342.84 1068.74 1343.74 Q1069.62 1344.64 1072.28 1344.64 L1076.65 1344.64 L1076.65 1348.21 L1072.28 1348.21 Q1067.35 1348.21 1065.47 1346.38 Q1063.6 1344.53 1063.6 1339.67 L1063.6 1325.59 L1060.47 1325.59 L1060.47 1322.28 L1063.6 1322.28 L1063.6 1314.92 L1067.88 1314.92 Z" fill="#000000" fill-rule="nonzero" fill-opacity="1" /><path clip-path="url(#clip500)" d="M1093.04 1350.62 Q1091.24 1355.24 1089.52 1356.66 Q1087.81 1358.07 1084.94 1358.07 L1081.54 1358.07 L1081.54 1354.5 L1084.04 1354.5 Q1085.8 1354.5 1086.77 1353.67 Q1087.74 1352.84 1088.92 1349.74 L1089.69 1347.79 L1079.2 1322.28 L1083.71 1322.28 L1091.82 1342.56 L1099.92 1322.28 L1104.43 1322.28 L1093.04 1350.62 Z" fill="#000000" fill-rule="nonzero" fill-opacity="1" /><path clip-path="url(#clip500)" d="M1122.9 1322.28 L1127.16 1322.28 L1132.49 1342.51 L1137.79 1322.28 L1142.81 1322.28 L1148.14 1342.51 L1153.44 1322.28 L1157.7 1322.28 L1150.91 1348.21 L1145.89 1348.21 L1140.31 1326.96 L1134.71 1348.21 L1129.69 1348.21 L1122.9 1322.28 Z" fill="#000000" fill-rule="nonzero" fill-opacity="1" /><path clip-path="url(#clip500)" d="M1164.15 1322.28 L1168.41 1322.28 L1168.41 1348.21 L1164.15 1348.21 L1164.15 1322.28 M1164.15 1312.19 L1168.41 1312.19 L1168.41 1317.58 L1164.15 1317.58 L1164.15 1312.19 Z" fill="#000000" fill-rule="nonzero" fill-opacity="1" /><path clip-path="url(#clip500)" d="M1181.54 1314.92 L1181.54 1322.28 L1190.31 1322.28 L1190.31 1325.59 L1181.54 1325.59 L1181.54 1339.67 Q1181.54 1342.84 1182.39 1343.74 Q1183.27 1344.64 1185.94 1344.64 L1190.31 1344.64 L1190.31 1348.21 L1185.94 1348.21 Q1181.01 1348.21 1179.13 1346.38 Q1177.26 1344.53 1177.26 1339.67 L1177.26 1325.59 L1174.13 1325.59 L1174.13 1322.28 L1177.26 1322.28 L1177.26 1314.92 L1181.54 1314.92 Z" fill="#000000" fill-rule="nonzero" fill-opacity="1" /><path clip-path="url(#clip500)" d="M1217.46 1332.56 L1217.46 1348.21 L1213.2 1348.21 L1213.2 1332.7 Q1213.2 1329.02 1211.77 1327.19 Q1210.33 1325.36 1207.46 1325.36 Q1204.01 1325.36 1202.02 1327.56 Q1200.03 1329.76 1200.03 1333.56 L1200.03 1348.21 L1195.75 1348.21 L1195.75 1312.19 L1200.03 1312.19 L1200.03 1326.31 Q1201.56 1323.97 1203.62 1322.81 Q1205.7 1321.66 1208.41 1321.66 Q1212.88 1321.66 1215.17 1324.43 Q1217.46 1327.19 1217.46 1332.56 Z" fill="#000000" fill-rule="nonzero" fill-opacity="1" /><path clip-path="url(#clip500)" d="M1225.96 1322.28 L1230.22 1322.28 L1230.22 1348.21 L1225.96 1348.21 L1225.96 1322.28 M1225.96 1312.19 L1230.22 1312.19 L1230.22 1317.58 L1225.96 1317.58 L1225.96 1312.19 Z" fill="#000000" fill-rule="nonzero" fill-opacity="1" /><path clip-path="url(#clip500)" d="M1260.68 1332.56 L1260.68 1348.21 L1256.42 1348.21 L1256.42 1332.7 Q1256.42 1329.02 1254.99 1327.19 Q1253.55 1325.36 1250.68 1325.36 Q1247.23 1325.36 1245.24 1327.56 Q1243.25 1329.76 1243.25 1333.56 L1243.25 1348.21 L1238.97 1348.21 L1238.97 1322.28 L1243.25 1322.28 L1243.25 1326.31 Q1244.78 1323.97 1246.84 1322.81 Q1248.92 1321.66 1251.63 1321.66 Q1256.1 1321.66 1258.39 1324.43 Q1260.68 1327.19 1260.68 1332.56 Z" fill="#000000" fill-rule="nonzero" fill-opacity="1" /><path clip-path="url(#clip500)" d="M1284.25 1322.28 L1288.51 1322.28 L1288.51 1348.21 L1284.25 1348.21 L1284.25 1322.28 M1284.25 1312.19 L1288.51 1312.19 L1288.51 1317.58 L1284.25 1317.58 L1284.25 1312.19 Z" fill="#000000" fill-rule="nonzero" fill-opacity="1" /><path clip-path="url(#clip500)" d="M1318.97 1332.56 L1318.97 1348.21 L1314.71 1348.21 L1314.71 1332.7 Q1314.71 1329.02 1313.27 1327.19 Q1311.84 1325.36 1308.97 1325.36 Q1305.52 1325.36 1303.53 1327.56 Q1301.54 1329.76 1301.54 1333.56 L1301.54 1348.21 L1297.26 1348.21 L1297.26 1322.28 L1301.54 1322.28 L1301.54 1326.31 Q1303.07 1323.97 1305.13 1322.81 Q1307.21 1321.66 1309.92 1321.66 Q1314.38 1321.66 1316.68 1324.43 Q1318.97 1327.19 1318.97 1332.56 Z" fill="#000000" fill-rule="nonzero" fill-opacity="1" /><path clip-path="url(#clip500)" d="M1340.59 1312.19 L1340.59 1315.73 L1336.51 1315.73 Q1334.22 1315.73 1333.32 1316.66 Q1332.44 1317.58 1332.44 1319.99 L1332.44 1322.28 L1339.45 1322.28 L1339.45 1325.59 L1332.44 1325.59 L1332.44 1348.21 L1328.16 1348.21 L1328.16 1325.59 L1324.08 1325.59 L1324.08 1322.28 L1328.16 1322.28 L1328.16 1320.48 Q1328.16 1316.15 1330.17 1314.18 Q1332.19 1312.19 1336.56 1312.19 L1340.59 1312.19 Z" fill="#000000" fill-rule="nonzero" fill-opacity="1" /><path clip-path="url(#clip500)" d="M1354.2 1325.27 Q1350.77 1325.27 1348.78 1327.95 Q1346.79 1330.62 1346.79 1335.27 Q1346.79 1339.92 1348.76 1342.61 Q1350.75 1345.27 1354.2 1345.27 Q1357.6 1345.27 1359.59 1342.58 Q1361.58 1339.9 1361.58 1335.27 Q1361.58 1330.66 1359.59 1327.98 Q1357.6 1325.27 1354.2 1325.27 M1354.2 1321.66 Q1359.75 1321.66 1362.93 1325.27 Q1366.1 1328.88 1366.1 1335.27 Q1366.1 1341.63 1362.93 1345.27 Q1359.75 1348.88 1354.2 1348.88 Q1348.62 1348.88 1345.45 1345.27 Q1342.3 1341.63 1342.3 1335.27 Q1342.3 1328.88 1345.45 1325.27 Q1348.62 1321.66 1354.2 1321.66 Z" fill="#000000" fill-rule="nonzero" fill-opacity="1" /><path clip-path="url(#clip500)" d="M1388.18 1326.26 Q1387.46 1325.85 1386.61 1325.66 Q1385.77 1325.45 1384.75 1325.45 Q1381.14 1325.45 1379.2 1327.81 Q1377.28 1330.15 1377.28 1334.55 L1377.28 1348.21 L1373 1348.21 L1373 1322.28 L1377.28 1322.28 L1377.28 1326.31 Q1378.62 1323.95 1380.77 1322.81 Q1382.93 1321.66 1386 1321.66 Q1386.44 1321.66 1386.98 1321.73 Q1387.51 1321.77 1388.16 1321.89 L1388.18 1326.26 Z" fill="#000000" fill-rule="nonzero" fill-opacity="1" /><path clip-path="url(#clip500)" d="M1412 1327.26 Q1413.6 1324.39 1415.82 1323.02 Q1418.04 1321.66 1421.05 1321.66 Q1425.1 1321.66 1427.3 1324.5 Q1429.5 1327.33 1429.5 1332.56 L1429.5 1348.21 L1425.22 1348.21 L1425.22 1332.7 Q1425.22 1328.97 1423.9 1327.17 Q1422.58 1325.36 1419.87 1325.36 Q1416.56 1325.36 1414.64 1327.56 Q1412.72 1329.76 1412.72 1333.56 L1412.72 1348.21 L1408.44 1348.21 L1408.44 1332.7 Q1408.44 1328.95 1407.12 1327.17 Q1405.8 1325.36 1403.04 1325.36 Q1399.78 1325.36 1397.86 1327.58 Q1395.94 1329.78 1395.94 1333.56 L1395.94 1348.21 L1391.65 1348.21 L1391.65 1322.28 L1395.94 1322.28 L1395.94 1326.31 Q1397.39 1323.93 1399.43 1322.79 Q1401.47 1321.66 1404.27 1321.66 Q1407.09 1321.66 1409.06 1323.09 Q1411.05 1324.53 1412 1327.26 Z" fill="#000000" fill-rule="nonzero" fill-opacity="1" /><path clip-path="url(#clip500)" d="M1449.78 1335.18 Q1444.62 1335.18 1442.62 1336.36 Q1440.63 1337.54 1440.63 1340.38 Q1440.63 1342.65 1442.12 1343.99 Q1443.62 1345.31 1446.19 1345.31 Q1449.73 1345.31 1451.86 1342.81 Q1454.01 1340.29 1454.01 1336.12 L1454.01 1335.18 L1449.78 1335.18 M1458.27 1333.42 L1458.27 1348.21 L1454.01 1348.21 L1454.01 1344.27 Q1452.56 1346.63 1450.38 1347.77 Q1448.2 1348.88 1445.06 1348.88 Q1441.07 1348.88 1438.71 1346.66 Q1436.37 1344.41 1436.37 1340.66 Q1436.37 1336.29 1439.29 1334.06 Q1442.23 1331.84 1448.04 1331.84 L1454.01 1331.84 L1454.01 1331.43 Q1454.01 1328.49 1452.07 1326.89 Q1450.15 1325.27 1446.65 1325.27 Q1444.43 1325.27 1442.32 1325.8 Q1440.22 1326.33 1438.27 1327.4 L1438.27 1323.46 Q1440.61 1322.56 1442.81 1322.12 Q1445.01 1321.66 1447.09 1321.66 Q1452.72 1321.66 1455.5 1324.57 Q1458.27 1327.49 1458.27 1333.42 Z" fill="#000000" fill-rule="nonzero" fill-opacity="1" /><path clip-path="url(#clip500)" d="M1467.05 1312.19 L1471.31 1312.19 L1471.31 1348.21 L1467.05 1348.21 L1467.05 1312.19 Z" fill="#000000" fill-rule="nonzero" fill-opacity="1" /><path clip-path="url(#clip500)" d="M704.278 1403.5 L850.721 1403.5 L850.721 1362.03 L704.278 1362.03 L704.278 1403.5  Z" fill="#008000" fill-rule="evenodd" fill-opacity="1"/>
<polyline clip-path="url(#clip500)" style="stroke:#000000; stroke-linecap:round; stroke-linejoin:round; stroke-width:4; stroke-opacity:1; fill:none" points="704.278,1403.5 850.721,1403.5 850.721,1362.03 704.278,1362.03 704.278,1403.5 "/>
<path clip-path="url(#clip500)" d="M875.128 1365.49 L879.804 1365.49 L879.804 1400.05 L875.128 1400.05 L875.128 1365.49 Z" fill="#000000" fill-rule="nonzero" fill-opacity="1" /><path clip-path="url(#clip500)" d="M910.475 1384.4 L910.475 1400.05 L906.216 1400.05 L906.216 1384.54 Q906.216 1380.86 904.78 1379.03 Q903.345 1377.2 900.475 1377.2 Q897.026 1377.2 895.035 1379.4 Q893.044 1381.6 893.044 1385.4 L893.044 1400.05 L888.762 1400.05 L888.762 1374.12 L893.044 1374.12 L893.044 1378.15 Q894.572 1375.81 896.632 1374.65 Q898.716 1373.5 901.424 1373.5 Q905.891 1373.5 908.183 1376.27 Q910.475 1379.03 910.475 1384.4 Z" fill="#000000" fill-rule="nonzero" fill-opacity="1" /><path clip-path="url(#clip500)" d="M941.146 1386.02 L941.146 1388.1 L921.563 1388.1 Q921.84 1392.5 924.202 1394.82 Q926.586 1397.11 930.822 1397.11 Q933.276 1397.11 935.567 1396.51 Q937.882 1395.9 940.151 1394.7 L940.151 1398.73 Q937.859 1399.7 935.451 1400.21 Q933.044 1400.72 930.567 1400.72 Q924.364 1400.72 920.729 1397.11 Q917.118 1393.5 917.118 1387.34 Q917.118 1380.97 920.544 1377.25 Q923.993 1373.5 929.827 1373.5 Q935.058 1373.5 938.09 1376.88 Q941.146 1380.23 941.146 1386.02 M936.887 1384.77 Q936.84 1381.27 934.919 1379.19 Q933.021 1377.11 929.873 1377.11 Q926.308 1377.11 924.155 1379.12 Q922.026 1381.14 921.702 1384.79 L936.887 1384.77 Z" fill="#000000" fill-rule="nonzero" fill-opacity="1" /><path clip-path="url(#clip500)" d="M950.683 1387.11 Q950.683 1391.81 952.604 1394.49 Q954.549 1397.15 957.928 1397.15 Q961.308 1397.15 963.252 1394.49 Q965.197 1391.81 965.197 1387.11 Q965.197 1382.41 963.252 1379.75 Q961.308 1377.06 957.928 1377.06 Q954.549 1377.06 952.604 1379.75 Q950.683 1382.41 950.683 1387.11 M965.197 1396.16 Q963.854 1398.47 961.794 1399.61 Q959.757 1400.72 956.887 1400.72 Q952.188 1400.72 949.225 1396.97 Q946.285 1393.22 946.285 1387.11 Q946.285 1381 949.225 1377.25 Q952.188 1373.5 956.887 1373.5 Q959.757 1373.5 961.794 1374.63 Q963.854 1375.74 965.197 1378.06 L965.197 1374.12 L969.456 1374.12 L969.456 1409.91 L965.197 1409.91 L965.197 1396.16 Z" fill="#000000" fill-rule="nonzero" fill-opacity="1" /><path clip-path="url(#clip500)" d="M977.789 1389.82 L977.789 1374.12 L982.048 1374.12 L982.048 1389.65 Q982.048 1393.33 983.484 1395.19 Q984.919 1397.02 987.789 1397.02 Q991.238 1397.02 993.229 1394.82 Q995.243 1392.62 995.243 1388.82 L995.243 1374.12 L999.502 1374.12 L999.502 1400.05 L995.243 1400.05 L995.243 1396.07 Q993.692 1398.43 991.632 1399.58 Q989.595 1400.72 986.886 1400.72 Q982.419 1400.72 980.104 1397.94 Q977.789 1395.16 977.789 1389.82 M988.507 1373.5 L988.507 1373.5 Z" fill="#000000" fill-rule="nonzero" fill-opacity="1" /><path clip-path="url(#clip500)" d="M1020.06 1387.02 Q1014.9 1387.02 1012.9 1388.2 Q1010.91 1389.38 1010.91 1392.22 Q1010.91 1394.49 1012.4 1395.83 Q1013.9 1397.15 1016.47 1397.15 Q1020.01 1397.15 1022.14 1394.65 Q1024.29 1392.13 1024.29 1387.96 L1024.29 1387.02 L1020.06 1387.02 M1028.55 1385.26 L1028.55 1400.05 L1024.29 1400.05 L1024.29 1396.11 Q1022.84 1398.47 1020.66 1399.61 Q1018.48 1400.72 1015.34 1400.72 Q1011.35 1400.72 1008.99 1398.5 Q1006.65 1396.25 1006.65 1392.5 Q1006.65 1388.13 1009.57 1385.9 Q1012.51 1383.68 1018.32 1383.68 L1024.29 1383.68 L1024.29 1383.27 Q1024.29 1380.33 1022.35 1378.73 Q1020.43 1377.11 1016.93 1377.11 Q1014.71 1377.11 1012.6 1377.64 Q1010.5 1378.17 1008.55 1379.24 L1008.55 1375.3 Q1010.89 1374.4 1013.09 1373.96 Q1015.29 1373.5 1017.37 1373.5 Q1023 1373.5 1025.78 1376.41 Q1028.55 1379.33 1028.55 1385.26 Z" fill="#000000" fill-rule="nonzero" fill-opacity="1" /><path clip-path="url(#clip500)" d="M1037.33 1364.03 L1041.59 1364.03 L1041.59 1400.05 L1037.33 1400.05 L1037.33 1364.03 Z" fill="#000000" fill-rule="nonzero" fill-opacity="1" /><path clip-path="url(#clip500)" d="M1050.5 1374.12 L1054.76 1374.12 L1054.76 1400.05 L1050.5 1400.05 L1050.5 1374.12 M1050.5 1364.03 L1054.76 1364.03 L1054.76 1369.42 L1050.5 1369.42 L1050.5 1364.03 Z" fill="#000000" fill-rule="nonzero" fill-opacity="1" /><path clip-path="url(#clip500)" d="M1067.88 1366.76 L1067.88 1374.12 L1076.65 1374.12 L1076.65 1377.43 L1067.88 1377.43 L1067.88 1391.51 Q1067.88 1394.68 1068.74 1395.58 Q1069.62 1396.48 1072.28 1396.48 L1076.65 1396.48 L1076.65 1400.05 L1072.28 1400.05 Q1067.35 1400.05 1065.47 1398.22 Q1063.6 1396.37 1063.6 1391.51 L1063.6 1377.43 L1060.47 1377.43 L1060.47 1374.12 L1063.6 1374.12 L1063.6 1366.76 L1067.88 1366.76 Z" fill="#000000" fill-rule="nonzero" fill-opacity="1" /><path clip-path="url(#clip500)" d="M1093.04 1402.46 Q1091.24 1407.08 1089.52 1408.5 Q1087.81 1409.91 1084.94 1409.91 L1081.54 1409.91 L1081.54 1406.34 L1084.04 1406.34 Q1085.8 1406.34 1086.77 1405.51 Q1087.74 1404.68 1088.92 1401.58 L1089.69 1399.63 L1079.2 1374.12 L1083.71 1374.12 L1091.82 1394.4 L1099.92 1374.12 L1104.43 1374.12 L1093.04 1402.46 Z" fill="#000000" fill-rule="nonzero" fill-opacity="1" /><path clip-path="url(#clip500)" d="M1122.9 1374.12 L1127.16 1374.12 L1132.49 1394.35 L1137.79 1374.12 L1142.81 1374.12 L1148.14 1394.35 L1153.44 1374.12 L1157.7 1374.12 L1150.91 1400.05 L1145.89 1400.05 L1140.31 1378.8 L1134.71 1400.05 L1129.69 1400.05 L1122.9 1374.12 Z" fill="#000000" fill-rule="nonzero" fill-opacity="1" /><path clip-path="url(#clip500)" d="M1164.15 1374.12 L1168.41 1374.12 L1168.41 1400.05 L1164.15 1400.05 L1164.15 1374.12 M1164.15 1364.03 L1168.41 1364.03 L1168.41 1369.42 L1164.15 1369.42 L1164.15 1364.03 Z" fill="#000000" fill-rule="nonzero" fill-opacity="1" /><path clip-path="url(#clip500)" d="M1181.54 1366.76 L1181.54 1374.12 L1190.31 1374.12 L1190.31 1377.43 L1181.54 1377.43 L1181.54 1391.51 Q1181.54 1394.68 1182.39 1395.58 Q1183.27 1396.48 1185.94 1396.48 L1190.31 1396.48 L1190.31 1400.05 L1185.94 1400.05 Q1181.01 1400.05 1179.13 1398.22 Q1177.26 1396.37 1177.26 1391.51 L1177.26 1377.43 L1174.13 1377.43 L1174.13 1374.12 L1177.26 1374.12 L1177.26 1366.76 L1181.54 1366.76 Z" fill="#000000" fill-rule="nonzero" fill-opacity="1" /><path clip-path="url(#clip500)" d="M1217.46 1384.4 L1217.46 1400.05 L1213.2 1400.05 L1213.2 1384.54 Q1213.2 1380.86 1211.77 1379.03 Q1210.33 1377.2 1207.46 1377.2 Q1204.01 1377.2 1202.02 1379.4 Q1200.03 1381.6 1200.03 1385.4 L1200.03 1400.05 L1195.75 1400.05 L1195.75 1364.03 L1200.03 1364.03 L1200.03 1378.15 Q1201.56 1375.81 1203.62 1374.65 Q1205.7 1373.5 1208.41 1373.5 Q1212.88 1373.5 1215.17 1376.27 Q1217.46 1379.03 1217.46 1384.4 Z" fill="#000000" fill-rule="nonzero" fill-opacity="1" /><path clip-path="url(#clip500)" d="M1225.96 1374.12 L1230.22 1374.12 L1230.22 1400.05 L1225.96 1400.05 L1225.96 1374.12 M1225.96 1364.03 L1230.22 1364.03 L1230.22 1369.42 L1225.96 1369.42 L1225.96 1364.03 Z" fill="#000000" fill-rule="nonzero" fill-opacity="1" /><path clip-path="url(#clip500)" d="M1260.68 1384.4 L1260.68 1400.05 L1256.42 1400.05 L1256.42 1384.54 Q1256.42 1380.86 1254.99 1379.03 Q1253.55 1377.2 1250.68 1377.2 Q1247.23 1377.2 1245.24 1379.4 Q1243.25 1381.6 1243.25 1385.4 L1243.25 1400.05 L1238.97 1400.05 L1238.97 1374.12 L1243.25 1374.12 L1243.25 1378.15 Q1244.78 1375.81 1246.84 1374.65 Q1248.92 1373.5 1251.63 1373.5 Q1256.1 1373.5 1258.39 1376.27 Q1260.68 1379.03 1260.68 1384.4 Z" fill="#000000" fill-rule="nonzero" fill-opacity="1" /><path clip-path="url(#clip500)" d="M1297.37 1364.03 L1297.37 1367.57 L1293.3 1367.57 Q1291.01 1367.57 1290.1 1368.5 Q1289.22 1369.42 1289.22 1371.83 L1289.22 1374.12 L1296.24 1374.12 L1296.24 1377.43 L1289.22 1377.43 L1289.22 1400.05 L1284.94 1400.05 L1284.94 1377.43 L1280.87 1377.43 L1280.87 1374.12 L1284.94 1374.12 L1284.94 1372.32 Q1284.94 1367.99 1286.95 1366.02 Q1288.97 1364.03 1293.34 1364.03 L1297.37 1364.03 Z" fill="#000000" fill-rule="nonzero" fill-opacity="1" /><path clip-path="url(#clip500)" d="M1310.98 1377.11 Q1307.56 1377.11 1305.57 1379.79 Q1303.57 1382.46 1303.57 1387.11 Q1303.57 1391.76 1305.54 1394.45 Q1307.53 1397.11 1310.98 1397.11 Q1314.38 1397.11 1316.38 1394.42 Q1318.37 1391.74 1318.37 1387.11 Q1318.37 1382.5 1316.38 1379.82 Q1314.38 1377.11 1310.98 1377.11 M1310.98 1373.5 Q1316.54 1373.5 1319.71 1377.11 Q1322.88 1380.72 1322.88 1387.11 Q1322.88 1393.47 1319.71 1397.11 Q1316.54 1400.72 1310.98 1400.72 Q1305.4 1400.72 1302.23 1397.11 Q1299.08 1393.47 1299.08 1387.11 Q1299.08 1380.72 1302.23 1377.11 Q1305.4 1373.5 1310.98 1373.5 Z" fill="#000000" fill-rule="nonzero" fill-opacity="1" /><path clip-path="url(#clip500)" d="M1344.96 1378.1 Q1344.25 1377.69 1343.39 1377.5 Q1342.56 1377.29 1341.54 1377.29 Q1337.93 1377.29 1335.98 1379.65 Q1334.06 1381.99 1334.06 1386.39 L1334.06 1400.05 L1329.78 1400.05 L1329.78 1374.12 L1334.06 1374.12 L1334.06 1378.15 Q1335.4 1375.79 1337.56 1374.65 Q1339.71 1373.5 1342.79 1373.5 Q1343.23 1373.5 1343.76 1373.57 Q1344.29 1373.61 1344.94 1373.73 L1344.96 1378.1 Z" fill="#000000" fill-rule="nonzero" fill-opacity="1" /><path clip-path="url(#clip500)" d="M1368.78 1379.1 Q1370.38 1376.23 1372.6 1374.86 Q1374.82 1373.5 1377.83 1373.5 Q1381.88 1373.5 1384.08 1376.34 Q1386.28 1379.17 1386.28 1384.4 L1386.28 1400.05 L1382 1400.05 L1382 1384.54 Q1382 1380.81 1380.68 1379.01 Q1379.36 1377.2 1376.65 1377.2 Q1373.34 1377.2 1371.42 1379.4 Q1369.5 1381.6 1369.5 1385.4 L1369.5 1400.05 L1365.22 1400.05 L1365.22 1384.54 Q1365.22 1380.79 1363.9 1379.01 Q1362.58 1377.2 1359.82 1377.2 Q1356.56 1377.2 1354.64 1379.42 Q1352.72 1381.62 1352.72 1385.4 L1352.72 1400.05 L1348.44 1400.05 L1348.44 1374.12 L1352.72 1374.12 L1352.72 1378.15 Q1354.18 1375.77 1356.21 1374.63 Q1358.25 1373.5 1361.05 1373.5 Q1363.88 1373.5 1365.84 1374.93 Q1367.83 1376.37 1368.78 1379.1 Z" fill="#000000" fill-rule="nonzero" fill-opacity="1" /><path clip-path="url(#clip500)" d="M1406.56 1387.02 Q1401.4 1387.02 1399.41 1388.2 Q1397.42 1389.38 1397.42 1392.22 Q1397.42 1394.49 1398.9 1395.83 Q1400.4 1397.15 1402.97 1397.15 Q1406.51 1397.15 1408.64 1394.65 Q1410.8 1392.13 1410.8 1387.96 L1410.8 1387.02 L1406.56 1387.02 M1415.06 1385.26 L1415.06 1400.05 L1410.8 1400.05 L1410.8 1396.11 Q1409.34 1398.47 1407.16 1399.61 Q1404.99 1400.72 1401.84 1400.72 Q1397.86 1400.72 1395.5 1398.5 Q1393.16 1396.25 1393.16 1392.5 Q1393.16 1388.13 1396.07 1385.9 Q1399.01 1383.68 1404.82 1383.68 L1410.8 1383.68 L1410.8 1383.27 Q1410.8 1380.33 1408.85 1378.73 Q1406.93 1377.11 1403.44 1377.11 Q1401.21 1377.11 1399.11 1377.64 Q1397 1378.17 1395.06 1379.24 L1395.06 1375.3 Q1397.39 1374.4 1399.59 1373.96 Q1401.79 1373.5 1403.87 1373.5 Q1409.5 1373.5 1412.28 1376.41 Q1415.06 1379.33 1415.06 1385.26 Z" fill="#000000" fill-rule="nonzero" fill-opacity="1" /><path clip-path="url(#clip500)" d="M1423.83 1364.03 L1428.09 1364.03 L1428.09 1400.05 L1423.83 1400.05 L1423.83 1364.03 Z" fill="#000000" fill-rule="nonzero" fill-opacity="1" /><path clip-path="url(#clip500)" d="M704.278 1455.34 L850.721 1455.34 L850.721 1413.87 L704.278 1413.87 L704.278 1455.34  Z" fill="#ff0000" fill-rule="evenodd" fill-opacity="1"/>
<polyline clip-path="url(#clip500)" style="stroke:#000000; stroke-linecap:round; stroke-linejoin:round; stroke-width:4; stroke-opacity:1; fill:none" points="704.278,1455.34 850.721,1455.34 850.721,1413.87 704.278,1413.87 704.278,1455.34 "/>
<path clip-path="url(#clip500)" d="M875.128 1417.33 L879.804 1417.33 L879.804 1451.89 L875.128 1451.89 L875.128 1417.33 Z" fill="#000000" fill-rule="nonzero" fill-opacity="1" /><path clip-path="url(#clip500)" d="M910.475 1436.24 L910.475 1451.89 L906.216 1451.89 L906.216 1436.38 Q906.216 1432.7 904.78 1430.87 Q903.345 1429.04 900.475 1429.04 Q897.026 1429.04 895.035 1431.24 Q893.044 1433.44 893.044 1437.24 L893.044 1451.89 L888.762 1451.89 L888.762 1425.96 L893.044 1425.96 L893.044 1429.99 Q894.572 1427.65 896.632 1426.49 Q898.716 1425.34 901.424 1425.34 Q905.891 1425.34 908.183 1428.11 Q910.475 1430.87 910.475 1436.24 Z" fill="#000000" fill-rule="nonzero" fill-opacity="1" /><path clip-path="url(#clip500)" d="M941.146 1437.86 L941.146 1439.94 L921.563 1439.94 Q921.84 1444.34 924.202 1446.66 Q926.586 1448.95 930.822 1448.95 Q933.276 1448.95 935.567 1448.35 Q937.882 1447.74 940.151 1446.54 L940.151 1450.57 Q937.859 1451.54 935.451 1452.05 Q933.044 1452.56 930.567 1452.56 Q924.364 1452.56 920.729 1448.95 Q917.118 1445.34 917.118 1439.18 Q917.118 1432.81 920.544 1429.09 Q923.993 1425.34 929.827 1425.34 Q935.058 1425.34 938.09 1428.72 Q941.146 1432.07 941.146 1437.86 M936.887 1436.61 Q936.84 1433.11 934.919 1431.03 Q933.021 1428.95 929.873 1428.95 Q926.308 1428.95 924.155 1430.96 Q922.026 1432.98 921.702 1436.63 L936.887 1436.61 Z" fill="#000000" fill-rule="nonzero" fill-opacity="1" /><path clip-path="url(#clip500)" d="M950.683 1438.95 Q950.683 1443.65 952.604 1446.33 Q954.549 1448.99 957.928 1448.99 Q961.308 1448.99 963.252 1446.33 Q965.197 1443.65 965.197 1438.95 Q965.197 1434.25 963.252 1431.59 Q961.308 1428.9 957.928 1428.9 Q954.549 1428.9 952.604 1431.59 Q950.683 1434.25 950.683 1438.95 M965.197 1448 Q963.854 1450.31 961.794 1451.45 Q959.757 1452.56 956.887 1452.56 Q952.188 1452.56 949.225 1448.81 Q946.285 1445.06 946.285 1438.95 Q946.285 1432.84 949.225 1429.09 Q952.188 1425.34 956.887 1425.34 Q959.757 1425.34 961.794 1426.47 Q963.854 1427.58 965.197 1429.9 L965.197 1425.96 L969.456 1425.96 L969.456 1461.75 L965.197 1461.75 L965.197 1448 Z" fill="#000000" fill-rule="nonzero" fill-opacity="1" /><path clip-path="url(#clip500)" d="M977.789 1441.66 L977.789 1425.96 L982.048 1425.96 L982.048 1441.49 Q982.048 1445.17 983.484 1447.03 Q984.919 1448.86 987.789 1448.86 Q991.238 1448.86 993.229 1446.66 Q995.243 1444.46 995.243 1440.66 L995.243 1425.96 L999.502 1425.96 L999.502 1451.89 L995.243 1451.89 L995.243 1447.91 Q993.692 1450.27 991.632 1451.42 Q989.595 1452.56 986.886 1452.56 Q982.419 1452.56 980.104 1449.78 Q977.789 1447 977.789 1441.66 M988.507 1425.34 L988.507 1425.34 Z" fill="#000000" fill-rule="nonzero" fill-opacity="1" /><path clip-path="url(#clip500)" d="M1020.06 1438.86 Q1014.9 1438.86 1012.9 1440.04 Q1010.91 1441.22 1010.91 1444.06 Q1010.91 1446.33 1012.4 1447.67 Q1013.9 1448.99 1016.47 1448.99 Q1020.01 1448.99 1022.14 1446.49 Q1024.29 1443.97 1024.29 1439.8 L1024.29 1438.86 L1020.06 1438.86 M1028.55 1437.1 L1028.55 1451.89 L1024.29 1451.89 L1024.29 1447.95 Q1022.84 1450.31 1020.66 1451.45 Q1018.48 1452.56 1015.34 1452.56 Q1011.35 1452.56 1008.99 1450.34 Q1006.65 1448.09 1006.65 1444.34 Q1006.65 1439.97 1009.57 1437.74 Q1012.51 1435.52 1018.32 1435.52 L1024.29 1435.52 L1024.29 1435.11 Q1024.29 1432.17 1022.35 1430.57 Q1020.43 1428.95 1016.93 1428.95 Q1014.71 1428.95 1012.6 1429.48 Q1010.5 1430.01 1008.55 1431.08 L1008.55 1427.14 Q1010.89 1426.24 1013.09 1425.8 Q1015.29 1425.34 1017.37 1425.34 Q1023 1425.34 1025.78 1428.25 Q1028.55 1431.17 1028.55 1437.1 Z" fill="#000000" fill-rule="nonzero" fill-opacity="1" /><path clip-path="url(#clip500)" d="M1037.33 1415.87 L1041.59 1415.87 L1041.59 1451.89 L1037.33 1451.89 L1037.33 1415.87 Z" fill="#000000" fill-rule="nonzero" fill-opacity="1" /><path clip-path="url(#clip500)" d="M1050.5 1425.96 L1054.76 1425.96 L1054.76 1451.89 L1050.5 1451.89 L1050.5 1425.96 M1050.5 1415.87 L1054.76 1415.87 L1054.76 1421.26 L1050.5 1421.26 L1050.5 1415.87 Z" fill="#000000" fill-rule="nonzero" fill-opacity="1" /><path clip-path="url(#clip500)" d="M1067.88 1418.6 L1067.88 1425.96 L1076.65 1425.96 L1076.65 1429.27 L1067.88 1429.27 L1067.88 1443.35 Q1067.88 1446.52 1068.74 1447.42 Q1069.62 1448.32 1072.28 1448.32 L1076.65 1448.32 L1076.65 1451.89 L1072.28 1451.89 Q1067.35 1451.89 1065.47 1450.06 Q1063.6 1448.21 1063.6 1443.35 L1063.6 1429.27 L1060.47 1429.27 L1060.47 1425.96 L1063.6 1425.96 L1063.6 1418.6 L1067.88 1418.6 Z" fill="#000000" fill-rule="nonzero" fill-opacity="1" /><path clip-path="url(#clip500)" d="M1093.04 1454.3 Q1091.24 1458.92 1089.52 1460.34 Q1087.81 1461.75 1084.94 1461.75 L1081.54 1461.75 L1081.54 1458.18 L1084.04 1458.18 Q1085.8 1458.18 1086.77 1457.35 Q1087.74 1456.52 1088.92 1453.42 L1089.69 1451.47 L1079.2 1425.96 L1083.71 1425.96 L1091.82 1446.24 L1099.92 1425.96 L1104.43 1425.96 L1093.04 1454.3 Z" fill="#000000" fill-rule="nonzero" fill-opacity="1" /><path clip-path="url(#clip500)" d="M1143.99 1438.95 Q1143.99 1434.25 1142.05 1431.59 Q1140.13 1428.9 1136.75 1428.9 Q1133.37 1428.9 1131.42 1431.59 Q1129.5 1434.25 1129.5 1438.95 Q1129.5 1443.65 1131.42 1446.33 Q1133.37 1448.99 1136.75 1448.99 Q1140.13 1448.99 1142.05 1446.33 Q1143.99 1443.65 1143.99 1438.95 M1129.5 1429.9 Q1130.84 1427.58 1132.88 1426.47 Q1134.94 1425.34 1137.79 1425.34 Q1142.51 1425.34 1145.45 1429.09 Q1148.41 1432.84 1148.41 1438.95 Q1148.41 1445.06 1145.45 1448.81 Q1142.51 1452.56 1137.79 1452.56 Q1134.94 1452.56 1132.88 1451.45 Q1130.84 1450.31 1129.5 1448 L1129.5 1451.89 L1125.22 1451.89 L1125.22 1415.87 L1129.5 1415.87 L1129.5 1429.9 Z" fill="#000000" fill-rule="nonzero" fill-opacity="1" /><path clip-path="url(#clip500)" d="M1177.65 1437.86 L1177.65 1439.94 L1158.07 1439.94 Q1158.34 1444.34 1160.7 1446.66 Q1163.09 1448.95 1167.33 1448.95 Q1169.78 1448.95 1172.07 1448.35 Q1174.39 1447.74 1176.65 1446.54 L1176.65 1450.57 Q1174.36 1451.54 1171.95 1452.05 Q1169.55 1452.56 1167.07 1452.56 Q1160.87 1452.56 1157.23 1448.95 Q1153.62 1445.34 1153.62 1439.18 Q1153.62 1432.81 1157.05 1429.09 Q1160.5 1425.34 1166.33 1425.34 Q1171.56 1425.34 1174.59 1428.72 Q1177.65 1432.07 1177.65 1437.86 M1173.39 1436.61 Q1173.34 1433.11 1171.42 1431.03 Q1169.52 1428.95 1166.38 1428.95 Q1162.81 1428.95 1160.66 1430.96 Q1158.53 1432.98 1158.2 1436.63 L1173.39 1436.61 Z" fill="#000000" fill-rule="nonzero" fill-opacity="1" /><path clip-path="url(#clip500)" d="M1188.85 1418.6 L1188.85 1425.96 L1197.63 1425.96 L1197.63 1429.27 L1188.85 1429.27 L1188.85 1443.35 Q1188.85 1446.52 1189.71 1447.42 Q1190.59 1448.32 1193.25 1448.32 L1197.63 1448.32 L1197.63 1451.89 L1193.25 1451.89 Q1188.32 1451.89 1186.45 1450.06 Q1184.57 1448.21 1184.57 1443.35 L1184.57 1429.27 L1181.45 1429.27 L1181.45 1425.96 L1184.57 1425.96 L1184.57 1418.6 L1188.85 1418.6 Z" fill="#000000" fill-rule="nonzero" fill-opacity="1" /><path clip-path="url(#clip500)" d="M1200.75 1425.96 L1205.01 1425.96 L1210.33 1446.19 L1215.64 1425.96 L1220.66 1425.96 L1225.98 1446.19 L1231.28 1425.96 L1235.54 1425.96 L1228.76 1451.89 L1223.74 1451.89 L1218.16 1430.64 L1212.56 1451.89 L1207.53 1451.89 L1200.75 1425.96 Z" fill="#000000" fill-rule="nonzero" fill-opacity="1" /><path clip-path="url(#clip500)" d="M1264.18 1437.86 L1264.18 1439.94 L1244.59 1439.94 Q1244.87 1444.34 1247.23 1446.66 Q1249.62 1448.95 1253.85 1448.95 Q1256.31 1448.95 1258.6 1448.35 Q1260.91 1447.74 1263.18 1446.54 L1263.18 1450.57 Q1260.89 1451.54 1258.48 1452.05 Q1256.07 1452.56 1253.6 1452.56 Q1247.39 1452.56 1243.76 1448.95 Q1240.15 1445.34 1240.15 1439.18 Q1240.15 1432.81 1243.57 1429.09 Q1247.02 1425.34 1252.86 1425.34 Q1258.09 1425.34 1261.12 1428.72 Q1264.18 1432.07 1264.18 1437.86 M1259.92 1436.61 Q1259.87 1433.11 1257.95 1431.03 Q1256.05 1428.95 1252.9 1428.95 Q1249.34 1428.95 1247.19 1430.96 Q1245.06 1432.98 1244.73 1436.63 L1259.92 1436.61 Z" fill="#000000" fill-rule="nonzero" fill-opacity="1" /><path clip-path="url(#clip500)" d="M1293.34 1437.86 L1293.34 1439.94 L1273.76 1439.94 Q1274.04 1444.34 1276.4 1446.66 Q1278.78 1448.95 1283.02 1448.95 Q1285.47 1448.95 1287.76 1448.35 Q1290.08 1447.74 1292.35 1446.54 L1292.35 1450.57 Q1290.06 1451.54 1287.65 1452.05 Q1285.24 1452.56 1282.76 1452.56 Q1276.56 1452.56 1272.93 1448.95 Q1269.32 1445.34 1269.32 1439.18 Q1269.32 1432.81 1272.74 1429.09 Q1276.19 1425.34 1282.02 1425.34 Q1287.26 1425.34 1290.29 1428.72 Q1293.34 1432.07 1293.34 1437.86 M1289.08 1436.61 Q1289.04 1433.11 1287.12 1431.03 Q1285.22 1428.95 1282.07 1428.95 Q1278.51 1428.95 1276.35 1430.96 Q1274.22 1432.98 1273.9 1436.63 L1289.08 1436.61 Z" fill="#000000" fill-rule="nonzero" fill-opacity="1" /><path clip-path="url(#clip500)" d="M1321.88 1436.24 L1321.88 1451.89 L1317.63 1451.89 L1317.63 1436.38 Q1317.63 1432.7 1316.19 1430.87 Q1314.76 1429.04 1311.88 1429.04 Q1308.44 1429.04 1306.44 1431.24 Q1304.45 1433.44 1304.45 1437.24 L1304.45 1451.89 L1300.17 1451.89 L1300.17 1425.96 L1304.45 1425.96 L1304.45 1429.99 Q1305.98 1427.65 1308.04 1426.49 Q1310.13 1425.34 1312.83 1425.34 Q1317.3 1425.34 1319.59 1428.11 Q1321.88 1430.87 1321.88 1436.24 Z" fill="#000000" fill-rule="nonzero" fill-opacity="1" /><path clip-path="url(#clip500)" d="M1358.57 1415.87 L1358.57 1419.41 L1354.5 1419.41 Q1352.21 1419.41 1351.31 1420.34 Q1350.43 1421.26 1350.43 1423.67 L1350.43 1425.96 L1357.44 1425.96 L1357.44 1429.27 L1350.43 1429.27 L1350.43 1451.89 L1346.14 1451.89 L1346.14 1429.27 L1342.07 1429.27 L1342.07 1425.96 L1346.14 1425.96 L1346.14 1424.16 Q1346.14 1419.83 1348.16 1417.86 Q1350.17 1415.87 1354.55 1415.87 L1358.57 1415.87 Z" fill="#000000" fill-rule="nonzero" fill-opacity="1" /><path clip-path="url(#clip500)" d="M1372.19 1428.95 Q1368.76 1428.95 1366.77 1431.63 Q1364.78 1434.3 1364.78 1438.95 Q1364.78 1443.6 1366.75 1446.29 Q1368.74 1448.95 1372.19 1448.95 Q1375.59 1448.95 1377.58 1446.26 Q1379.57 1443.58 1379.57 1438.95 Q1379.57 1434.34 1377.58 1431.66 Q1375.59 1428.95 1372.19 1428.95 M1372.19 1425.34 Q1377.74 1425.34 1380.91 1428.95 Q1384.08 1432.56 1384.08 1438.95 Q1384.08 1445.31 1380.91 1448.95 Q1377.74 1452.56 1372.19 1452.56 Q1366.61 1452.56 1363.44 1448.95 Q1360.29 1445.31 1360.29 1438.95 Q1360.29 1432.56 1363.44 1428.95 Q1366.61 1425.34 1372.19 1425.34 Z" fill="#000000" fill-rule="nonzero" fill-opacity="1" /><path clip-path="url(#clip500)" d="M1406.17 1429.94 Q1405.45 1429.53 1404.59 1429.34 Q1403.76 1429.13 1402.74 1429.13 Q1399.13 1429.13 1397.19 1431.49 Q1395.26 1433.83 1395.26 1438.23 L1395.26 1451.89 L1390.98 1451.89 L1390.98 1425.96 L1395.26 1425.96 L1395.26 1429.99 Q1396.61 1427.63 1398.76 1426.49 Q1400.91 1425.34 1403.99 1425.34 Q1404.43 1425.34 1404.96 1425.41 Q1405.5 1425.45 1406.14 1425.57 L1406.17 1429.94 Z" fill="#000000" fill-rule="nonzero" fill-opacity="1" /><path clip-path="url(#clip500)" d="M1429.99 1430.94 Q1431.58 1428.07 1433.81 1426.7 Q1436.03 1425.34 1439.04 1425.34 Q1443.09 1425.34 1445.29 1428.18 Q1447.49 1431.01 1447.49 1436.24 L1447.49 1451.89 L1443.2 1451.89 L1443.2 1436.38 Q1443.2 1432.65 1441.88 1430.85 Q1440.56 1429.04 1437.86 1429.04 Q1434.55 1429.04 1432.62 1431.24 Q1430.7 1433.44 1430.7 1437.24 L1430.7 1451.89 L1426.42 1451.89 L1426.42 1436.38 Q1426.42 1432.63 1425.1 1430.85 Q1423.78 1429.04 1421.03 1429.04 Q1417.76 1429.04 1415.84 1431.26 Q1413.92 1433.46 1413.92 1437.24 L1413.92 1451.89 L1409.64 1451.89 L1409.64 1425.96 L1413.92 1425.96 L1413.92 1429.99 Q1415.38 1427.61 1417.42 1426.47 Q1419.45 1425.34 1422.25 1425.34 Q1425.08 1425.34 1427.05 1426.77 Q1429.04 1428.21 1429.99 1430.94 Z" fill="#000000" fill-rule="nonzero" fill-opacity="1" /><path clip-path="url(#clip500)" d="M1467.76 1438.86 Q1462.6 1438.86 1460.61 1440.04 Q1458.62 1441.22 1458.62 1444.06 Q1458.62 1446.33 1460.1 1447.67 Q1461.61 1448.99 1464.18 1448.99 Q1467.72 1448.99 1469.85 1446.49 Q1472 1443.97 1472 1439.8 L1472 1438.86 L1467.76 1438.86 M1476.26 1437.1 L1476.26 1451.89 L1472 1451.89 L1472 1447.95 Q1470.54 1450.31 1468.37 1451.45 Q1466.19 1452.56 1463.04 1452.56 Q1459.06 1452.56 1456.7 1450.34 Q1454.36 1448.09 1454.36 1444.34 Q1454.36 1439.97 1457.28 1437.74 Q1460.22 1435.52 1466.03 1435.52 L1472 1435.52 L1472 1435.11 Q1472 1432.17 1470.06 1430.57 Q1468.13 1428.95 1464.64 1428.95 Q1462.42 1428.95 1460.31 1429.48 Q1458.2 1430.01 1456.26 1431.08 L1456.26 1427.14 Q1458.6 1426.24 1460.8 1425.8 Q1462.99 1425.34 1465.08 1425.34 Q1470.7 1425.34 1473.48 1428.25 Q1476.26 1431.17 1476.26 1437.1 Z" fill="#000000" fill-rule="nonzero" fill-opacity="1" /><path clip-path="url(#clip500)" d="M1485.03 1415.87 L1489.29 1415.87 L1489.29 1451.89 L1485.03 1451.89 L1485.03 1415.87 Z" fill="#000000" fill-rule="nonzero" fill-opacity="1" /><path clip-path="url(#clip500)" d="M1525.05 1438.86 Q1519.89 1438.86 1517.9 1440.04 Q1515.91 1441.22 1515.91 1444.06 Q1515.91 1446.33 1517.39 1447.67 Q1518.9 1448.99 1521.47 1448.99 Q1525.01 1448.99 1527.14 1446.49 Q1529.29 1443.97 1529.29 1439.8 L1529.29 1438.86 L1525.05 1438.86 M1533.55 1437.1 L1533.55 1451.89 L1529.29 1451.89 L1529.29 1447.95 Q1527.83 1450.31 1525.66 1451.45 Q1523.48 1452.56 1520.33 1452.56 Q1516.35 1452.56 1513.99 1450.34 Q1511.65 1448.09 1511.65 1444.34 Q1511.65 1439.97 1514.57 1437.74 Q1517.51 1435.52 1523.32 1435.52 L1529.29 1435.52 L1529.29 1435.11 Q1529.29 1432.17 1527.35 1430.57 Q1525.43 1428.95 1521.93 1428.95 Q1519.71 1428.95 1517.6 1429.48 Q1515.49 1430.01 1513.55 1431.08 L1513.55 1427.14 Q1515.89 1426.24 1518.09 1425.8 Q1520.29 1425.34 1522.37 1425.34 Q1527.99 1425.34 1530.77 1428.25 Q1533.55 1431.17 1533.55 1437.1 Z" fill="#000000" fill-rule="nonzero" fill-opacity="1" /><path clip-path="url(#clip500)" d="M1563.87 1436.24 L1563.87 1451.89 L1559.61 1451.89 L1559.61 1436.38 Q1559.61 1432.7 1558.18 1430.87 Q1556.74 1429.04 1553.87 1429.04 Q1550.43 1429.04 1548.43 1431.24 Q1546.44 1433.44 1546.44 1437.24 L1546.44 1451.89 L1542.16 1451.89 L1542.16 1425.96 L1546.44 1425.96 L1546.44 1429.99 Q1547.97 1427.65 1550.03 1426.49 Q1552.11 1425.34 1554.82 1425.34 Q1559.29 1425.34 1561.58 1428.11 Q1563.87 1430.87 1563.87 1436.24 Z" fill="#000000" fill-rule="nonzero" fill-opacity="1" /><path clip-path="url(#clip500)" d="M1589.43 1429.9 L1589.43 1415.87 L1593.69 1415.87 L1593.69 1451.89 L1589.43 1451.89 L1589.43 1448 Q1588.09 1450.31 1586.03 1451.45 Q1583.99 1452.56 1581.12 1452.56 Q1576.42 1452.56 1573.46 1448.81 Q1570.52 1445.06 1570.52 1438.95 Q1570.52 1432.84 1573.46 1429.09 Q1576.42 1425.34 1581.12 1425.34 Q1583.99 1425.34 1586.03 1426.47 Q1588.09 1427.58 1589.43 1429.9 M1574.92 1438.95 Q1574.92 1443.65 1576.84 1446.33 Q1578.78 1448.99 1582.16 1448.99 Q1585.54 1448.99 1587.49 1446.33 Q1589.43 1443.65 1589.43 1438.95 Q1589.43 1434.25 1587.49 1431.59 Q1585.54 1428.9 1582.16 1428.9 Q1578.78 1428.9 1576.84 1431.59 Q1574.92 1434.25 1574.92 1438.95 Z" fill="#000000" fill-rule="nonzero" fill-opacity="1" /><path clip-path="url(#clip500)" d="M1617.53 1425.96 L1621.79 1425.96 L1621.79 1451.89 L1617.53 1451.89 L1617.53 1425.96 M1617.53 1415.87 L1621.79 1415.87 L1621.79 1421.26 L1617.53 1421.26 L1617.53 1415.87 Z" fill="#000000" fill-rule="nonzero" fill-opacity="1" /><path clip-path="url(#clip500)" d="M1652.25 1436.24 L1652.25 1451.89 L1647.99 1451.89 L1647.99 1436.38 Q1647.99 1432.7 1646.56 1430.87 Q1645.12 1429.04 1642.25 1429.04 Q1638.8 1429.04 1636.81 1431.24 Q1634.82 1433.44 1634.82 1437.24 L1634.82 1451.89 L1630.54 1451.89 L1630.54 1425.96 L1634.82 1425.96 L1634.82 1429.99 Q1636.35 1427.65 1638.41 1426.49 Q1640.49 1425.34 1643.2 1425.34 Q1647.67 1425.34 1649.96 1428.11 Q1652.25 1430.87 1652.25 1436.24 Z" fill="#000000" fill-rule="nonzero" fill-opacity="1" /><path clip-path="url(#clip500)" d="M1673.87 1415.87 L1673.87 1419.41 L1669.8 1419.41 Q1667.51 1419.41 1666.6 1420.34 Q1665.73 1421.26 1665.73 1423.67 L1665.73 1425.96 L1672.74 1425.96 L1672.74 1429.27 L1665.73 1429.27 L1665.73 1451.89 L1661.44 1451.89 L1661.44 1429.27 L1657.37 1429.27 L1657.37 1425.96 L1661.44 1425.96 L1661.44 1424.16 Q1661.44 1419.83 1663.46 1417.86 Q1665.47 1415.87 1669.85 1415.87 L1673.87 1415.87 Z" fill="#000000" fill-rule="nonzero" fill-opacity="1" /><path clip-path="url(#clip500)" d="M1687.48 1428.95 Q1684.06 1428.95 1682.07 1431.63 Q1680.08 1434.3 1680.08 1438.95 Q1680.08 1443.6 1682.04 1446.29 Q1684.04 1448.95 1687.48 1448.95 Q1690.89 1448.95 1692.88 1446.26 Q1694.87 1443.58 1694.87 1438.95 Q1694.87 1434.34 1692.88 1431.66 Q1690.89 1428.95 1687.48 1428.95 M1687.48 1425.34 Q1693.04 1425.34 1696.21 1428.95 Q1699.38 1432.56 1699.38 1438.95 Q1699.38 1445.31 1696.21 1448.95 Q1693.04 1452.56 1687.48 1452.56 Q1681.91 1452.56 1678.73 1448.95 Q1675.59 1445.31 1675.59 1438.95 Q1675.59 1432.56 1678.73 1428.95 Q1681.91 1425.34 1687.48 1425.34 Z" fill="#000000" fill-rule="nonzero" fill-opacity="1" /><path clip-path="url(#clip500)" d="M1721.47 1429.94 Q1720.75 1429.53 1719.89 1429.34 Q1719.06 1429.13 1718.04 1429.13 Q1714.43 1429.13 1712.48 1431.49 Q1710.56 1433.83 1710.56 1438.23 L1710.56 1451.89 L1706.28 1451.89 L1706.28 1425.96 L1710.56 1425.96 L1710.56 1429.99 Q1711.91 1427.63 1714.06 1426.49 Q1716.21 1425.34 1719.29 1425.34 Q1719.73 1425.34 1720.26 1425.41 Q1720.79 1425.45 1721.44 1425.57 L1721.47 1429.94 Z" fill="#000000" fill-rule="nonzero" fill-opacity="1" /><path clip-path="url(#clip500)" d="M1745.29 1430.94 Q1746.88 1428.07 1749.1 1426.7 Q1751.33 1425.34 1754.34 1425.34 Q1758.39 1425.34 1760.59 1428.18 Q1762.79 1431.01 1762.79 1436.24 L1762.79 1451.89 L1758.5 1451.89 L1758.5 1436.38 Q1758.5 1432.65 1757.18 1430.85 Q1755.86 1429.04 1753.16 1429.04 Q1749.85 1429.04 1747.92 1431.24 Q1746 1433.44 1746 1437.24 L1746 1451.89 L1741.72 1451.89 L1741.72 1436.38 Q1741.72 1432.63 1740.4 1430.85 Q1739.08 1429.04 1736.33 1429.04 Q1733.06 1429.04 1731.14 1431.26 Q1729.22 1433.46 1729.22 1437.24 L1729.22 1451.89 L1724.94 1451.89 L1724.94 1425.96 L1729.22 1425.96 L1729.22 1429.99 Q1730.68 1427.61 1732.72 1426.47 Q1734.75 1425.34 1737.55 1425.34 Q1740.38 1425.34 1742.35 1426.77 Q1744.34 1428.21 1745.29 1430.94 Z" fill="#000000" fill-rule="nonzero" fill-opacity="1" /><path clip-path="url(#clip500)" d="M1783.06 1438.86 Q1777.9 1438.86 1775.91 1440.04 Q1773.92 1441.22 1773.92 1444.06 Q1773.92 1446.33 1775.4 1447.67 Q1776.91 1448.99 1779.47 1448.99 Q1783.02 1448.99 1785.15 1446.49 Q1787.3 1443.97 1787.3 1439.8 L1787.3 1438.86 L1783.06 1438.86 M1791.56 1437.1 L1791.56 1451.89 L1787.3 1451.89 L1787.3 1447.95 Q1785.84 1450.31 1783.66 1451.45 Q1781.49 1452.56 1778.34 1452.56 Q1774.36 1452.56 1772 1450.34 Q1769.66 1448.09 1769.66 1444.34 Q1769.66 1439.97 1772.58 1437.74 Q1775.52 1435.52 1781.33 1435.52 L1787.3 1435.52 L1787.3 1435.11 Q1787.3 1432.17 1785.35 1430.57 Q1783.43 1428.95 1779.94 1428.95 Q1777.72 1428.95 1775.61 1429.48 Q1773.5 1430.01 1771.56 1431.08 L1771.56 1427.14 Q1773.9 1426.24 1776.1 1425.8 Q1778.29 1425.34 1780.38 1425.34 Q1786 1425.34 1788.78 1428.25 Q1791.56 1431.17 1791.56 1437.1 Z" fill="#000000" fill-rule="nonzero" fill-opacity="1" /><path clip-path="url(#clip500)" d="M1800.33 1415.87 L1804.59 1415.87 L1804.59 1451.89 L1800.33 1451.89 L1800.33 1415.87 Z" fill="#000000" fill-rule="nonzero" fill-opacity="1" /></svg>
